NunitoSans-ExpandedHeavy.ufo
<glyph name="exclam" format="2">
  <advance width="341"/>
  <unicode hex="0021"/>
  <outline>
    <contour>
      <point x="103" y="266" type="line"/>
      <point x="238" y="266" type="line"/>
      <point x="308" y="705" type="line"/>
      <point x="33" y="705" type="line"/>
    </contour>
    <contour>
      <point x="56" y="0" type="line"/>
      <point x="284" y="0" type="line"/>
      <point x="284" y="224" type="line"/>
      <point x="56" y="224" type="line"/>
    </contour>
  </outline>
</glyph>
<glyph name="numbersign" format="2">
  <advance width="738"/>
  <unicode hex="0023"/>
  <outline>
    <contour>
      <point x="79" y="0" type="line"/>
      <point x="227" y="0" type="line"/>
      <point x="263" y="147" type="line"/>
      <point x="375" y="147" type="line"/>
      <point x="339" y="0" type="line"/>
      <point x="487" y="0" type="line"/>
      <point x="523" y="147" type="line"/>
      <point x="661" y="147" type="line"/>
      <point x="661" y="278" type="line"/>
      <point x="554" y="278" type="line"/>
      <point x="593" y="435" type="line"/>
      <point x="689" y="435" type="line"/>
      <point x="689" y="566" type="line"/>
      <point x="624" y="566" type="line"/>
      <point x="658" y="705" type="line"/>
      <point x="510" y="705" type="line"/>
      <point x="476" y="566" type="line"/>
      <point x="364" y="566" type="line"/>
      <point x="398" y="705" type="line"/>
      <point x="250" y="705" type="line"/>
      <point x="216" y="566" type="line"/>
      <point x="77" y="566" type="line"/>
      <point x="77" y="435" type="line"/>
      <point x="185" y="435" type="line"/>
      <point x="146" y="278" type="line"/>
      <point x="49" y="278" type="line"/>
      <point x="49" y="147" type="line"/>
      <point x="115" y="147" type="line"/>
    </contour>
    <contour>
      <point x="294" y="278" type="line"/>
      <point x="333" y="435" type="line"/>
      <point x="445" y="435" type="line"/>
      <point x="406" y="278" type="line"/>
    </contour>
  </outline>
</glyph>
<glyph name="dollar" format="2">
  <advance width="748"/>
  <unicode hex="0024"/>
  <outline>
    <contour>
      <point x="296" y="-115" type="line"/>
      <point x="474" y="-115" type="line"/>
      <point x="474" y="25" type="line"/>
      <point x="423" y="-6" type="line"/>
      <point x="621" y="9"/>
      <point x="732" y="92"/>
      <point x="732" y="230" type="curve" smooth="yes"/>
      <point x="732" y="339"/>
      <point x="662" y="408"/>
      <point x="517" y="431" type="curve" smooth="yes"/>
      <point x="337" y="460" type="line" smooth="yes"/>
      <point x="292" y="467"/>
      <point x="262" y="473"/>
      <point x="262" y="492" type="curve" smooth="yes"/>
      <point x="262" y="513"/>
      <point x="295" y="522"/>
      <point x="373" y="522" type="curve" smooth="yes"/>
      <point x="482" y="522"/>
      <point x="566" y="505"/>
      <point x="627" y="469" type="curve"/>
      <point x="698" y="639" type="line"/>
      <point x="644" y="678"/>
      <point x="553" y="704"/>
      <point x="451" y="711" type="curve"/>
      <point x="474" y="690" type="line"/>
      <point x="474" y="820" type="line"/>
      <point x="296" y="820" type="line"/>
      <point x="296" y="690" type="line"/>
      <point x="319" y="709" type="line"/>
      <point x="143" y="690"/>
      <point x="38" y="602"/>
      <point x="38" y="475" type="curve" smooth="yes"/>
      <point x="38" y="362"/>
      <point x="119" y="288"/>
      <point x="264" y="269" type="curve" smooth="yes"/>
      <point x="444" y="245" type="line" smooth="yes"/>
      <point x="476" y="241"/>
      <point x="507" y="235"/>
      <point x="507" y="215" type="curve" smooth="yes"/>
      <point x="507" y="193"/>
      <point x="470" y="183"/>
      <point x="388" y="183" type="curve" smooth="yes"/>
      <point x="271" y="183"/>
      <point x="175" y="204"/>
      <point x="93" y="247" type="curve"/>
      <point x="21" y="66" type="line"/>
      <point x="92" y="26"/>
      <point x="206" y="-2"/>
      <point x="323" y="-7" type="curve"/>
      <point x="296" y="25" type="line"/>
    </contour>
  </outline>
</glyph>
<glyph name="ampersand" format="2">
  <advance width="961"/>
  <unicode hex="0026"/>
  <outline>
    <contour>
      <point x="387" y="-12" type="curve" smooth="yes"/>
      <point x="497" y="-12"/>
      <point x="596" y="17"/>
      <point x="675" y="68" type="curve"/>
      <point x="645" y="68" type="line"/>
      <point x="735" y="0" type="line"/>
      <point x="1014" y="0" type="line"/>
      <point x="774" y="179" type="line"/>
      <point x="777" y="158" type="line"/>
      <point x="841" y="234"/>
      <point x="881" y="333"/>
      <point x="888" y="447" type="curve"/>
      <point x="701" y="447" type="line"/>
      <point x="696" y="373"/>
      <point x="673" y="310"/>
      <point x="637" y="262" type="curve"/>
      <point x="663" y="262" type="line"/>
      <point x="509" y="377" type="line"/>
      <point x="473" y="338" type="line"/>
      <point x="608" y="383"/>
      <point x="675" y="449"/>
      <point x="675" y="538" type="curve" smooth="yes"/>
      <point x="675" y="646"/>
      <point x="576" y="717"/>
      <point x="426" y="717" type="curve" smooth="yes"/>
      <point x="268" y="717"/>
      <point x="156" y="638"/>
      <point x="156" y="525" type="curve" smooth="yes"/>
      <point x="156" y="467"/>
      <point x="186" y="415"/>
      <point x="246" y="370" type="curve"/>
      <point x="288" y="414" type="line"/>
      <point x="263" y="406" type="line" smooth="yes"/>
      <point x="132" y="365"/>
      <point x="61" y="294"/>
      <point x="61" y="202" type="curve" smooth="yes"/>
      <point x="61" y="76"/>
      <point x="193" y="-12"/>
    </contour>
    <contour>
      <point x="410" y="153" type="curve" smooth="yes"/>
      <point x="331" y="153"/>
      <point x="289" y="180"/>
      <point x="289" y="222" type="curve" smooth="yes"/>
      <point x="289" y="258"/>
      <point x="319" y="287"/>
      <point x="374" y="305" type="curve" smooth="yes"/>
      <point x="395" y="312" type="line"/>
      <point x="319" y="315" type="line"/>
      <point x="525" y="159" type="line"/>
      <point x="525" y="175" type="line"/>
      <point x="490" y="161"/>
      <point x="452" y="153"/>
    </contour>
    <contour>
      <point x="425" y="574" type="curve" smooth="yes"/>
      <point x="465" y="574"/>
      <point x="493" y="556"/>
      <point x="493" y="527" type="curve" smooth="yes"/>
      <point x="493" y="481"/>
      <point x="426" y="455"/>
      <point x="356" y="435" type="curve"/>
      <point x="431" y="435" type="line"/>
      <point x="383" y="471"/>
      <point x="352" y="493"/>
      <point x="352" y="524" type="curve" smooth="yes"/>
      <point x="352" y="555"/>
      <point x="380" y="574"/>
    </contour>
  </outline>
</glyph>
<glyph name="quotesingle" format="2">
  <advance width="337"/>
  <unicode hex="0027"/>
  <outline>
    <contour>
      <point x="94" y="383" type="line"/>
      <point x="243" y="383" type="line"/>
      <point x="298" y="705" type="line"/>
      <point x="39" y="705" type="line"/>
    </contour>
  </outline>
</glyph>
<glyph name="parenleft" format="2">
  <advance width="513"/>
  <unicode hex="0028"/>
  <outline>
    <contour>
      <point x="323" y="-200" type="curve"/>
      <point x="465" y="-131" type="line"/>
      <point x="388" y="31"/>
      <point x="363" y="123"/>
      <point x="363" y="263" type="curve" smooth="yes"/>
      <point x="363" y="403"/>
      <point x="388" y="495"/>
      <point x="465" y="657" type="curve"/>
      <point x="323" y="726" type="line"/>
      <point x="187" y="594"/>
      <point x="120" y="442"/>
      <point x="120" y="263" type="curve" smooth="yes"/>
      <point x="120" y="84"/>
      <point x="187" y="-68"/>
    </contour>
  </outline>
</glyph>
<glyph name="three" format="2">
  <advance width="748"/>
  <unicode hex="0033"/>
  <outline>
    <contour>
      <point x="352" y="-12" type="curve" smooth="yes"/>
      <point x="562" y="-12"/>
      <point x="695" y="68"/>
      <point x="695" y="199" type="curve" smooth="yes"/>
      <point x="695" y="294"/>
      <point x="625" y="360"/>
      <point x="508" y="375" type="curve"/>
      <point x="508" y="359" type="line"/>
      <point x="612" y="380"/>
      <point x="668" y="438"/>
      <point x="668" y="521" type="curve" smooth="yes"/>
      <point x="668" y="640"/>
      <point x="554" y="717"/>
      <point x="360" y="717" type="curve" smooth="yes"/>
      <point x="237" y="717"/>
      <point x="120" y="686"/>
      <point x="42" y="635" type="curve"/>
      <point x="122" y="464" type="line"/>
      <point x="182" y="505"/>
      <point x="254" y="526"/>
      <point x="336" y="526" type="curve" smooth="yes"/>
      <point x="406" y="526"/>
      <point x="442" y="511"/>
      <point x="442" y="485" type="curve" smooth="yes"/>
      <point x="442" y="458"/>
      <point x="405" y="445"/>
      <point x="331" y="445" type="curve" smooth="yes"/>
      <point x="198" y="445" type="line"/>
      <point x="198" y="262" type="line"/>
      <point x="354" y="262" type="line" smooth="yes"/>
      <point x="433" y="262"/>
      <point x="469" y="250"/>
      <point x="469" y="223" type="curve" smooth="yes"/>
      <point x="469" y="193"/>
      <point x="424" y="179"/>
      <point x="347" y="179" type="curve" smooth="yes"/>
      <point x="253" y="179"/>
      <point x="179" y="200"/>
      <point x="107" y="242" type="curve"/>
      <point x="28" y="68" type="line"/>
      <point x="96" y="19"/>
      <point x="221" y="-12"/>
    </contour>
  </outline>
</glyph>
<glyph name="five" format="2">
  <advance width="748"/>
  <unicode hex="0035"/>
  <outline>
    <contour>
      <point x="371" y="-12" type="curve" smooth="yes"/>
      <point x="584" y="-12"/>
      <point x="717" y="80"/>
      <point x="717" y="236" type="curve" smooth="yes"/>
      <point x="717" y="375"/>
      <point x="610" y="463"/>
      <point x="436" y="463" type="curve" smooth="yes"/>
      <point x="364" y="463"/>
      <point x="295" y="448"/>
      <point x="256" y="422" type="curve"/>
      <point x="298" y="422" type="line"/>
      <point x="298" y="517" type="line"/>
      <point x="660" y="517" type="line"/>
      <point x="660" y="705" type="line"/>
      <point x="82" y="705" type="line"/>
      <point x="82" y="255" type="line"/>
      <point x="229" y="255" type="line"/>
      <point x="279" y="274"/>
      <point x="324" y="283"/>
      <point x="377" y="283" type="curve" smooth="yes"/>
      <point x="451" y="283"/>
      <point x="491" y="266"/>
      <point x="491" y="232" type="curve" smooth="yes"/>
      <point x="491" y="196"/>
      <point x="447" y="179"/>
      <point x="368" y="179" type="curve" smooth="yes"/>
      <point x="279" y="179"/>
      <point x="203" y="201"/>
      <point x="135" y="240" type="curve"/>
      <point x="56" y="66" type="line"/>
      <point x="120" y="20"/>
      <point x="245" y="-12"/>
    </contour>
  </outline>
</glyph>
<glyph name="seven" format="2">
  <advance width="748"/>
  <unicode hex="0037"/>
  <outline>
    <contour>
      <point x="62" y="0" type="line"/>
      <point x="338" y="0" type="line"/>
      <point x="703" y="528" type="line"/>
      <point x="703" y="705" type="line"/>
      <point x="46" y="705" type="line"/>
      <point x="46" y="507" type="line"/>
      <point x="492" y="507" type="line"/>
      <point x="489" y="576" type="line"/>
    </contour>
  </outline>
</glyph>
<glyph name="equal" format="2">
  <advance width="748"/>
  <unicode hex="003D"/>
  <outline>
    <contour>
      <point x="103" y="323" type="line"/>
      <point x="645" y="323" type="line"/>
      <point x="645" y="471" type="line"/>
      <point x="103" y="471" type="line"/>
    </contour>
    <contour>
      <point x="103" y="103" type="line"/>
      <point x="645" y="103" type="line"/>
      <point x="645" y="251" type="line"/>
      <point x="103" y="251" type="line"/>
    </contour>
  </outline>
</glyph>
<glyph name="greater" format="2">
  <advance width="748"/>
  <unicode hex="003E"/>
  <outline>
    <contour>
      <point x="103" y="17" type="line"/>
      <point x="645" y="203" type="line"/>
      <point x="645" y="371" type="line"/>
      <point x="103" y="557" type="line"/>
      <point x="103" y="391" type="line"/>
      <point x="590" y="235" type="line"/>
      <point x="590" y="339" type="line"/>
      <point x="103" y="183" type="line"/>
    </contour>
  </outline>
</glyph>
<glyph name="question" format="2">
  <advance width="598"/>
  <unicode hex="003F"/>
  <outline>
    <contour>
      <point x="230" y="266" type="line"/>
      <point x="364" y="266" type="line"/>
      <point x="368" y="293" type="line" smooth="yes"/>
      <point x="372" y="319"/>
      <point x="396" y="341"/>
      <point x="477" y="382" type="curve" smooth="yes"/>
      <point x="558" y="423"/>
      <point x="595" y="469"/>
      <point x="595" y="531" type="curve" smooth="yes"/>
      <point x="595" y="644"/>
      <point x="476" y="717"/>
      <point x="305" y="717" type="curve" smooth="yes"/>
      <point x="192" y="717"/>
      <point x="78" y="685"/>
      <point x="1" y="635" type="curve"/>
      <point x="81" y="464" type="line"/>
      <point x="145" y="505"/>
      <point x="212" y="526"/>
      <point x="289" y="526" type="curve" smooth="yes"/>
      <point x="336" y="526"/>
      <point x="362" y="518"/>
      <point x="362" y="498" type="curve" smooth="yes"/>
      <point x="362" y="488"/>
      <point x="355" y="481"/>
      <point x="312" y="456" type="curve" smooth="yes"/>
      <point x="251" y="421"/>
      <point x="230" y="379"/>
      <point x="230" y="332" type="curve" smooth="yes"/>
    </contour>
    <contour>
      <point x="183" y="0" type="line"/>
      <point x="411" y="0" type="line"/>
      <point x="411" y="224" type="line"/>
      <point x="183" y="224" type="line"/>
    </contour>
  </outline>
</glyph>
<glyph name="B" format="2">
  <advance width="886"/>
  <unicode hex="0042"/>
  <anchor x="437" y="0" name="bottom"/>
  <anchor x="437" y="705" name="top"/>
  <outline>
    <contour>
      <point x="77" y="0" type="line"/>
      <point x="529" y="0" type="line" smooth="yes"/>
      <point x="719.944" y="0"/>
      <point x="838" y="78"/>
      <point x="838" y="200" type="curve" smooth="yes"/>
      <point x="838" y="294"/>
      <point x="767.984" y="354.128"/>
      <point x="643" y="376" type="curve"/>
      <point x="643" y="359" type="line"/>
      <point x="748.756" y="380.989"/>
      <point x="814" y="442"/>
      <point x="814" y="526" type="curve" smooth="yes"/>
      <point x="814" y="636"/>
      <point x="704.038" y="705"/>
      <point x="517" y="705" type="curve" smooth="yes"/>
      <point x="77" y="705" type="line"/>
    </contour>
    <contour>
      <point x="312" y="170" type="line"/>
      <point x="312" y="273" type="line"/>
      <point x="502" y="273" type="line" smooth="yes"/>
      <point x="575" y="273"/>
      <point x="604" y="258"/>
      <point x="604" y="222" type="curve" smooth="yes"/>
      <point x="604" y="185"/>
      <point x="575" y="170"/>
      <point x="502" y="170" type="curve" smooth="yes"/>
    </contour>
    <contour>
      <point x="312" y="443" type="line"/>
      <point x="312" y="535" type="line"/>
      <point x="479" y="535" type="line" smooth="yes"/>
      <point x="555" y="535"/>
      <point x="580" y="524"/>
      <point x="580" y="490" type="curve" smooth="yes"/>
      <point x="580" y="455"/>
      <point x="555" y="443"/>
      <point x="479" y="443" type="curve" smooth="yes"/>
    </contour>
  </outline>
</glyph>
<glyph name="F" format="2">
  <advance width="724"/>
  <unicode hex="0046"/>
  <anchor x="379" y="0" name="bottom"/>
  <anchor x="386" y="705" name="top"/>
  <outline>
    <contour>
      <point x="77" y="0" type="line"/>
      <point x="323" y="0" type="line"/>
      <point x="323" y="259" type="line"/>
      <point x="668" y="259" type="line"/>
      <point x="668" y="438" type="line"/>
      <point x="323" y="438" type="line"/>
      <point x="323" y="526" type="line"/>
      <point x="696" y="526" type="line"/>
      <point x="696" y="705" type="line"/>
      <point x="77" y="705" type="line"/>
    </contour>
  </outline>
</glyph>
<glyph name="G" format="2">
  <advance width="934"/>
  <unicode hex="0047"/>
  <anchor x="525" y="0" name="bottom"/>
  <anchor x="516" y="705" name="top"/>
  <outline>
    <contour>
      <point x="533" y="-12" type="curve" smooth="yes"/>
      <point x="650" y="-12"/>
      <point x="768" y="10"/>
      <point x="862" y="49" type="curve"/>
      <point x="862" y="412" type="line"/>
      <point x="495" y="412" type="line"/>
      <point x="495" y="252" type="line"/>
      <point x="664" y="252" type="line"/>
      <point x="664" y="159" type="line"/>
      <point x="696" y="204" type="line"/>
      <point x="634" y="190"/>
      <point x="584" y="183"/>
      <point x="536" y="183" type="curve" smooth="yes"/>
      <point x="386.277" y="183"/>
      <point x="309" y="240"/>
      <point x="309" y="351" type="curve" smooth="yes"/>
      <point x="309" y="462"/>
      <point x="387.344" y="517"/>
      <point x="545" y="517" type="curve" smooth="yes"/>
      <point x="635" y="517"/>
      <point x="707" y="500"/>
      <point x="781" y="462" type="curve"/>
      <point x="859" y="643" type="line"/>
      <point x="784" y="690"/>
      <point x="666" y="717"/>
      <point x="537" y="717" type="curve" smooth="yes"/>
      <point x="241" y="717"/>
      <point x="55" y="575"/>
      <point x="55" y="349" type="curve" smooth="yes"/>
      <point x="55" y="126"/>
      <point x="237" y="-12"/>
    </contour>
  </outline>
</glyph>
<glyph name="H" format="2">
  <advance width="990"/>
  <unicode hex="0048"/>
  <anchor x="495" y="0" name="bottom"/>
  <anchor x="495" y="578" name="center"/>
  <anchor x="495" y="705" name="top"/>
  <anchor x="23" y="705" name="topleft"/>
  <outline>
    <contour>
      <point x="77" y="0" type="line"/>
      <point x="323" y="0" type="line"/>
      <point x="323" y="261" type="line"/>
      <point x="667" y="261" type="line"/>
      <point x="667" y="0" type="line"/>
      <point x="913" y="0" type="line"/>
      <point x="913" y="705" type="line"/>
      <point x="667" y="705" type="line"/>
      <point x="667" y="453" type="line"/>
      <point x="323" y="453" type="line"/>
      <point x="323" y="705" type="line"/>
      <point x="77" y="705" type="line"/>
    </contour>
  </outline>
</glyph>
<glyph name="J" format="2">
  <advance width="499"/>
  <unicode hex="004A"/>
  <anchor x="299" y="0" name="bottom"/>
  <anchor x="299" y="705" name="top"/>
  <outline>
    <contour>
      <point x="2" y="-12" type="line"/>
      <point x="131" y="-6" type="line" smooth="yes"/>
      <point x="320.211" y="2.801"/>
      <point x="422" y="90"/>
      <point x="422" y="243" type="curve" smooth="yes"/>
      <point x="422" y="705" type="line"/>
      <point x="176" y="705" type="line"/>
      <point x="176" y="239" type="line" smooth="yes"/>
      <point x="176" y="203"/>
      <point x="149" y="184"/>
      <point x="92" y="181" type="curve" smooth="yes"/>
      <point x="-12" y="175" type="line"/>
    </contour>
  </outline>
</glyph>
<glyph name="K" format="2">
  <advance width="895"/>
  <unicode hex="004B"/>
  <anchor x="441" y="0" name="bottom"/>
  <anchor x="441" y="705" name="top"/>
  <anchor x="23" y="705" name="topleft"/>
  <outline>
    <contour>
      <point x="77" y="0" type="line"/>
      <point x="323" y="0" type="line"/>
      <point x="323" y="311" type="line"/>
      <point x="325" y="311" type="line"/>
      <point x="631" y="0" type="line"/>
      <point x="949" y="0" type="line"/>
      <point x="513" y="401" type="line"/>
      <point x="512" y="334" type="line"/>
      <point x="936" y="705" type="line"/>
      <point x="634" y="705" type="line"/>
      <point x="325" y="412" type="line"/>
      <point x="323" y="412" type="line"/>
      <point x="323" y="705" type="line"/>
      <point x="77" y="705" type="line"/>
    </contour>
  </outline>
</glyph>
<glyph name="M" format="2">
  <advance width="1120"/>
  <unicode hex="004D"/>
  <anchor x="560" y="0" name="bottom"/>
  <anchor x="560" y="705" name="top"/>
  <outline>
    <contour>
      <point x="79" y="0" type="line"/>
      <point x="301" y="0" type="line"/>
      <point x="301" y="383" type="line"/>
      <point x="272" y="383" type="line"/>
      <point x="496" y="102" type="line"/>
      <point x="620" y="102" type="line"/>
      <point x="844" y="383" type="line"/>
      <point x="819" y="383" type="line"/>
      <point x="819" y="0" type="line"/>
      <point x="1041" y="0" type="line"/>
      <point x="1041" y="705" type="line"/>
      <point x="830" y="705" type="line"/>
      <point x="541" y="306" type="line"/>
      <point x="584" y="306" type="line"/>
      <point x="289" y="705" type="line"/>
      <point x="79" y="705" type="line"/>
    </contour>
  </outline>
</glyph>
<glyph name="S" format="2">
  <advance width="815"/>
  <unicode hex="0053"/>
  <anchor x="419" y="0" name="bottom"/>
  <anchor x="423" y="705" name="top"/>
  <outline>
    <contour>
      <point x="412" y="-12" type="curve" smooth="yes"/>
      <point x="644" y="-12"/>
      <point x="788" y="78"/>
      <point x="788" y="225" type="curve" smooth="yes"/>
      <point x="788" y="338"/>
      <point x="703" y="411"/>
      <point x="543" y="436" type="curve" smooth="yes"/>
      <point x="377" y="462" type="line" smooth="yes"/>
      <point x="333" y="469"/>
      <point x="302" y="474"/>
      <point x="302" y="495" type="curve" smooth="yes"/>
      <point x="302" y="517"/>
      <point x="338" y="528"/>
      <point x="415" y="528" type="curve" smooth="yes"/>
      <point x="527" y="528"/>
      <point x="607" y="507"/>
      <point x="681" y="465" type="curve"/>
      <point x="752" y="635" type="line"/>
      <point x="680" y="686"/>
      <point x="560" y="717"/>
      <point x="431" y="717" type="curve" smooth="yes"/>
      <point x="211" y="717"/>
      <point x="62" y="626"/>
      <point x="62" y="475" type="curve" smooth="yes"/>
      <point x="62" y="360"/>
      <point x="147" y="288"/>
      <point x="304" y="267" type="curve" smooth="yes"/>
      <point x="484" y="243" type="line" smooth="yes"/>
      <point x="522" y="238"/>
      <point x="547" y="234"/>
      <point x="547" y="214" type="curve" smooth="yes"/>
      <point x="547" y="190"/>
      <point x="509" y="177"/>
      <point x="429" y="177" type="curve" smooth="yes"/>
      <point x="312" y="177"/>
      <point x="212" y="203"/>
      <point x="117" y="251" type="curve"/>
      <point x="45" y="70" type="line"/>
      <point x="132" y="20"/>
      <point x="274" y="-12"/>
    </contour>
  </outline>
</glyph>
<glyph name="T" format="2">
  <advance width="806"/>
  <unicode hex="0054"/>
  <anchor x="403" y="0" name="bottom"/>
  <anchor x="403" y="358" name="center"/>
  <anchor x="403" y="705" name="top"/>
  <outline>
    <contour>
      <point x="280" y="0" type="line"/>
      <point x="526" y="0" type="line"/>
      <point x="526" y="515" type="line"/>
      <point x="799" y="515" type="line"/>
      <point x="799" y="705" type="line"/>
      <point x="7" y="705" type="line"/>
      <point x="7" y="515" type="line"/>
      <point x="280" y="515" type="line"/>
    </contour>
  </outline>
</glyph>
<glyph name="U" format="2">
  <advance width="942"/>
  <unicode hex="0055"/>
  <anchor x="471" y="0" name="bottom"/>
  <anchor x="542" y="0" name="ogonek"/>
  <anchor x="471" y="705" name="top"/>
  <anchor x="701" y="705" name="topright"/>
  <outline>
    <contour>
      <point x="473" y="-12" type="curve" smooth="yes"/>
      <point x="740" y="-12"/>
      <point x="871" y="99"/>
      <point x="871" y="313" type="curve" smooth="yes"/>
      <point x="871" y="705" type="line"/>
      <point x="629" y="705" type="line"/>
      <point x="629" y="312" type="line" smooth="yes"/>
      <point x="629" y="232"/>
      <point x="575" y="183"/>
      <point x="473" y="183" type="curve" smooth="yes"/>
      <point x="371" y="183"/>
      <point x="317" y="232"/>
      <point x="317" y="312" type="curve" smooth="yes"/>
      <point x="317" y="705" type="line"/>
      <point x="71" y="705" type="line"/>
      <point x="71" y="313" type="line" smooth="yes"/>
      <point x="71" y="101"/>
      <point x="205" y="-12"/>
    </contour>
  </outline>
</glyph>
<glyph name="V" format="2">
  <advance width="930"/>
  <unicode hex="0056"/>
  <anchor x="465" y="0" name="bottom"/>
  <anchor x="465" y="705" name="top"/>
  <outline>
    <contour>
      <point x="363" y="0" type="line"/>
      <point x="567" y="0" type="line"/>
      <point x="962" y="705" type="line"/>
      <point x="698" y="705" type="line"/>
      <point x="436" y="205" type="line"/>
      <point x="504" y="205" type="line"/>
      <point x="242" y="705" type="line"/>
      <point x="-32" y="705" type="line"/>
    </contour>
  </outline>
</glyph>
<glyph name="W" format="2">
  <advance width="1408"/>
  <unicode hex="0057"/>
  <anchor x="704" y="0" name="bottom"/>
  <anchor x="705" y="705" name="top"/>
  <outline>
    <contour>
      <point x="320" y="0" type="line"/>
      <point x="520" y="0" type="line"/>
      <point x="718" y="381" type="line"/>
      <point x="690" y="381" type="line"/>
      <point x="888" y="0" type="line"/>
      <point x="1088" y="0" type="line"/>
      <point x="1398" y="705" type="line"/>
      <point x="1158" y="705" type="line"/>
      <point x="959" y="260" type="line"/>
      <point x="1020" y="260" type="line"/>
      <point x="803" y="705" type="line"/>
      <point x="620" y="705" type="line"/>
      <point x="403" y="260" type="line"/>
      <point x="464" y="260" type="line"/>
      <point x="265" y="705" type="line"/>
      <point x="10" y="705" type="line"/>
    </contour>
  </outline>
</glyph>
<glyph name="X" format="2">
  <advance width="874"/>
  <unicode hex="0058"/>
  <anchor x="438" y="0" name="bottom"/>
  <anchor x="438" y="705" name="top"/>
  <outline>
    <contour>
      <point x="-39" y="0" type="line"/>
      <point x="252" y="0" type="line"/>
      <point x="473" y="237" type="line"/>
      <point x="397" y="237" type="line"/>
      <point x="615" y="0" type="line"/>
      <point x="918" y="0" type="line"/>
      <point x="535" y="408" type="line"/>
      <point x="535" y="299" type="line"/>
      <point x="908" y="705" type="line"/>
      <point x="617" y="705" type="line"/>
      <point x="400" y="466" type="line"/>
      <point x="477" y="466" type="line"/>
      <point x="267" y="705" type="line"/>
      <point x="-36" y="705" type="line"/>
      <point x="339" y="299" type="line"/>
      <point x="339" y="408" type="line"/>
    </contour>
  </outline>
</glyph>
<glyph name="Y" format="2">
  <advance width="806"/>
  <unicode hex="0059"/>
  <anchor x="402" y="0" name="bottom"/>
  <anchor x="404" y="705" name="top"/>
  <anchor x="19" y="705" name="topleft"/>
  <outline>
    <contour>
      <point x="280" y="0" type="line"/>
      <point x="526" y="0" type="line"/>
      <point x="526" y="358" type="line"/>
      <point x="481" y="233" type="line"/>
      <point x="861" y="705" type="line"/>
      <point x="588" y="705" type="line"/>
      <point x="384" y="443" type="line"/>
      <point x="430" y="443" type="line"/>
      <point x="226" y="705" type="line"/>
      <point x="-55" y="705" type="line"/>
      <point x="325" y="233" type="line"/>
      <point x="280" y="358" type="line"/>
    </contour>
  </outline>
</glyph>
<glyph name="bracketleft" format="2">
  <advance width="505"/>
  <unicode hex="005B"/>
  <outline>
    <contour>
      <point x="126" y="-180" type="line"/>
      <point x="484" y="-180" type="line"/>
      <point x="484" y="-14" type="line"/>
      <point x="356" y="-14" type="line"/>
      <point x="356" y="539" type="line"/>
      <point x="484" y="539" type="line"/>
      <point x="484" y="705" type="line"/>
      <point x="126" y="705" type="line"/>
    </contour>
  </outline>
</glyph>
<glyph name="backslash" format="2">
  <advance width="440"/>
  <unicode hex="005C"/>
  <outline>
    <contour>
      <point x="300" y="-91" type="line"/>
      <point x="464" y="-31" type="line"/>
      <point x="140" y="779" type="line"/>
      <point x="-24" y="719" type="line"/>
    </contour>
  </outline>
</glyph>
<glyph name="bracketright" format="2">
  <advance width="505"/>
  <unicode hex="005D"/>
  <outline>
    <contour>
      <point x="21" y="-180" type="line"/>
      <point x="379" y="-180" type="line"/>
      <point x="379" y="705" type="line"/>
      <point x="21" y="705" type="line"/>
      <point x="21" y="539" type="line"/>
      <point x="149" y="539" type="line"/>
      <point x="149" y="-14" type="line"/>
      <point x="21" y="-14" type="line"/>
    </contour>
  </outline>
</glyph>
<glyph name="b" format="2">
  <advance width="777"/>
  <unicode hex="0062"/>
  <anchor x="379" y="0" name="bottom"/>
  <anchor x="402" y="705" name="top"/>
  <outline>
    <contour>
      <point x="473" y="-12" type="curve" smooth="yes"/>
      <point x="635" y="-12"/>
      <point x="743" y="90"/>
      <point x="743" y="247" type="curve" smooth="yes"/>
      <point x="743" y="404"/>
      <point x="635" y="506"/>
      <point x="473" y="506" type="curve" smooth="yes"/>
      <point x="392" y="506"/>
      <point x="311" y="474"/>
      <point x="274" y="420" type="curve"/>
      <point x="291" y="420" type="line"/>
      <point x="291" y="705" type="line"/>
      <point x="61" y="705" type="line"/>
      <point x="61" y="0" type="line"/>
      <point x="288" y="0" type="line"/>
      <point x="288" y="74" type="line"/>
      <point x="274" y="74" type="line"/>
      <point x="311" y="20"/>
      <point x="392" y="-12"/>
    </contour>
    <contour>
      <point x="400" y="154" type="curve" smooth="yes"/>
      <point x="328" y="154"/>
      <point x="288" y="188"/>
      <point x="288" y="247" type="curve" smooth="yes"/>
      <point x="288" y="306"/>
      <point x="328" y="340"/>
      <point x="400" y="340" type="curve" smooth="yes"/>
      <point x="472" y="340"/>
      <point x="512" y="306"/>
      <point x="512" y="247" type="curve" smooth="yes"/>
      <point x="512" y="188"/>
      <point x="472" y="154"/>
    </contour>
  </outline>
</glyph>
<glyph name="c" format="2">
  <advance width="605"/>
  <unicode hex="0063"/>
  <anchor x="363" y="0" name="bottom"/>
  <anchor x="363" y="484" name="top"/>
  <outline>
    <contour>
      <point x="374" y="-12" type="curve" smooth="yes"/>
      <point x="464" y="-12"/>
      <point x="552" y="8"/>
      <point x="603" y="40" type="curve"/>
      <point x="538" y="195" type="line"/>
      <point x="494" y="170"/>
      <point x="443" y="157"/>
      <point x="394" y="157" type="curve" smooth="yes"/>
      <point x="310" y="157"/>
      <point x="270" y="191"/>
      <point x="270" y="246" type="curve" smooth="yes"/>
      <point x="270" y="302"/>
      <point x="310" y="337"/>
      <point x="395" y="337" type="curve" smooth="yes"/>
      <point x="443" y="337"/>
      <point x="498" y="323"/>
      <point x="538" y="299" type="curve"/>
      <point x="603" y="454" type="line"/>
      <point x="554" y="486"/>
      <point x="465" y="506"/>
      <point x="374" y="506" type="curve" smooth="yes"/>
      <point x="165" y="506"/>
      <point x="34" y="404"/>
      <point x="34" y="246" type="curve" smooth="yes"/>
      <point x="34" y="89"/>
      <point x="165" y="-12"/>
    </contour>
  </outline>
</glyph>
<glyph name="e" format="2">
  <advance width="685"/>
  <unicode hex="0065"/>
  <anchor x="352" y="0" name="bottom"/>
  <anchor x="531" y="0" name="ogonek"/>
  <anchor x="374" y="484" name="top"/>
  <outline>
    <contour>
      <point x="400" y="-12" type="curve" smooth="yes"/>
      <point x="504" y="-12"/>
      <point x="600" y="9"/>
      <point x="655" y="39" type="curve"/>
      <point x="601" y="186" type="line"/>
      <point x="560" y="167"/>
      <point x="487" y="153"/>
      <point x="411" y="153" type="curve" smooth="yes"/>
      <point x="279" y="153"/>
      <point x="252" y="191"/>
      <point x="252" y="257" type="curve" smooth="yes"/>
      <point x="252" y="266" type="line" smooth="yes"/>
      <point x="252" y="330"/>
      <point x="286" y="361"/>
      <point x="369" y="361" type="curve" smooth="yes"/>
      <point x="438" y="361"/>
      <point x="469" y="337"/>
      <point x="472" y="288" type="curve"/>
      <point x="496" y="306" type="line"/>
      <point x="227" y="306" type="line"/>
      <point x="227" y="202" type="line"/>
      <point x="665" y="202" type="line"/>
      <point x="665" y="243" type="line" smooth="yes"/>
      <point x="665" y="405"/>
      <point x="548" y="506"/>
      <point x="360" y="506" type="curve" smooth="yes"/>
      <point x="169" y="506"/>
      <point x="34" y="400"/>
      <point x="34" y="245" type="curve" smooth="yes"/>
      <point x="34" y="87"/>
      <point x="173" y="-12"/>
    </contour>
  </outline>
</glyph>
<glyph name="k" format="2">
  <advance width="729"/>
  <unicode hex="006B"/>
  <anchor x="364" y="0" name="bottom"/>
  <anchor x="384" y="705" name="top"/>
  <outline>
    <contour>
      <point x="61" y="0" type="line"/>
      <point x="291" y="0" type="line"/>
      <point x="291" y="193" type="line"/>
      <point x="293" y="193" type="line"/>
      <point x="481" y="0" type="line"/>
      <point x="769" y="0" type="line"/>
      <point x="463" y="288" type="line"/>
      <point x="463" y="227" type="line"/>
      <point x="762" y="494" type="line"/>
      <point x="482" y="494" type="line"/>
      <point x="293" y="307" type="line"/>
      <point x="291" y="307" type="line"/>
      <point x="291" y="705" type="line"/>
      <point x="61" y="705" type="line"/>
    </contour>
  </outline>
</glyph>
<glyph name="m" format="2">
  <advance width="1128"/>
  <unicode hex="006D"/>
  <anchor x="565" y="0" name="bottom"/>
  <anchor x="565" y="484" name="top"/>
  <outline>
    <contour>
      <point x="63" y="0" type="line"/>
      <point x="293" y="0" type="line"/>
      <point x="293" y="244" type="line" smooth="yes"/>
      <point x="293" y="288"/>
      <point x="332" y="333"/>
      <point x="388" y="333" type="curve" smooth="yes"/>
      <point x="426" y="333"/>
      <point x="450" y="316"/>
      <point x="450" y="253" type="curve" smooth="yes"/>
      <point x="450" y="0" type="line"/>
      <point x="680" y="0" type="line"/>
      <point x="680" y="244" type="line" smooth="yes"/>
      <point x="680" y="288"/>
      <point x="719" y="333"/>
      <point x="775" y="333" type="curve" smooth="yes"/>
      <point x="813" y="333"/>
      <point x="837" y="316"/>
      <point x="837" y="253" type="curve" smooth="yes"/>
      <point x="837" y="0" type="line"/>
      <point x="1067" y="0" type="line"/>
      <point x="1067" y="261" type="line" smooth="yes"/>
      <point x="1067" y="431"/>
      <point x="998.074" y="506"/>
      <point x="855" y="506" type="curve" smooth="yes"/>
      <point x="768.716" y="506"/>
      <point x="693.832" y="474.133"/>
      <point x="646" y="409" type="curve"/>
      <point x="656" y="409" type="line"/>
      <point x="624.936" y="475.135"/>
      <point x="565.994" y="506"/>
      <point x="477" y="506" type="curve" smooth="yes"/>
      <point x="394" y="506"/>
      <point x="324" y="473"/>
      <point x="277" y="409" type="curve"/>
      <point x="288" y="409" type="line"/>
      <point x="288" y="494" type="line"/>
      <point x="63" y="494" type="line"/>
    </contour>
  </outline>
</glyph>
<glyph name="n" format="2">
  <advance width="759"/>
  <unicode hex="006E"/>
  <anchor x="381" y="0" name="bottom"/>
  <anchor x="381" y="484" name="top"/>
  <outline>
    <contour>
      <point x="61" y="0" type="line"/>
      <point x="291" y="0" type="line"/>
      <point x="291" y="244" type="line" smooth="yes"/>
      <point x="291" y="288"/>
      <point x="334" y="333"/>
      <point x="397" y="333" type="curve" smooth="yes"/>
      <point x="442" y="333"/>
      <point x="470" y="316"/>
      <point x="470" y="253" type="curve" smooth="yes"/>
      <point x="470" y="0" type="line"/>
      <point x="700" y="0" type="line"/>
      <point x="700" y="261" type="line" smooth="yes"/>
      <point x="700" y="431"/>
      <point x="630" y="506"/>
      <point x="486" y="506" type="curve" smooth="yes"/>
      <point x="398" y="506"/>
      <point x="323" y="474"/>
      <point x="275" y="409" type="curve"/>
      <point x="286" y="409" type="line"/>
      <point x="286" y="494" type="line"/>
      <point x="61" y="494" type="line"/>
    </contour>
  </outline>
</glyph>
<glyph name="q" format="2">
  <advance width="776"/>
  <unicode hex="0071"/>
  <anchor x="392" y="0" name="bottom"/>
  <anchor x="392" y="484" name="top"/>
  <outline>
    <contour>
      <point x="485" y="-180" type="line"/>
      <point x="715" y="-180" type="line"/>
      <point x="715" y="494" type="line"/>
      <point x="485" y="494" type="line"/>
      <point x="485" y="421" type="line"/>
      <point x="500" y="421" type="line"/>
      <point x="474" y="474"/>
      <point x="403" y="506"/>
      <point x="308" y="506" type="curve" smooth="yes"/>
      <point x="138" y="506"/>
      <point x="34" y="404"/>
      <point x="34" y="247" type="curve" smooth="yes"/>
      <point x="34" y="90"/>
      <point x="138" y="-12"/>
      <point x="308" y="-12" type="curve" smooth="yes"/>
      <point x="403" y="-12"/>
      <point x="474" y="20"/>
      <point x="500" y="73" type="curve"/>
      <point x="485" y="73" type="line"/>
    </contour>
    <contour>
      <point x="377" y="154" type="curve" smooth="yes"/>
      <point x="307" y="154"/>
      <point x="265" y="189"/>
      <point x="265" y="247" type="curve" smooth="yes"/>
      <point x="265" y="305"/>
      <point x="307" y="340"/>
      <point x="377" y="340" type="curve" smooth="yes"/>
      <point x="447" y="340"/>
      <point x="489" y="306"/>
      <point x="489" y="247" type="curve" smooth="yes"/>
      <point x="489" y="188"/>
      <point x="447" y="154"/>
    </contour>
  </outline>
</glyph>
<glyph name="r" format="2">
  <advance width="546"/>
  <unicode hex="0072"/>
  <anchor x="179" y="0" name="bottom"/>
  <anchor x="302" y="484" name="top"/>
  <outline>
    <contour>
      <point x="61" y="0" type="line"/>
      <point x="296" y="0" type="line"/>
      <point x="296" y="227" type="line" smooth="yes"/>
      <point x="296" y="278"/>
      <point x="328" y="297"/>
      <point x="419" y="306" type="curve" smooth="yes"/>
      <point x="544" y="318" type="line"/>
      <point x="531" y="508" type="line"/>
      <point x="469" y="504" type="line" smooth="yes"/>
      <point x="357" y="497"/>
      <point x="288" y="449"/>
      <point x="273" y="370" type="curve"/>
      <point x="286" y="370" type="line"/>
      <point x="286" y="494" type="line"/>
      <point x="61" y="494" type="line"/>
    </contour>
  </outline>
</glyph>
<glyph name="s" format="2">
  <advance width="620"/>
  <unicode hex="0073"/>
  <anchor x="311" y="0" name="bottom"/>
  <anchor x="321" y="484" name="top"/>
  <outline>
    <contour>
      <point x="308" y="-12" type="curve" smooth="yes"/>
      <point x="482" y="-12"/>
      <point x="596" y="56"/>
      <point x="596" y="167" type="curve" smooth="yes"/>
      <point x="596" y="249"/>
      <point x="539" y="297"/>
      <point x="440" y="307" type="curve" smooth="yes"/>
      <point x="279" y="323" type="line" smooth="yes"/>
      <point x="250" y="326"/>
      <point x="246" y="333"/>
      <point x="246" y="339" type="curve" smooth="yes"/>
      <point x="246" y="352"/>
      <point x="263" y="358"/>
      <point x="314" y="358" type="curve" smooth="yes"/>
      <point x="380" y="358"/>
      <point x="460" y="344"/>
      <point x="526" y="320" type="curve"/>
      <point x="580" y="457" type="line"/>
      <point x="529" y="486"/>
      <point x="439" y="506"/>
      <point x="331" y="506" type="curve" smooth="yes"/>
      <point x="165" y="506"/>
      <point x="43" y="436"/>
      <point x="43" y="329" type="curve" smooth="yes"/>
      <point x="43" y="251"/>
      <point x="102" y="197"/>
      <point x="206" y="187" type="curve" smooth="yes"/>
      <point x="367" y="171" type="line" smooth="yes"/>
      <point x="386" y="169"/>
      <point x="394" y="164"/>
      <point x="394" y="155" type="curve" smooth="yes"/>
      <point x="394" y="141"/>
      <point x="370" y="135"/>
      <point x="330" y="135" type="curve" smooth="yes"/>
      <point x="257" y="135"/>
      <point x="152" y="152"/>
      <point x="80" y="182" type="curve"/>
      <point x="39" y="36" type="line"/>
      <point x="99" y="7"/>
      <point x="196" y="-12"/>
    </contour>
  </outline>
</glyph>
<glyph name="w" format="2">
  <advance width="1086"/>
  <unicode hex="0077"/>
  <anchor x="543" y="0" name="bottom"/>
  <anchor x="543" y="484" name="top"/>
  <outline>
    <contour>
      <point x="239" y="0" type="line"/>
      <point x="428" y="0" type="line"/>
      <point x="585" y="297" type="line"/>
      <point x="501" y="297" type="line"/>
      <point x="658" y="0" type="line"/>
      <point x="847" y="0" type="line"/>
      <point x="1107" y="494" type="line"/>
      <point x="881" y="494" type="line"/>
      <point x="742" y="215" type="line"/>
      <point x="764" y="215" type="line"/>
      <point x="619" y="494" type="line"/>
      <point x="479" y="494" type="line"/>
      <point x="334" y="215" type="line"/>
      <point x="356" y="215" type="line"/>
      <point x="220" y="494" type="line"/>
      <point x="-21" y="494" type="line"/>
    </contour>
  </outline>
</glyph>
<glyph name="z" format="2">
  <advance width="608"/>
  <unicode hex="007A"/>
  <anchor x="310" y="0" name="bottom"/>
  <anchor x="310" y="484" name="top"/>
  <outline>
    <contour>
      <point x="50" y="0" type="line"/>
      <point x="582" y="0" type="line"/>
      <point x="582" y="162" type="line"/>
      <point x="251" y="162" type="line"/>
      <point x="251" y="108" type="line"/>
      <point x="569" y="344" type="line"/>
      <point x="569" y="494" type="line"/>
      <point x="50" y="494" type="line"/>
      <point x="50" y="332" type="line"/>
      <point x="362" y="332" type="line"/>
      <point x="362" y="386" type="line"/>
      <point x="50" y="150" type="line"/>
    </contour>
  </outline>
</glyph>
<glyph name="asciitilde" format="2">
  <advance width="748"/>
  <unicode hex="007E"/>
  <outline>
    <contour>
      <point x="497" y="189" type="curve" smooth="yes"/>
      <point x="584" y="189"/>
      <point x="648" y="231"/>
      <point x="679" y="308" type="curve"/>
      <point x="567" y="382" type="line"/>
      <point x="550" y="346"/>
      <point x="525" y="329"/>
      <point x="489" y="329" type="curve" smooth="yes"/>
      <point x="458" y="329"/>
      <point x="424" y="341"/>
      <point x="383" y="355" type="curve" smooth="yes"/>
      <point x="318" y="377"/>
      <point x="282" y="385"/>
      <point x="249" y="385" type="curve" smooth="yes"/>
      <point x="163" y="385"/>
      <point x="98" y="342"/>
      <point x="69" y="265" type="curve"/>
      <point x="180" y="192" type="line"/>
      <point x="197" y="228"/>
      <point x="224" y="246"/>
      <point x="260" y="246" type="curve" smooth="yes"/>
      <point x="286" y="246"/>
      <point x="309" y="237"/>
      <point x="367" y="217" type="curve" smooth="yes"/>
      <point x="429" y="196"/>
      <point x="462" y="189"/>
    </contour>
  </outline>
</glyph>
<glyph name="cent" format="2">
  <advance width="748"/>
  <unicode hex="00A2"/>
  <outline>
    <contour>
      <point x="305" y="-115" type="line"/>
      <point x="483" y="-115" type="line"/>
      <point x="483" y="33" type="line"/>
      <point x="438" y="-6" type="line"/>
      <point x="532" y="-6"/>
      <point x="622" y="14"/>
      <point x="673" y="46" type="curve"/>
      <point x="607" y="205" type="line"/>
      <point x="564" y="181"/>
      <point x="512" y="167"/>
      <point x="453" y="167" type="curve" smooth="yes"/>
      <point x="370" y="167"/>
      <point x="322" y="195"/>
      <point x="322" y="247" type="curve" smooth="yes"/>
      <point x="322" y="301"/>
      <point x="372" y="331"/>
      <point x="455" y="331" type="curve" smooth="yes"/>
      <point x="513" y="331"/>
      <point x="569" y="316"/>
      <point x="608" y="293" type="curve"/>
      <point x="673" y="448" type="line"/>
      <point x="625" y="480"/>
      <point x="534" y="500"/>
      <point x="438" y="500" type="curve"/>
      <point x="483" y="462" type="line"/>
      <point x="483" y="614" type="line"/>
      <point x="305" y="614" type="line"/>
      <point x="305" y="447" type="line"/>
      <point x="337" y="492" type="line"/>
      <point x="181" y="465"/>
      <point x="86" y="375"/>
      <point x="86" y="246" type="curve" smooth="yes"/>
      <point x="86" y="114"/>
      <point x="186" y="23"/>
      <point x="350" y="0" type="curve"/>
      <point x="305" y="46" type="line"/>
    </contour>
  </outline>
</glyph>
<glyph name="sterling" format="2">
  <advance width="748"/>
  <unicode hex="00A3"/>
  <outline>
    <contour>
      <point x="48" y="0" type="line"/>
      <point x="715" y="0" type="line"/>
      <point x="715" y="186" type="line"/>
      <point x="377" y="186" type="line"/>
      <point x="377" y="281" type="line"/>
      <point x="550" y="281" type="line"/>
      <point x="550" y="425" type="line"/>
      <point x="377" y="425" type="line"/>
      <point x="377" y="459" type="line" smooth="yes"/>
      <point x="377" y="519"/>
      <point x="404" y="538"/>
      <point x="475" y="538" type="curve" smooth="yes"/>
      <point x="542" y="538"/>
      <point x="598" y="523"/>
      <point x="653" y="491" type="curve"/>
      <point x="734" y="653" type="line"/>
      <point x="670" y="693"/>
      <point x="567" y="717"/>
      <point x="457" y="717" type="curve" smooth="yes"/>
      <point x="249" y="717"/>
      <point x="129" y="627"/>
      <point x="129" y="473" type="curve" smooth="yes"/>
      <point x="129" y="425" type="line"/>
      <point x="48" y="425" type="line"/>
      <point x="48" y="281" type="line"/>
      <point x="129" y="281" type="line"/>
      <point x="129" y="186" type="line"/>
      <point x="48" y="186" type="line"/>
    </contour>
  </outline>
</glyph>
<glyph name="brokenbar" format="2">
  <advance width="394"/>
  <unicode hex="00A6"/>
  <outline>
    <contour>
      <point x="82" y="371" type="line"/>
      <point x="312" y="371" type="line"/>
      <point x="312" y="705" type="line"/>
      <point x="82" y="705" type="line"/>
    </contour>
    <contour>
      <point x="82" y="-180" type="line"/>
      <point x="312" y="-180" type="line"/>
      <point x="312" y="154" type="line"/>
      <point x="82" y="154" type="line"/>
    </contour>
  </outline>
</glyph>
<glyph name="section" format="2">
  <advance width="751"/>
  <unicode hex="00A7"/>
  <outline>
    <contour>
      <point x="347" y="-192" type="curve" smooth="yes"/>
      <point x="553" y="-192"/>
      <point x="670" y="-122"/>
      <point x="670" y="1" type="curve" smooth="yes"/>
      <point x="670" y="54"/>
      <point x="648" y="96"/>
      <point x="600" y="136" type="curve"/>
      <point x="583" y="77" type="line"/>
      <point x="676" y="124"/>
      <point x="720" y="182"/>
      <point x="720" y="257" type="curve" smooth="yes"/>
      <point x="720" y="336"/>
      <point x="668" y="393"/>
      <point x="564" y="429" type="curve" smooth="yes"/>
      <point x="352" y="502" type="line" smooth="yes"/>
      <point x="314" y="515"/>
      <point x="300" y="525"/>
      <point x="300" y="539" type="curve" smooth="yes"/>
      <point x="300" y="558"/>
      <point x="328" y="567"/>
      <point x="389" y="567" type="curve" smooth="yes"/>
      <point x="462" y="567"/>
      <point x="539" y="553"/>
      <point x="613" y="527" type="curve"/>
      <point x="669" y="668" type="line"/>
      <point x="609" y="699"/>
      <point x="512" y="717"/>
      <point x="405" y="717" type="curve" smooth="yes"/>
      <point x="199" y="717"/>
      <point x="82" y="647"/>
      <point x="82" y="524" type="curve" smooth="yes"/>
      <point x="82" y="471"/>
      <point x="104" y="429"/>
      <point x="152" y="389" type="curve"/>
      <point x="169" y="448" type="line"/>
      <point x="76" y="401"/>
      <point x="32" y="343"/>
      <point x="32" y="268" type="curve" smooth="yes"/>
      <point x="32" y="189"/>
      <point x="84" y="132"/>
      <point x="188" y="96" type="curve" smooth="yes"/>
      <point x="400" y="23" type="line" smooth="yes"/>
      <point x="436" y="11"/>
      <point x="452" y="0"/>
      <point x="452" y="-13" type="curve" smooth="yes"/>
      <point x="452" y="-32"/>
      <point x="422" y="-42"/>
      <point x="366" y="-42" type="curve" smooth="yes"/>
      <point x="282" y="-42"/>
      <point x="181" y="-18"/>
      <point x="118" y="17" type="curve"/>
      <point x="58" y="-129" type="line"/>
      <point x="127" y="-169"/>
      <point x="233" y="-192"/>
    </contour>
    <contour>
      <point x="233" y="310" type="curve" smooth="yes"/>
      <point x="233" y="328"/>
      <point x="242" y="344"/>
      <point x="262" y="361" type="curve"/>
      <point x="213" y="362" type="line"/>
      <point x="230" y="355"/>
      <point x="265" y="342"/>
      <point x="283" y="336" type="curve" smooth="yes"/>
      <point x="441" y="279" type="line" smooth="yes"/>
      <point x="497" y="259"/>
      <point x="519" y="241"/>
      <point x="519" y="215" type="curve" smooth="yes"/>
      <point x="519" y="197"/>
      <point x="510" y="181"/>
      <point x="490" y="164" type="curve"/>
      <point x="539" y="163" type="line"/>
      <point x="522" y="170"/>
      <point x="487" y="183"/>
      <point x="469" y="189" type="curve" smooth="yes"/>
      <point x="311" y="246" type="line" smooth="yes"/>
      <point x="255" y="266"/>
      <point x="233" y="284"/>
    </contour>
  </outline>
</glyph>
<glyph name="ordfeminine" format="2">
  <advance width="442"/>
  <unicode hex="00AA"/>
  <outline>
    <contour>
      <point x="168" y="401" type="curve" smooth="yes"/>
      <point x="228" y="401"/>
      <point x="263" y="422"/>
      <point x="278" y="465" type="curve"/>
      <point x="281" y="465" type="line"/>
      <point x="281" y="409" type="line"/>
      <point x="413" y="409" type="line"/>
      <point x="413" y="567" type="line" smooth="yes"/>
      <point x="413" y="667"/>
      <point x="351" y="717"/>
      <point x="221" y="717" type="curve" smooth="yes"/>
      <point x="152" y="717"/>
      <point x="83" y="703"/>
      <point x="33" y="679" type="curve"/>
      <point x="65" y="590" type="line"/>
      <point x="108" y="609"/>
      <point x="161" y="619"/>
      <point x="209" y="619" type="curve" smooth="yes"/>
      <point x="249" y="619"/>
      <point x="272" y="614"/>
      <point x="272" y="592" type="curve" smooth="yes"/>
      <point x="272" y="523" type="line" smooth="yes"/>
      <point x="272" y="502"/>
      <point x="241" y="487"/>
      <point x="201" y="487" type="curve" smooth="yes"/>
      <point x="172" y="487"/>
      <point x="157" y="495"/>
      <point x="157" y="507" type="curve" smooth="yes"/>
      <point x="157" y="529"/>
      <point x="203" y="529"/>
      <point x="230" y="529" type="curve" smooth="yes"/>
      <point x="286" y="529" type="line"/>
      <point x="286" y="594" type="line"/>
      <point x="231" y="594" type="line" smooth="yes"/>
      <point x="77" y="594"/>
      <point x="17" y="569"/>
      <point x="17" y="506" type="curve" smooth="yes"/>
      <point x="17" y="444"/>
      <point x="82" y="401"/>
    </contour>
  </outline>
</glyph>
<glyph name="registered" format="2">
  <advance width="1017"/>
  <unicode hex="00AE"/>
  <outline>
    <contour>
      <point x="509" y="-12" type="curve" smooth="yes"/>
      <point x="775" y="-12"/>
      <point x="965" y="140"/>
      <point x="965" y="353" type="curve" smooth="yes"/>
      <point x="965" y="566"/>
      <point x="776" y="717"/>
      <point x="509" y="717" type="curve" smooth="yes"/>
      <point x="243" y="717"/>
      <point x="53" y="565"/>
      <point x="53" y="352" type="curve" smooth="yes"/>
      <point x="53" y="139"/>
      <point x="242" y="-12"/>
    </contour>
    <contour>
      <point x="509" y="62" type="curve" smooth="yes"/>
      <point x="284" y="62"/>
      <point x="135" y="177"/>
      <point x="135" y="352" type="curve" smooth="yes"/>
      <point x="135" y="527"/>
      <point x="284" y="643"/>
      <point x="509" y="643" type="curve" smooth="yes"/>
      <point x="734" y="643"/>
      <point x="883" y="528"/>
      <point x="883" y="353" type="curve" smooth="yes"/>
      <point x="883" y="178"/>
      <point x="734" y="62"/>
    </contour>
    <contour>
      <point x="296" y="144" type="line"/>
      <point x="456" y="144" type="line"/>
      <point x="456" y="312" type="line"/>
      <point x="417" y="283" type="line"/>
      <point x="479" y="283" type="line" smooth="yes"/>
      <point x="517" y="283"/>
      <point x="529" y="272"/>
      <point x="535" y="254" type="curve" smooth="yes"/>
      <point x="569" y="144" type="line"/>
      <point x="743" y="144" type="line"/>
      <point x="700" y="271" type="line" smooth="yes"/>
      <point x="686" y="312"/>
      <point x="655" y="329"/>
      <point x="603" y="329" type="curve" smooth="yes"/>
      <point x="551" y="315" type="line"/>
      <point x="669" y="315"/>
      <point x="737" y="359"/>
      <point x="737" y="441" type="curve" smooth="yes"/>
      <point x="737" y="519"/>
      <point x="675" y="565"/>
      <point x="562" y="565" type="curve" smooth="yes"/>
      <point x="296" y="565" type="line"/>
    </contour>
    <contour>
      <point x="456" y="394" type="line"/>
      <point x="456" y="454" type="line"/>
      <point x="534" y="454" type="line" smooth="yes"/>
      <point x="565" y="454"/>
      <point x="577" y="445"/>
      <point x="577" y="424" type="curve" smooth="yes"/>
      <point x="577" y="404"/>
      <point x="563" y="394"/>
      <point x="534" y="394" type="curve" smooth="yes"/>
    </contour>
  </outline>
</glyph>
<glyph name="degree" format="2">
  <advance width="439"/>
  <unicode hex="00B0"/>
  <outline>
    <contour>
      <point x="219" y="357" type="curve" smooth="yes"/>
      <point x="328" y="357"/>
      <point x="407" y="433"/>
      <point x="407" y="537" type="curve" smooth="yes"/>
      <point x="407" y="640"/>
      <point x="326" y="717"/>
      <point x="219" y="717" type="curve" smooth="yes"/>
      <point x="112" y="717"/>
      <point x="32" y="640"/>
      <point x="32" y="537" type="curve" smooth="yes"/>
      <point x="32" y="433"/>
      <point x="111" y="357"/>
    </contour>
    <contour>
      <point x="219" y="467" type="curve" smooth="yes"/>
      <point x="181" y="467"/>
      <point x="153" y="498"/>
      <point x="153" y="537" type="curve" smooth="yes"/>
      <point x="153" y="575"/>
      <point x="181" y="607"/>
      <point x="219" y="607" type="curve" smooth="yes"/>
      <point x="256" y="607"/>
      <point x="285" y="575"/>
      <point x="285" y="537" type="curve" smooth="yes"/>
      <point x="285" y="498"/>
      <point x="256" y="467"/>
    </contour>
  </outline>
</glyph>
<glyph name="periodcentered" format="2">
  <advance width="341"/>
  <unicode hex="00B7"/>
  <outline>
    <contour>
      <point x="51" y="158" type="line"/>
      <point x="289" y="158" type="line"/>
      <point x="289" y="382" type="line"/>
      <point x="51" y="382" type="line"/>
    </contour>
  </outline>
</glyph>
<glyph name="ordmasculine" format="2">
  <advance width="464"/>
  <unicode hex="00BA"/>
  <outline>
    <contour>
      <point x="232" y="401" type="curve" smooth="yes"/>
      <point x="366" y="401"/>
      <point x="447" y="460"/>
      <point x="447" y="559" type="curve" smooth="yes"/>
      <point x="447" y="658"/>
      <point x="366" y="717"/>
      <point x="232" y="717" type="curve" smooth="yes"/>
      <point x="98" y="717"/>
      <point x="17" y="658"/>
      <point x="17" y="559" type="curve" smooth="yes"/>
      <point x="17" y="460"/>
      <point x="98" y="401"/>
    </contour>
    <contour>
      <point x="232" y="502" type="curve" smooth="yes"/>
      <point x="187" y="502"/>
      <point x="162" y="523"/>
      <point x="162" y="559" type="curve" smooth="yes"/>
      <point x="162" y="595"/>
      <point x="187" y="616"/>
      <point x="232" y="616" type="curve" smooth="yes"/>
      <point x="277" y="616"/>
      <point x="302" y="595"/>
      <point x="302" y="559" type="curve" smooth="yes"/>
      <point x="302" y="523"/>
      <point x="277" y="502"/>
    </contour>
  </outline>
</glyph>
<glyph name="Thorn" format="2">
  <advance width="850"/>
  <unicode hex="00DE"/>
  <anchor x="432" y="0" name="bottom"/>
  <anchor x="432" y="705" name="top"/>
  <outline>
    <contour>
      <point x="77" y="0" type="line"/>
      <point x="323" y="0" type="line"/>
      <point x="323" y="127" type="line"/>
      <point x="526" y="127" type="line" smooth="yes"/>
      <point x="720" y="127"/>
      <point x="828" y="213"/>
      <point x="828" y="368" type="curve" smooth="yes"/>
      <point x="828" y="523"/>
      <point x="720" y="609"/>
      <point x="526" y="609" type="curve" smooth="yes"/>
      <point x="323" y="609" type="line"/>
      <point x="323" y="705" type="line"/>
      <point x="77" y="705" type="line"/>
    </contour>
    <contour>
      <point x="323" y="306" type="line"/>
      <point x="323" y="430" type="line"/>
      <point x="489" y="430" type="line" smooth="yes"/>
      <point x="563" y="430"/>
      <point x="594" y="413"/>
      <point x="594" y="369" type="curve" smooth="yes"/>
      <point x="594" y="326"/>
      <point x="559" y="306"/>
      <point x="489" y="306" type="curve" smooth="yes"/>
    </contour>
  </outline>
</glyph>
<glyph name="germandbls" format="2">
  <advance width="879"/>
  <unicode hex="00DF"/>
  <outline>
    <contour>
      <point x="587" y="-12" type="curve" smooth="yes"/>
      <point x="762" y="-12"/>
      <point x="864" y="61"/>
      <point x="864" y="178" type="curve" smooth="yes"/>
      <point x="864" y="263"/>
      <point x="810" y="313"/>
      <point x="696" y="333" type="curve" smooth="yes"/>
      <point x="600" y="350"/>
      <point x="589" y="354"/>
      <point x="589" y="371" type="curve" smooth="yes"/>
      <point x="589" y="385"/>
      <point x="601" y="395"/>
      <point x="649" y="434" type="curve" smooth="yes"/>
      <point x="698" y="473"/>
      <point x="719" y="509"/>
      <point x="719" y="554" type="curve" smooth="yes"/>
      <point x="719" y="659"/>
      <point x="613" y="717"/>
      <point x="420" y="717" type="curve" smooth="yes"/>
      <point x="181" y="717"/>
      <point x="61" y="627"/>
      <point x="61" y="448" type="curve" smooth="yes"/>
      <point x="61" y="0" type="line"/>
      <point x="291" y="0" type="line"/>
      <point x="291" y="470" type="line" smooth="yes"/>
      <point x="291" y="533"/>
      <point x="335" y="562"/>
      <point x="428" y="562" type="curve" smooth="yes"/>
      <point x="480" y="562"/>
      <point x="506" y="552"/>
      <point x="506" y="531" type="curve" smooth="yes"/>
      <point x="506" y="517"/>
      <point x="498" y="507"/>
      <point x="465" y="476" type="curve" smooth="yes"/>
      <point x="406" y="422"/>
      <point x="382" y="382"/>
      <point x="382" y="336" type="curve" smooth="yes"/>
      <point x="382" y="255"/>
      <point x="442" y="207"/>
      <point x="559" y="193" type="curve" smooth="yes"/>
      <point x="642" y="183"/>
      <point x="658" y="178"/>
      <point x="658" y="168" type="curve" smooth="yes"/>
      <point x="658" y="154"/>
      <point x="645" y="149"/>
      <point x="608" y="149" type="curve" smooth="yes"/>
      <point x="543" y="149"/>
      <point x="461" y="165"/>
      <point x="396" y="197" type="curve"/>
      <point x="333" y="50" type="line"/>
      <point x="400" y="10"/>
      <point x="501" y="-12"/>
    </contour>
  </outline>
</glyph>
<glyph name="divide" format="2">
  <advance width="748"/>
  <unicode hex="00F7"/>
  <outline>
    <contour>
      <point x="103" y="213" type="line"/>
      <point x="645" y="213" type="line"/>
      <point x="645" y="361" type="line"/>
      <point x="103" y="361" type="line"/>
    </contour>
    <contour>
      <point x="294" y="19" type="line"/>
      <point x="454" y="19" type="line"/>
      <point x="454" y="163" type="line"/>
      <point x="294" y="163" type="line"/>
    </contour>
    <contour>
      <point x="294" y="411" type="line"/>
      <point x="454" y="411" type="line"/>
      <point x="454" y="555" type="line"/>
      <point x="294" y="555" type="line"/>
    </contour>
  </outline>
</glyph>
<glyph name="dcroat" format="2">
  <advance width="776"/>
  <unicode hex="0111"/>
  <outline>
    <contour>
      <point x="308" y="-12" type="curve" smooth="yes"/>
      <point x="403" y="-12"/>
      <point x="474" y="20"/>
      <point x="500" y="73" type="curve"/>
      <point x="488" y="73" type="line"/>
      <point x="488" y="0" type="line"/>
      <point x="715" y="0" type="line"/>
      <point x="715" y="523" type="line"/>
      <point x="817" y="523" type="line"/>
      <point x="817" y="671" type="line"/>
      <point x="715" y="671" type="line"/>
      <point x="715" y="705" type="line"/>
      <point x="485" y="705" type="line"/>
      <point x="485" y="671" type="line"/>
      <point x="256" y="671" type="line"/>
      <point x="256" y="523" type="line"/>
      <point x="485" y="523" type="line"/>
      <point x="485" y="401" type="line"/>
      <point x="500" y="401" type="line"/>
      <point x="474" y="454"/>
      <point x="403" y="486"/>
      <point x="308" y="486" type="curve" smooth="yes"/>
      <point x="138" y="486"/>
      <point x="34" y="388"/>
      <point x="34" y="237" type="curve" smooth="yes"/>
      <point x="34" y="86"/>
      <point x="138" y="-12"/>
    </contour>
    <contour>
      <point x="377" y="154" type="curve" smooth="yes"/>
      <point x="307" y="154"/>
      <point x="265" y="185"/>
      <point x="265" y="237" type="curve" smooth="yes"/>
      <point x="265" y="289"/>
      <point x="307" y="320"/>
      <point x="377" y="320" type="curve" smooth="yes"/>
      <point x="447" y="320"/>
      <point x="489" y="290"/>
      <point x="489" y="237" type="curve" smooth="yes"/>
      <point x="489" y="184"/>
      <point x="447" y="154"/>
    </contour>
  </outline>
</glyph>
<glyph name="hbar" format="2">
  <advance width="759"/>
  <unicode hex="0127"/>
  <outline>
    <contour>
      <point x="61" y="0" type="line"/>
      <point x="291" y="0" type="line"/>
      <point x="291" y="237" type="line" smooth="yes"/>
      <point x="291" y="283"/>
      <point x="332" y="313"/>
      <point x="393" y="313" type="curve" smooth="yes"/>
      <point x="449" y="313"/>
      <point x="470" y="289"/>
      <point x="470" y="244" type="curve" smooth="yes"/>
      <point x="470" y="0" type="line"/>
      <point x="700" y="0" type="line"/>
      <point x="700" y="251" type="line" smooth="yes"/>
      <point x="700" y="409"/>
      <point x="630" y="486"/>
      <point x="489" y="486" type="curve" smooth="yes"/>
      <point x="396" y="486"/>
      <point x="321" y="451"/>
      <point x="272" y="386" type="curve"/>
      <point x="291" y="386" type="line"/>
      <point x="291" y="523" type="line"/>
      <point x="519" y="523" type="line"/>
      <point x="519" y="671" type="line"/>
      <point x="291" y="671" type="line"/>
      <point x="291" y="705" type="line"/>
      <point x="61" y="705" type="line"/>
      <point x="61" y="671" type="line"/>
      <point x="-42" y="671" type="line"/>
      <point x="-42" y="523" type="line"/>
      <point x="61" y="523" type="line"/>
    </contour>
  </outline>
</glyph>
<glyph name="idotless" format="2">
  <advance width="352"/>
  <unicode hex="0131"/>
  <anchor x="176" y="0" name="bottom"/>
  <anchor x="240" y="0" name="ogonek"/>
  <anchor x="176" y="484" name="top"/>
  <outline>
    <contour>
      <point x="61" y="0" type="line"/>
      <point x="291" y="0" type="line"/>
      <point x="291" y="494" type="line"/>
      <point x="61" y="494" type="line"/>
    </contour>
  </outline>
</glyph>
<glyph name="OE" format="2">
  <advance width="1341"/>
  <unicode hex="0152"/>
  <anchor x="768" y="0" name="bottom"/>
  <anchor x="768" y="705" name="top"/>
  <outline>
    <contour>
      <point x="540" y="0" type="curve" smooth="yes"/>
      <point x="1277" y="0" type="line"/>
      <point x="1277" y="179" type="line"/>
      <point x="885" y="179" type="line"/>
      <point x="885" y="269" type="line"/>
      <point x="1248" y="269" type="line"/>
      <point x="1248" y="448" type="line"/>
      <point x="885" y="448" type="line"/>
      <point x="885" y="526" type="line"/>
      <point x="1277" y="526" type="line"/>
      <point x="1277" y="705" type="line"/>
      <point x="540" y="705" type="line" smooth="yes"/>
      <point x="233" y="705"/>
      <point x="55" y="580"/>
      <point x="55" y="352" type="curve" smooth="yes"/>
      <point x="55" y="125"/>
      <point x="234" y="0"/>
    </contour>
    <contour>
      <point x="555" y="192" type="line" smooth="yes"/>
      <point x="388" y="192"/>
      <point x="309" y="237"/>
      <point x="309" y="352" type="curve" smooth="yes"/>
      <point x="309" y="467"/>
      <point x="388" y="513"/>
      <point x="555" y="513" type="curve" smooth="yes"/>
      <point x="650" y="513" type="line"/>
      <point x="650" y="192" type="line"/>
    </contour>
  </outline>
</glyph>
<glyph name="oe" format="2">
  <advance width="1141"/>
  <unicode hex="0153"/>
  <anchor x="600" y="0" name="bottom"/>
  <anchor x="600" y="484" name="top"/>
  <outline>
    <contour>
      <point x="374" y="-12" type="curve" smooth="yes"/>
      <point x="482" y="-12"/>
      <point x="567" y="16"/>
      <point x="624" y="68" type="curve"/>
      <point x="574" y="68" type="line"/>
      <point x="638" y="16"/>
      <point x="737" y="-12"/>
      <point x="856" y="-12" type="curve" smooth="yes"/>
      <point x="960" y="-12"/>
      <point x="1056" y="9"/>
      <point x="1111" y="44" type="curve"/>
      <point x="1057" y="191" type="line"/>
      <point x="1018" y="167"/>
      <point x="946" y="153"/>
      <point x="867" y="153" type="curve" smooth="yes"/>
      <point x="751" y="153"/>
      <point x="708" y="181"/>
      <point x="708" y="257" type="curve" smooth="yes"/>
      <point x="708" y="266" type="line" smooth="yes"/>
      <point x="708" y="332"/>
      <point x="744" y="361"/>
      <point x="825" y="361" type="curve" smooth="yes"/>
      <point x="893" y="361"/>
      <point x="925" y="338"/>
      <point x="928" y="288" type="curve"/>
      <point x="952" y="306" type="line"/>
      <point x="683" y="306" type="line"/>
      <point x="683" y="202" type="line"/>
      <point x="1121" y="202" type="line"/>
      <point x="1121" y="243" type="line" smooth="yes"/>
      <point x="1121" y="405"/>
      <point x="1004" y="506"/>
      <point x="816" y="506" type="curve" smooth="yes"/>
      <point x="716" y="506"/>
      <point x="629" y="477"/>
      <point x="570" y="424" type="curve"/>
      <point x="626" y="424" type="line"/>
      <point x="568" y="478"/>
      <point x="482" y="506"/>
      <point x="374" y="506" type="curve" smooth="yes"/>
      <point x="169" y="506"/>
      <point x="34" y="405"/>
      <point x="34" y="247" type="curve" smooth="yes"/>
      <point x="34" y="89"/>
      <point x="169" y="-12"/>
    </contour>
    <contour>
      <point x="377" y="154" type="curve" smooth="yes"/>
      <point x="305" y="154"/>
      <point x="265" y="188"/>
      <point x="265" y="247" type="curve" smooth="yes"/>
      <point x="265" y="306"/>
      <point x="305" y="340"/>
      <point x="377" y="340" type="curve" smooth="yes"/>
      <point x="449" y="340"/>
      <point x="489" y="306"/>
      <point x="489" y="247" type="curve" smooth="yes"/>
      <point x="489" y="188"/>
      <point x="449" y="154"/>
    </contour>
  </outline>
</glyph>
<glyph name="Dhook" format="2">
  <advance width="1216"/>
  <unicode hex="018A"/>
  <outline>
    <contour>
      <point x="309" y="0" type="line"/>
      <point x="686" y="0" type="line" smooth="yes"/>
      <point x="993" y="0"/>
      <point x="1161" y="125"/>
      <point x="1161" y="353" type="curve" smooth="yes"/>
      <point x="1161" y="580"/>
      <point x="992" y="705"/>
      <point x="686" y="705" type="curve" smooth="yes"/>
      <point x="293" y="705" type="line" smooth="yes"/>
      <point x="97" y="705"/>
      <point x="0" y="635"/>
      <point x="0" y="493" type="curve" smooth="yes"/>
      <point x="0" y="423" type="line"/>
      <point x="190" y="423" type="line"/>
      <point x="190" y="482" type="line" smooth="yes"/>
      <point x="190" y="531"/>
      <point x="215" y="548"/>
      <point x="287" y="548" type="curve" smooth="yes"/>
      <point x="309" y="548" type="line"/>
    </contour>
    <contour>
      <point x="555" y="192" type="line"/>
      <point x="555" y="513" type="line"/>
      <point x="671" y="513" type="line" smooth="yes"/>
      <point x="840" y="513"/>
      <point x="907" y="468"/>
      <point x="907" y="353" type="curve" smooth="yes"/>
      <point x="907" y="238"/>
      <point x="840" y="192"/>
      <point x="671" y="192" type="curve" smooth="yes"/>
    </contour>
  </outline>
</glyph>
<glyph name="Yhook" format="2">
  <advance width="806"/>
  <unicode hex="01B3"/>
  <outline>
    <contour>
      <point x="280" y="0" type="line"/>
      <point x="526" y="0" type="line"/>
      <point x="526" y="358" type="line"/>
      <point x="481" y="233" type="line"/>
      <point x="701" y="506" type="line" smooth="yes"/>
      <point x="728" y="539"/>
      <point x="759" y="553"/>
      <point x="809" y="553" type="curve" smooth="yes"/>
      <point x="829" y="553"/>
      <point x="851" y="551"/>
      <point x="864" y="547" type="curve"/>
      <point x="864" y="701" type="line"/>
      <point x="842" y="710"/>
      <point x="800" y="717"/>
      <point x="754" y="717" type="curve" smooth="yes"/>
      <point x="649" y="717"/>
      <point x="574" y="687"/>
      <point x="505" y="598" type="curve" smooth="yes"/>
      <point x="384" y="443" type="line"/>
      <point x="430" y="443" type="line"/>
      <point x="226" y="705" type="line"/>
      <point x="-55" y="705" type="line"/>
      <point x="325" y="233" type="line"/>
      <point x="280" y="358" type="line"/>
    </contour>
  </outline>
</glyph>
<glyph name="yhook" format="2">
  <advance width="736"/>
  <unicode hex="01B4"/>
  <outline>
    <contour>
      <point x="411" y="365" type="curve" smooth="yes"/>
      <point x="324" y="203" type="line"/>
      <point x="367" y="203" type="line"/>
      <point x="212" y="494" type="line"/>
      <point x="-29" y="494" type="line"/>
      <point x="243" y="2" type="line"/>
      <point x="247" y="91" type="line"/>
      <point x="99" y="-180" type="line"/>
      <point x="332" y="-180" type="line"/>
      <point x="571" y="252" type="line" smooth="yes"/>
      <point x="604" y="311"/>
      <point x="643" y="333"/>
      <point x="714" y="333" type="curve" smooth="yes"/>
      <point x="729" y="333"/>
      <point x="742" y="331"/>
      <point x="753" y="328" type="curve"/>
      <point x="779" y="493" type="line"/>
      <point x="748" y="502"/>
      <point x="714" y="506"/>
      <point x="675" y="506" type="curve" smooth="yes"/>
      <point x="530" y="506"/>
      <point x="456" y="448"/>
    </contour>
  </outline>
</glyph>
<glyph name="gstroke" format="2">
  <advance width="782"/>
  <unicode hex="01E5"/>
  <outline>
    <contour>
      <point x="352" y="-192" type="curve" smooth="yes"/>
      <point x="553" y="-192"/>
      <point x="670" y="-134"/>
      <point x="708" y="-14" type="curve"/>
      <point x="688" y="-25" type="line"/>
      <point x="782" y="-25" type="line"/>
      <point x="782" y="49" type="line"/>
      <point x="704" y="49" type="line"/>
      <point x="719" y="37" type="line"/>
      <point x="720" y="51"/>
      <point x="721" y="66"/>
      <point x="721" y="81" type="curve" smooth="yes"/>
      <point x="721" y="494" type="line"/>
      <point x="494" y="494" type="line"/>
      <point x="494" y="421" type="line"/>
      <point x="506" y="421" type="line"/>
      <point x="480" y="474"/>
      <point x="405" y="506"/>
      <point x="308" y="506" type="curve" smooth="yes"/>
      <point x="140" y="506"/>
      <point x="34" y="421"/>
      <point x="34" y="284" type="curve" smooth="yes"/>
      <point x="34" y="148"/>
      <point x="141" y="63"/>
      <point x="311" y="63" type="curve" smooth="yes"/>
      <point x="407" y="63"/>
      <point x="480" y="95"/>
      <point x="506" y="148" type="curve"/>
      <point x="497" y="148" type="line"/>
      <point x="497" y="56" type="line" smooth="yes"/>
      <point x="497" y="49"/>
      <point x="496" y="42"/>
      <point x="495" y="35" type="curve"/>
      <point x="511" y="49" type="line"/>
      <point x="343" y="49" type="line"/>
      <point x="343" y="-25" type="line"/>
      <point x="482" y="-25" type="line"/>
      <point x="467" y="-15" type="line"/>
      <point x="442" y="-34"/>
      <point x="402" y="-43"/>
      <point x="344" y="-43" type="curve" smooth="yes"/>
      <point x="257" y="-43"/>
      <point x="154" y="-23"/>
      <point x="107" y="3" type="curve"/>
      <point x="56" y="-132" type="line"/>
      <point x="111" y="-169"/>
      <point x="224" y="-192"/>
    </contour>
    <contour>
      <point x="380" y="215" type="curve" smooth="yes"/>
      <point x="308" y="215"/>
      <point x="265" y="240"/>
      <point x="265" y="284" type="curve" smooth="yes"/>
      <point x="265" y="322"/>
      <point x="308" y="344"/>
      <point x="380" y="344" type="curve" smooth="yes"/>
      <point x="452" y="344"/>
      <point x="494" y="322"/>
      <point x="494" y="284" type="curve" smooth="yes"/>
      <point x="494" y="240"/>
      <point x="452" y="215"/>
    </contour>
  </outline>
</glyph>
<glyph name="jdotless" format="2">
  <advance width="361"/>
  <unicode hex="0237"/>
  <anchor x="182" y="0" name="bottom"/>
  <anchor x="182" y="484" name="top"/>
  <outline>
    <contour>
      <point x="-48" y="-193" type="line"/>
      <point x="16" y="-189" type="line" smooth="yes"/>
      <point x="248" y="-175"/>
      <point x="298" y="-97"/>
      <point x="298" y="56" type="curve" smooth="yes"/>
      <point x="298" y="494" type="line"/>
      <point x="68" y="494" type="line"/>
      <point x="68" y="20" type="line" smooth="yes"/>
      <point x="68" y="-13"/>
      <point x="51" y="-24"/>
      <point x="8" y="-28" type="curve" smooth="yes"/>
      <point x="-64" y="-35" type="line"/>
    </contour>
  </outline>
</glyph>
<glyph name="bhook" format="2">
  <advance width="777"/>
  <unicode hex="0253"/>
  <outline>
    <contour>
      <point x="473" y="-12" type="curve" smooth="yes"/>
      <point x="635" y="-12"/>
      <point x="743" y="90"/>
      <point x="743" y="247" type="curve" smooth="yes"/>
      <point x="743" y="404"/>
      <point x="635" y="506"/>
      <point x="473" y="506" type="curve" smooth="yes"/>
      <point x="389" y="506"/>
      <point x="310" y="472"/>
      <point x="274" y="420" type="curve"/>
      <point x="291" y="420" type="line"/>
      <point x="291" y="475" type="line" smooth="yes"/>
      <point x="291" y="523"/>
      <point x="320" y="544"/>
      <point x="384" y="544" type="curve" smooth="yes"/>
      <point x="403" y="544"/>
      <point x="415" y="543"/>
      <point x="429" y="539" type="curve"/>
      <point x="455" y="704" type="line"/>
      <point x="422" y="713"/>
      <point x="389" y="717"/>
      <point x="348" y="717" type="curve" smooth="yes"/>
      <point x="166" y="717"/>
      <point x="61" y="630"/>
      <point x="61" y="480" type="curve" smooth="yes"/>
      <point x="61" y="0" type="line"/>
      <point x="288" y="0" type="line"/>
      <point x="288" y="74" type="line"/>
      <point x="274" y="74" type="line"/>
      <point x="311" y="20"/>
      <point x="392" y="-12"/>
    </contour>
    <contour>
      <point x="400" y="154" type="curve" smooth="yes"/>
      <point x="328" y="154"/>
      <point x="288" y="188"/>
      <point x="288" y="247" type="curve" smooth="yes"/>
      <point x="288" y="306"/>
      <point x="328" y="340"/>
      <point x="400" y="340" type="curve" smooth="yes"/>
      <point x="472" y="340"/>
      <point x="512" y="306"/>
      <point x="512" y="247" type="curve" smooth="yes"/>
      <point x="512" y="188"/>
      <point x="472" y="154"/>
    </contour>
  </outline>
</glyph>
<glyph name="dhook" format="2">
  <advance width="777"/>
  <unicode hex="0257"/>
  <outline>
    <contour>
      <point x="304" y="-12" type="curve" smooth="yes"/>
      <point x="385" y="-12"/>
      <point x="466" y="20"/>
      <point x="500" y="73" type="curve"/>
      <point x="488" y="73" type="line"/>
      <point x="488" y="0" type="line"/>
      <point x="715" y="0" type="line"/>
      <point x="715" y="475" type="line" smooth="yes"/>
      <point x="715" y="523"/>
      <point x="744" y="544"/>
      <point x="808" y="544" type="curve" smooth="yes"/>
      <point x="827" y="544"/>
      <point x="839" y="543"/>
      <point x="853" y="539" type="curve"/>
      <point x="879" y="704" type="line"/>
      <point x="846" y="713"/>
      <point x="813" y="717"/>
      <point x="772" y="717" type="curve" smooth="yes"/>
      <point x="590" y="717"/>
      <point x="485" y="630"/>
      <point x="485" y="480" type="curve" smooth="yes"/>
      <point x="485" y="421" type="line"/>
      <point x="500" y="421" type="line"/>
      <point x="466" y="474"/>
      <point x="385" y="506"/>
      <point x="304" y="506" type="curve" smooth="yes"/>
      <point x="142" y="506"/>
      <point x="34" y="404"/>
      <point x="34" y="247" type="curve" smooth="yes"/>
      <point x="34" y="90"/>
      <point x="142" y="-12"/>
    </contour>
    <contour>
      <point x="377" y="154" type="curve" smooth="yes"/>
      <point x="307" y="154"/>
      <point x="265" y="189"/>
      <point x="265" y="247" type="curve" smooth="yes"/>
      <point x="265" y="305"/>
      <point x="307" y="340"/>
      <point x="377" y="340" type="curve" smooth="yes"/>
      <point x="447" y="340"/>
      <point x="488" y="306"/>
      <point x="488" y="247" type="curve" smooth="yes"/>
      <point x="488" y="188"/>
      <point x="447" y="154"/>
    </contour>
  </outline>
</glyph>
<glyph name="apostrophemod" format="2">
  <advance width="400"/>
  <unicode hex="02BC"/>
  <outline>
    <contour>
      <point x="198" y="542" type="line"/>
      <point x="263" y="596"/>
      <point x="290" y="645"/>
      <point x="290" y="708" type="curve" smooth="yes"/>
      <point x="290" y="810" type="line"/>
      <point x="110" y="810" type="line"/>
      <point x="110" y="654" type="line"/>
      <point x="242" y="654" type="line"/>
      <point x="206" y="686" type="line"/>
      <point x="205" y="656"/>
      <point x="189" y="629"/>
      <point x="146" y="586" type="curve"/>
    </contour>
  </outline>
</glyph>
<glyph name="ringhalfleft" format="2">
  <advance width="500"/>
  <unicode hex="02BF"/>
  <anchor x="250" y="484" name="_top"/>
  <anchor x="250" y="685" name="top"/>
  <outline>
    <contour>
      <point x="250" y="544" type="curve"/>
      <point x="250" y="621" type="line"/>
      <point x="220" y="621"/>
      <point x="201" y="637"/>
      <point x="201" y="663" type="curve" smooth="yes"/>
      <point x="201" y="689"/>
      <point x="219" y="704"/>
      <point x="250" y="704" type="curve"/>
      <point x="250" y="782" type="line"/>
      <point x="170" y="782"/>
      <point x="112" y="732"/>
      <point x="112" y="663" type="curve" smooth="yes"/>
      <point x="112" y="594"/>
      <point x="170" y="544"/>
    </contour>
  </outline>
</glyph>
<glyph name="firsttonechinese" format="2">
  <advance width="500"/>
  <unicode hex="02C9"/>
  <anchor x="250" y="484" name="_top"/>
  <anchor x="250" y="685" name="top"/>
  <outline>
    <contour>
      <point x="34" y="594" type="line"/>
      <point x="466" y="594" type="line"/>
      <point x="466" y="716" type="line"/>
      <point x="34" y="716" type="line"/>
    </contour>
  </outline>
</glyph>
<glyph name="dotaccentcomb" format="2">
  <unicode hex="0307"/>
  <anchor x="0" y="484" name="_top"/>
  <anchor x="0" y="685" name="top"/>
  <outline>
    <contour>
      <point x="-98" y="569" type="line"/>
      <point x="98" y="569" type="line"/>
      <point x="98" y="753" type="line"/>
      <point x="-98" y="753" type="line"/>
    </contour>
  </outline>
</glyph>
<glyph name="hookabovecomb" format="2">
  <unicode hex="0309"/>
  <anchor x="0" y="484" name="_top"/>
  <anchor x="0" y="685" name="top"/>
  <outline>
    <contour>
      <point x="-65" y="558" type="line"/>
      <point x="65" y="558" type="line"/>
      <point x="65" y="571" type="line" smooth="yes"/>
      <point x="65" y="618"/>
      <point x="160" y="624"/>
      <point x="160" y="694" type="curve" smooth="yes"/>
      <point x="160" y="746"/>
      <point x="107" y="775"/>
      <point x="6" y="775" type="curve" smooth="yes"/>
      <point x="-53" y="775"/>
      <point x="-109" y="765"/>
      <point x="-150" y="746" type="curve"/>
      <point x="-116" y="663" type="line"/>
      <point x="-93" y="674"/>
      <point x="-71" y="679"/>
      <point x="-47" y="679" type="curve" smooth="yes"/>
      <point x="-19" y="679"/>
      <point x="-6" y="673"/>
      <point x="-6" y="660" type="curve" smooth="yes"/>
      <point x="-6" y="634"/>
      <point x="-65" y="621"/>
      <point x="-65" y="578" type="curve" smooth="yes"/>
    </contour>
  </outline>
</glyph>
<glyph name="ringcomb" format="2">
  <unicode hex="030A"/>
  <anchor x="0" y="484" name="_top"/>
  <anchor x="0" y="685" name="top"/>
  <outline>
    <contour>
      <point x="0" y="554" type="curve" smooth="yes"/>
      <point x="91" y="554"/>
      <point x="155" y="614"/>
      <point x="155" y="693" type="curve" smooth="yes"/>
      <point x="155" y="772"/>
      <point x="91" y="832"/>
      <point x="0" y="832" type="curve" smooth="yes"/>
      <point x="-91" y="832"/>
      <point x="-155" y="772"/>
      <point x="-155" y="693" type="curve" smooth="yes"/>
      <point x="-155" y="614"/>
      <point x="-91" y="554"/>
    </contour>
    <contour>
      <point x="0" y="632" type="curve" smooth="yes"/>
      <point x="-38" y="632"/>
      <point x="-60" y="658"/>
      <point x="-60" y="693" type="curve" smooth="yes"/>
      <point x="-60" y="728"/>
      <point x="-38" y="754"/>
      <point x="0" y="754" type="curve" smooth="yes"/>
      <point x="38" y="754"/>
      <point x="60" y="728"/>
      <point x="60" y="693" type="curve" smooth="yes"/>
      <point x="60" y="658"/>
      <point x="38" y="632"/>
    </contour>
  </outline>
</glyph>
<glyph name="dieresisbelowcomb" format="2">
  <unicode hex="0324"/>
  <anchor x="0" y="0" name="_bottom"/>
  <anchor x="0" y="-170" name="bottom"/>
  <outline>
    <contour>
      <point x="35" y="-217" type="line"/>
      <point x="225" y="-217" type="line"/>
      <point x="225" y="-37" type="line"/>
      <point x="35" y="-37" type="line"/>
    </contour>
    <contour>
      <point x="-225" y="-217" type="line"/>
      <point x="-35" y="-217" type="line"/>
      <point x="-35" y="-37" type="line"/>
      <point x="-225" y="-37" type="line"/>
    </contour>
  </outline>
</glyph>
<glyph name="brevebelowcomb" format="2">
  <unicode hex="032E"/>
  <anchor x="0" y="0" name="_bottom"/>
  <anchor x="0" y="-170" name="bottom"/>
  <outline>
    <contour>
      <point x="0" y="-215" type="curve" smooth="yes"/>
      <point x="139" y="-215"/>
      <point x="224" y="-153"/>
      <point x="228" y="-48" type="curve"/>
      <point x="106" y="-38" type="line"/>
      <point x="98" y="-71"/>
      <point x="60" y="-90"/>
      <point x="0" y="-90" type="curve" smooth="yes"/>
      <point x="-60" y="-90"/>
      <point x="-98" y="-71"/>
      <point x="-106" y="-38" type="curve"/>
      <point x="-228" y="-48" type="line"/>
      <point x="-224" y="-153"/>
      <point x="-139" y="-215"/>
    </contour>
  </outline>
</glyph>
<glyph name="strokeshortcomb" format="2">
  <unicode hex="0335"/>
  <anchor x="0" y="618" name="_stroke"/>
  <outline>
    <contour>
      <point x="-280" y="542" type="line"/>
      <point x="280" y="542" type="line"/>
      <point x="280" y="695" type="line"/>
      <point x="-280" y="695" type="line"/>
    </contour>
  </outline>
</glyph>
<glyph name="slashshortcomb" format="2">
  <unicode hex="0337"/>
  <anchor x="0" y="359" name="_center"/>
  <outline>
    <contour>
      <point x="-188" y="170" type="line"/>
      <point x="264" y="400" type="line"/>
      <point x="189" y="548" type="line"/>
      <point x="-263" y="318" type="line"/>
    </contour>
  </outline>
</glyph>
<glyph name="slashlongcomb" format="2">
  <unicode hex="0338"/>
  <anchor x="0" y="251" name="_center"/>
  <outline>
    <contour>
      <point x="-171" y="-77" type="line"/>
      <point x="261" y="514" type="line"/>
      <point x="171" y="574" type="line"/>
      <point x="-261" y="-17" type="line"/>
    </contour>
  </outline>
</glyph>
<glyph name="Delta" format="2">
  <advance width="954"/>
  <unicode hex="0394"/>
  <outline>
    <contour>
      <point x="36" y="0" type="line"/>
      <point x="918" y="0" type="line"/>
      <point x="918" y="148" type="line"/>
      <point x="567" y="705" type="line"/>
      <point x="387" y="705" type="line"/>
      <point x="36" y="148" type="line"/>
    </contour>
    <contour>
      <point x="476" y="508" type="line"/>
      <point x="478" y="508" type="line"/>
      <point x="709" y="132" type="line"/>
      <point x="709" y="179" type="line"/>
      <point x="245" y="179" type="line"/>
      <point x="245" y="132" type="line"/>
    </contour>
  </outline>
</glyph>
<glyph name="Omega" format="2">
  <advance width="1030"/>
  <unicode hex="03A9"/>
  <outline>
    <contour>
      <point x="38" y="0" type="line"/>
      <point x="456" y="0" type="line"/>
      <point x="456" y="182" type="line"/>
      <point x="341" y="240"/>
      <point x="299" y="292"/>
      <point x="299" y="367" type="curve" smooth="yes"/>
      <point x="299" y="469"/>
      <point x="375" y="521"/>
      <point x="516" y="521" type="curve" smooth="yes"/>
      <point x="657" y="521"/>
      <point x="733" y="469"/>
      <point x="733" y="367" type="curve" smooth="yes"/>
      <point x="733" y="292"/>
      <point x="691" y="240"/>
      <point x="576" y="182" type="curve"/>
      <point x="576" y="0" type="line"/>
      <point x="994" y="0" type="line"/>
      <point x="994" y="186" type="line"/>
      <point x="699" y="186" type="line"/>
      <point x="699" y="134" type="line"/>
      <point x="888" y="186"/>
      <point x="982" y="278"/>
      <point x="982" y="412" type="curve" smooth="yes"/>
      <point x="982" y="596"/>
      <point x="804" y="717"/>
      <point x="516" y="717" type="curve" smooth="yes"/>
      <point x="228" y="717"/>
      <point x="50" y="596"/>
      <point x="50" y="412" type="curve" smooth="yes"/>
      <point x="50" y="278"/>
      <point x="144" y="186"/>
      <point x="333" y="134" type="curve"/>
      <point x="333" y="186" type="line"/>
      <point x="38" y="186" type="line"/>
    </contour>
  </outline>
</glyph>
<glyph name="pi" format="2">
  <advance width="813"/>
  <unicode hex="03C0"/>
  <outline>
    <contour>
      <point x="693" y="-13" type="curve" smooth="yes"/>
      <point x="718" y="-13"/>
      <point x="749" y="-11"/>
      <point x="791" y="-7" type="curve"/>
      <point x="799" y="170" type="line"/>
      <point x="783" y="168"/>
      <point x="765" y="168"/>
      <point x="751" y="168" type="curve" smooth="yes"/>
      <point x="647" y="168"/>
      <point x="647" y="224"/>
      <point x="647" y="258" type="curve" smooth="yes"/>
      <point x="647" y="332" type="line"/>
      <point x="773" y="332" type="line"/>
      <point x="773" y="494" type="line"/>
      <point x="8" y="494" type="line"/>
      <point x="8" y="332" type="line"/>
      <point x="120" y="332" type="line"/>
      <point x="116" y="247"/>
      <point x="91" y="169"/>
      <point x="37" y="-2" type="curve"/>
      <point x="274" y="-2" type="line"/>
      <point x="327" y="120"/>
      <point x="348" y="211"/>
      <point x="350" y="332" type="curve"/>
      <point x="417" y="332" type="line"/>
      <point x="417" y="234" type="line" smooth="yes"/>
      <point x="417" y="70"/>
      <point x="509" y="-13"/>
    </contour>
  </outline>
</glyph>
<glyph name="Tshe-cy" format="2">
  <advance width="1114"/>
  <unicode hex="040B"/>
  <outline>
    <contour>
      <point x="280" y="0" type="line"/>
      <point x="526" y="0" type="line"/>
      <point x="526" y="253" type="line"/>
      <point x="582" y="260"/>
      <point x="624" y="263"/>
      <point x="654" y="263" type="curve" smooth="yes"/>
      <point x="767" y="263"/>
      <point x="812" y="229"/>
      <point x="812" y="146" type="curve" smooth="yes"/>
      <point x="812" y="0" type="line"/>
      <point x="1058" y="0" type="line"/>
      <point x="1058" y="152" type="line" smooth="yes"/>
      <point x="1058" y="356"/>
      <point x="934" y="458"/>
      <point x="685" y="458" type="curve" smooth="yes"/>
      <point x="631" y="458"/>
      <point x="567" y="453"/>
      <point x="526" y="445" type="curve"/>
      <point x="526" y="515" type="line"/>
      <point x="799" y="515" type="line"/>
      <point x="799" y="705" type="line"/>
      <point x="7" y="705" type="line"/>
      <point x="7" y="515" type="line"/>
      <point x="280" y="515" type="line"/>
    </contour>
  </outline>
</glyph>
<glyph name="Dzhe-cy" format="2">
  <advance width="990"/>
  <unicode hex="040F"/>
  <outline>
    <contour>
      <point x="384" y="-184" type="line"/>
      <point x="597" y="-184" type="line"/>
      <point x="597" y="0" type="line"/>
      <point x="913" y="0" type="line"/>
      <point x="913" y="705" type="line"/>
      <point x="667" y="705" type="line"/>
      <point x="667" y="190" type="line"/>
      <point x="323" y="190" type="line"/>
      <point x="323" y="705" type="line"/>
      <point x="77" y="705" type="line"/>
      <point x="77" y="0" type="line"/>
      <point x="384" y="0" type="line"/>
    </contour>
  </outline>
</glyph>
<glyph name="Be-cy" format="2">
  <advance width="869"/>
  <unicode hex="0411"/>
  <outline>
    <contour>
      <point x="77" y="0" type="line"/>
      <point x="533" y="0" type="line" smooth="yes"/>
      <point x="725" y="0"/>
      <point x="837" y="82"/>
      <point x="837" y="225" type="curve" smooth="yes"/>
      <point x="837" y="367"/>
      <point x="725" y="450"/>
      <point x="533" y="450" type="curve" smooth="yes"/>
      <point x="312" y="450" type="line"/>
      <point x="312" y="525" type="line"/>
      <point x="747" y="525" type="line"/>
      <point x="747" y="705" type="line"/>
      <point x="77" y="705" type="line"/>
    </contour>
    <contour>
      <point x="312" y="175" type="line"/>
      <point x="312" y="275" type="line"/>
      <point x="500" y="275" type="line" smooth="yes"/>
      <point x="583" y="275"/>
      <point x="604" y="258"/>
      <point x="604" y="225" type="curve" smooth="yes"/>
      <point x="604" y="191"/>
      <point x="583" y="175"/>
      <point x="500" y="175" type="curve" smooth="yes"/>
    </contour>
  </outline>
</glyph>
<glyph name="Ze-cy" format="2">
  <advance width="785"/>
  <unicode hex="0417"/>
  <anchor x="372" y="0" name="bottom"/>
  <anchor x="372" y="705" name="top"/>
  <outline>
    <contour>
      <point x="357" y="-12" type="curve" smooth="yes"/>
      <point x="596" y="-12"/>
      <point x="737" y="66"/>
      <point x="737" y="199" type="curve" smooth="yes"/>
      <point x="737" y="294"/>
      <point x="665" y="359"/>
      <point x="542" y="375" type="curve"/>
      <point x="542" y="359" type="line"/>
      <point x="651" y="381"/>
      <point x="710" y="438"/>
      <point x="710" y="521" type="curve" smooth="yes"/>
      <point x="710" y="645"/>
      <point x="583" y="717"/>
      <point x="364" y="717" type="curve" smooth="yes"/>
      <point x="229" y="717"/>
      <point x="103" y="690"/>
      <point x="40" y="647" type="curve"/>
      <point x="120" y="482" type="line"/>
      <point x="180" y="510"/>
      <point x="267" y="526"/>
      <point x="354" y="526" type="curve" smooth="yes"/>
      <point x="436" y="526"/>
      <point x="476" y="512"/>
      <point x="476" y="485" type="curve" smooth="yes"/>
      <point x="476" y="459"/>
      <point x="440" y="446"/>
      <point x="369" y="446" type="curve" smooth="yes"/>
      <point x="176" y="446" type="line"/>
      <point x="176" y="267" type="line"/>
      <point x="392" y="267" type="line" smooth="yes"/>
      <point x="466" y="267"/>
      <point x="503" y="253"/>
      <point x="503" y="225" type="curve" smooth="yes"/>
      <point x="503" y="193"/>
      <point x="458" y="179"/>
      <point x="358" y="179" type="curve" smooth="yes"/>
      <point x="252" y="179"/>
      <point x="160" y="194"/>
      <point x="101" y="222" type="curve"/>
      <point x="22" y="58" type="line"/>
      <point x="79" y="16"/>
      <point x="214" y="-12"/>
    </contour>
  </outline>
</glyph>
<glyph name="Ii-cy" format="2">
  <advance width="954"/>
  <unicode hex="0418"/>
  <anchor x="643" y="0" name="bottomright"/>
  <anchor x="477" y="705" name="top"/>
  <outline>
    <contour>
      <point x="77" y="0" type="line"/>
      <point x="259" y="0" type="line"/>
      <point x="684" y="403" type="line"/>
      <point x="643" y="403" type="line"/>
      <point x="643" y="0" type="line"/>
      <point x="877" y="0" type="line"/>
      <point x="877" y="705" type="line"/>
      <point x="695" y="705" type="line"/>
      <point x="270" y="302" type="line"/>
      <point x="311" y="302" type="line"/>
      <point x="311" y="705" type="line"/>
      <point x="77" y="705" type="line"/>
    </contour>
  </outline>
</glyph>
<glyph name="El-cy" format="2">
  <advance width="964"/>
  <unicode hex="041B"/>
  <anchor x="641" y="0" name="bottomright"/>
  <outline>
    <contour>
      <point x="127" y="-21" type="line"/>
      <point x="318" y="56"/>
      <point x="429" y="220"/>
      <point x="429" y="423" type="curve" smooth="yes"/>
      <point x="429" y="515" type="line"/>
      <point x="641" y="515" type="line"/>
      <point x="641" y="0" type="line"/>
      <point x="887" y="0" type="line"/>
      <point x="887" y="705" type="line"/>
      <point x="203" y="705" type="line"/>
      <point x="203" y="470" type="line" smooth="yes"/>
      <point x="203" y="310"/>
      <point x="152" y="227"/>
      <point x="7" y="151" type="curve"/>
    </contour>
  </outline>
</glyph>
<glyph name="Softsign-cy" format="2">
  <advance width="861"/>
  <unicode hex="042C"/>
  <outline>
    <contour>
      <point x="77" y="0" type="line"/>
      <point x="533" y="0" type="line" smooth="yes"/>
      <point x="725" y="0"/>
      <point x="837" y="82"/>
      <point x="837" y="225" type="curve" smooth="yes"/>
      <point x="837" y="367"/>
      <point x="725" y="450"/>
      <point x="533" y="450" type="curve" smooth="yes"/>
      <point x="323" y="450" type="line"/>
      <point x="323" y="705" type="line"/>
      <point x="77" y="705" type="line"/>
    </contour>
    <contour>
      <point x="323" y="175" type="line"/>
      <point x="323" y="275" type="line"/>
      <point x="500" y="275" type="line" smooth="yes"/>
      <point x="583" y="275"/>
      <point x="604" y="258"/>
      <point x="604" y="225" type="curve" smooth="yes"/>
      <point x="604" y="191"/>
      <point x="583" y="175"/>
      <point x="500" y="175" type="curve" smooth="yes"/>
    </contour>
  </outline>
</glyph>
<glyph name="Iu-cy" format="2">
  <advance width="1375"/>
  <unicode hex="042E"/>
  <outline>
    <contour>
      <point x="876" y="-12" type="curve" smooth="yes"/>
      <point x="1138" y="-12"/>
      <point x="1320" y="137"/>
      <point x="1320" y="353" type="curve" smooth="yes"/>
      <point x="1320" y="569"/>
      <point x="1139" y="717"/>
      <point x="876" y="717" type="curve" smooth="yes"/>
      <point x="657" y="717"/>
      <point x="494" y="612"/>
      <point x="446" y="452" type="curve"/>
      <point x="323" y="452" type="line"/>
      <point x="323" y="705" type="line"/>
      <point x="77" y="705" type="line"/>
      <point x="77" y="0" type="line"/>
      <point x="323" y="0" type="line"/>
      <point x="323" y="262" type="line"/>
      <point x="444" y="262" type="line"/>
      <point x="487" y="97"/>
      <point x="652" y="-12"/>
    </contour>
    <contour>
      <point x="876" y="183" type="curve" smooth="yes"/>
      <point x="759" y="183"/>
      <point x="686" y="248"/>
      <point x="686" y="352" type="curve" smooth="yes"/>
      <point x="686" y="456"/>
      <point x="760" y="522"/>
      <point x="876" y="522" type="curve" smooth="yes"/>
      <point x="993" y="522"/>
      <point x="1066" y="457"/>
      <point x="1066" y="353" type="curve" smooth="yes"/>
      <point x="1066" y="249"/>
      <point x="992" y="183"/>
    </contour>
  </outline>
</glyph>
<glyph name="Ia-cy" format="2">
  <advance width="896"/>
  <unicode hex="042F"/>
  <outline>
    <contour>
      <point x="18" y="0" type="line"/>
      <point x="288" y="0" type="line"/>
      <point x="431" y="208" type="line" smooth="yes"/>
      <point x="444" y="226"/>
      <point x="461" y="239"/>
      <point x="510" y="239" type="curve" smooth="yes"/>
      <point x="573" y="239" type="line"/>
      <point x="573" y="0" type="line"/>
      <point x="819" y="0" type="line"/>
      <point x="819" y="705" type="line"/>
      <point x="374" y="705" type="line" smooth="yes"/>
      <point x="178" y="705"/>
      <point x="68" y="622"/>
      <point x="68" y="477" type="curve" smooth="yes"/>
      <point x="68" y="327"/>
      <point x="186" y="241"/>
      <point x="390" y="241" type="curve"/>
      <point x="390" y="260" type="line"/>
      <point x="309" y="260" type="line" smooth="yes"/>
      <point x="244" y="260"/>
      <point x="190" y="234"/>
      <point x="150" y="179" type="curve" smooth="yes"/>
    </contour>
    <contour>
      <point x="408" y="402" type="line" smooth="yes"/>
      <point x="331" y="402"/>
      <point x="302" y="425"/>
      <point x="302" y="467" type="curve" smooth="yes"/>
      <point x="302" y="507"/>
      <point x="331" y="526"/>
      <point x="408" y="526" type="curve" smooth="yes"/>
      <point x="573" y="526" type="line"/>
      <point x="573" y="402" type="line"/>
    </contour>
  </outline>
</glyph>
<glyph name="ve-cy" format="2">
  <advance width="745"/>
  <unicode hex="0432"/>
  <outline>
    <contour>
      <point x="73" y="0" type="line"/>
      <point x="493" y="0" type="line" smooth="yes"/>
      <point x="626" y="0"/>
      <point x="711" y="54"/>
      <point x="711" y="140" type="curve" smooth="yes"/>
      <point x="711" y="205"/>
      <point x="665" y="247"/>
      <point x="573" y="263" type="curve"/>
      <point x="566" y="252" type="line"/>
      <point x="644" y="269"/>
      <point x="686" y="309"/>
      <point x="686" y="368" type="curve" smooth="yes"/>
      <point x="686" y="448"/>
      <point x="610" y="494"/>
      <point x="478" y="494" type="curve" smooth="yes"/>
      <point x="73" y="494" type="line"/>
    </contour>
    <contour>
      <point x="283" y="126" type="line"/>
      <point x="283" y="190" type="line"/>
      <point x="420" y="190" type="line" smooth="yes"/>
      <point x="471" y="190"/>
      <point x="491" y="181"/>
      <point x="491" y="159" type="curve" smooth="yes"/>
      <point x="491" y="136"/>
      <point x="470" y="126"/>
      <point x="420" y="126" type="curve" smooth="yes"/>
    </contour>
    <contour>
      <point x="283" y="316" type="line"/>
      <point x="283" y="368" type="line"/>
      <point x="395" y="368" type="line" smooth="yes"/>
      <point x="449" y="368"/>
      <point x="466" y="362"/>
      <point x="466" y="342" type="curve" smooth="yes"/>
      <point x="466" y="323"/>
      <point x="447" y="316"/>
      <point x="395" y="316" type="curve" smooth="yes"/>
    </contour>
  </outline>
</glyph>
<glyph name="ge-cy" format="2">
  <advance width="608"/>
  <unicode hex="0433"/>
  <anchor x="93" y="0" name="bottomright"/>
  <anchor x="231" y="249" name="center"/>
  <anchor x="305" y="484" name="top"/>
  <outline>
    <contour>
      <point x="73" y="0" type="line"/>
      <point x="303" y="0" type="line"/>
      <point x="303" y="320" type="line"/>
      <point x="584" y="320" type="line"/>
      <point x="584" y="494" type="line"/>
      <point x="73" y="494" type="line"/>
    </contour>
  </outline>
</glyph>
<glyph name="ze-cy" format="2">
  <advance width="685"/>
  <unicode hex="0437"/>
  <anchor x="341" y="0" name="bottom"/>
  <anchor x="341" y="484" name="top"/>
  <outline>
    <contour>
      <point x="322" y="-12" type="curve" smooth="yes"/>
      <point x="533" y="-12"/>
      <point x="651" y="44"/>
      <point x="651" y="144" type="curve" smooth="yes"/>
      <point x="651" y="212"/>
      <point x="596" y="256"/>
      <point x="503" y="264" type="curve"/>
      <point x="503" y="252" type="line"/>
      <point x="586" y="269"/>
      <point x="630" y="307"/>
      <point x="630" y="364" type="curve" smooth="yes"/>
      <point x="630" y="455"/>
      <point x="522" y="506"/>
      <point x="330" y="506" type="curve" smooth="yes"/>
      <point x="214" y="506"/>
      <point x="111" y="487"/>
      <point x="45" y="453" type="curve"/>
      <point x="106" y="326" type="line"/>
      <point x="170" y="350"/>
      <point x="245" y="362"/>
      <point x="325" y="362" type="curve" smooth="yes"/>
      <point x="389" y="362"/>
      <point x="423" y="354"/>
      <point x="423" y="339" type="curve" smooth="yes"/>
      <point x="423" y="324"/>
      <point x="394" y="318"/>
      <point x="334" y="318" type="curve" smooth="yes"/>
      <point x="188" y="318" type="line"/>
      <point x="188" y="182" type="line"/>
      <point x="351" y="182" type="line" smooth="yes"/>
      <point x="413" y="182"/>
      <point x="444" y="175"/>
      <point x="444" y="159" type="curve" smooth="yes"/>
      <point x="444" y="141"/>
      <point x="409" y="133"/>
      <point x="332" y="133" type="curve" smooth="yes"/>
      <point x="236" y="133"/>
      <point x="157" y="147"/>
      <point x="96" y="175" type="curve"/>
      <point x="31" y="41" type="line"/>
      <point x="88" y="8"/>
      <point x="197" y="-12"/>
    </contour>
  </outline>
</glyph>
<glyph name="ii-cy" format="2">
  <advance width="788"/>
  <unicode hex="0438"/>
  <anchor x="507" y="0" name="bottomright"/>
  <anchor x="394" y="484" name="top"/>
  <outline>
    <contour>
      <point x="73" y="0" type="line"/>
      <point x="249" y="0" type="line"/>
      <point x="574" y="306" type="line"/>
      <point x="497" y="306" type="line"/>
      <point x="497" y="0" type="line"/>
      <point x="715" y="0" type="line"/>
      <point x="715" y="494" type="line"/>
      <point x="538" y="494" type="line"/>
      <point x="214" y="189" type="line"/>
      <point x="291" y="189" type="line"/>
      <point x="291" y="494" type="line"/>
      <point x="73" y="494" type="line"/>
    </contour>
  </outline>
</glyph>
<glyph name="en-cy" format="2">
  <advance width="793"/>
  <unicode hex="043D"/>
  <anchor x="510" y="0" name="bottomright"/>
  <outline>
    <contour>
      <point x="73" y="0" type="line"/>
      <point x="303" y="0" type="line"/>
      <point x="303" y="164" type="line"/>
      <point x="490" y="164" type="line"/>
      <point x="490" y="0" type="line"/>
      <point x="720" y="0" type="line"/>
      <point x="720" y="494" type="line"/>
      <point x="490" y="494" type="line"/>
      <point x="490" y="336" type="line"/>
      <point x="303" y="336" type="line"/>
      <point x="303" y="494" type="line"/>
      <point x="73" y="494" type="line"/>
    </contour>
  </outline>
</glyph>
<glyph name="pe-cy" format="2">
  <advance width="789"/>
  <unicode hex="043F"/>
  <anchor x="486" y="0" name="bottomright"/>
  <outline>
    <contour>
      <point x="73" y="0" type="line"/>
      <point x="303" y="0" type="line"/>
      <point x="303" y="322" type="line"/>
      <point x="486" y="322" type="line"/>
      <point x="486" y="0" type="line"/>
      <point x="716" y="0" type="line"/>
      <point x="716" y="494" type="line"/>
      <point x="73" y="494" type="line"/>
    </contour>
  </outline>
</glyph>
<glyph name="te-cy" format="2">
  <advance width="638"/>
  <unicode hex="0442"/>
  <anchor x="203" y="0" name="bottomright"/>
  <outline>
    <contour>
      <point x="203" y="0" type="line"/>
      <point x="433" y="0" type="line"/>
      <point x="433" y="318" type="line"/>
      <point x="627" y="318" type="line"/>
      <point x="627" y="494" type="line"/>
      <point x="9" y="494" type="line"/>
      <point x="9" y="318" type="line"/>
      <point x="203" y="318" type="line"/>
    </contour>
  </outline>
</glyph>
<glyph name="ef-cy" format="2">
  <advance width="1120"/>
  <unicode hex="0444"/>
  <outline>
    <contour>
      <point x="445" y="-180" type="line"/>
      <point x="675" y="-180" type="line"/>
      <point x="675" y="73" type="line"/>
      <point x="660" y="73" type="line"/>
      <point x="689" y="18"/>
      <point x="750" y="-12"/>
      <point x="831" y="-12" type="curve" smooth="yes"/>
      <point x="980" y="-12"/>
      <point x="1074" y="88"/>
      <point x="1074" y="247" type="curve" smooth="yes"/>
      <point x="1074" y="406"/>
      <point x="980" y="506"/>
      <point x="831" y="506" type="curve" smooth="yes"/>
      <point x="750" y="506"/>
      <point x="689" y="476"/>
      <point x="660" y="421" type="curve"/>
      <point x="675" y="421" type="line"/>
      <point x="675" y="705" type="line"/>
      <point x="445" y="705" type="line"/>
      <point x="445" y="421" type="line"/>
      <point x="460" y="421" type="line"/>
      <point x="431" y="476"/>
      <point x="370" y="506"/>
      <point x="289" y="506" type="curve" smooth="yes"/>
      <point x="140" y="506"/>
      <point x="46" y="406"/>
      <point x="46" y="247" type="curve" smooth="yes"/>
      <point x="46" y="88"/>
      <point x="140" y="-12"/>
      <point x="289" y="-12" type="curve" smooth="yes"/>
      <point x="370" y="-12"/>
      <point x="431" y="18"/>
      <point x="460" y="73" type="curve"/>
      <point x="445" y="73" type="line"/>
    </contour>
    <contour>
      <point x="364" y="151" type="curve" smooth="yes"/>
      <point x="310" y="151"/>
      <point x="277" y="187"/>
      <point x="277" y="247" type="curve" smooth="yes"/>
      <point x="277" y="307"/>
      <point x="310" y="343"/>
      <point x="364" y="343" type="curve" smooth="yes"/>
      <point x="417" y="343"/>
      <point x="448" y="308"/>
      <point x="448" y="247" type="curve" smooth="yes"/>
      <point x="448" y="186"/>
      <point x="417" y="151"/>
    </contour>
    <contour>
      <point x="756" y="151" type="curve" smooth="yes"/>
      <point x="703" y="151"/>
      <point x="672" y="186"/>
      <point x="672" y="247" type="curve" smooth="yes"/>
      <point x="672" y="308"/>
      <point x="703" y="343"/>
      <point x="756" y="343" type="curve" smooth="yes"/>
      <point x="810" y="343"/>
      <point x="843" y="307"/>
      <point x="843" y="247" type="curve" smooth="yes"/>
      <point x="843" y="187"/>
      <point x="810" y="151"/>
    </contour>
  </outline>
</glyph>
<glyph name="tse-cy" format="2">
  <advance width="819"/>
  <unicode hex="0446"/>
  <outline>
    <contour>
      <point x="610" y="-130" type="line"/>
      <point x="804" y="-130" type="line"/>
      <point x="804" y="173" type="line"/>
      <point x="700" y="173" type="line"/>
      <point x="700" y="494" type="line"/>
      <point x="470" y="494" type="line"/>
      <point x="470" y="173" type="line"/>
      <point x="303" y="173" type="line"/>
      <point x="303" y="494" type="line"/>
      <point x="73" y="494" type="line"/>
      <point x="73" y="0" type="line"/>
      <point x="610" y="0" type="line"/>
    </contour>
  </outline>
</glyph>
<glyph name="shcha-cy" format="2">
  <advance width="1139"/>
  <unicode hex="0449"/>
  <outline>
    <contour>
      <point x="930" y="-130" type="line"/>
      <point x="1124" y="-130" type="line"/>
      <point x="1124" y="173" type="line"/>
      <point x="1019" y="173" type="line"/>
      <point x="1019" y="494" type="line"/>
      <point x="805" y="494" type="line"/>
      <point x="805" y="173" type="line"/>
      <point x="653" y="173" type="line"/>
      <point x="653" y="494" type="line"/>
      <point x="439" y="494" type="line"/>
      <point x="439" y="173" type="line"/>
      <point x="287" y="173" type="line"/>
      <point x="287" y="494" type="line"/>
      <point x="73" y="494" type="line"/>
      <point x="73" y="0" type="line"/>
      <point x="930" y="0" type="line"/>
    </contour>
  </outline>
</glyph>
<glyph name="hardsign-cy" format="2">
  <advance width="821"/>
  <unicode hex="044A"/>
  <outline>
    <contour>
      <point x="177" y="0" type="line"/>
      <point x="543" y="0" type="line" smooth="yes"/>
      <point x="702" y="0"/>
      <point x="794" y="67"/>
      <point x="794" y="181" type="curve" smooth="yes"/>
      <point x="794" y="295"/>
      <point x="705" y="362"/>
      <point x="540" y="362" type="curve" smooth="yes"/>
      <point x="407" y="362" type="line"/>
      <point x="407" y="494" type="line"/>
      <point x="9" y="494" type="line"/>
      <point x="9" y="318" type="line"/>
      <point x="177" y="318" type="line"/>
    </contour>
    <contour>
      <point x="407" y="141" type="line"/>
      <point x="407" y="221" type="line"/>
      <point x="516" y="221" type="line" smooth="yes"/>
      <point x="565" y="221"/>
      <point x="584" y="212"/>
      <point x="584" y="183" type="curve" smooth="yes"/>
      <point x="584" y="154"/>
      <point x="566" y="141"/>
      <point x="516" y="141" type="curve" smooth="yes"/>
    </contour>
  </outline>
</glyph>
<glyph name="yeru-cy" format="2">
  <advance width="1045"/>
  <unicode hex="044B"/>
  <anchor x="522" y="484" name="top"/>
  <outline>
    <contour>
      <point x="73" y="0" type="line"/>
      <point x="439" y="0" type="line" smooth="yes"/>
      <point x="598" y="0"/>
      <point x="690" y="67"/>
      <point x="690" y="181" type="curve" smooth="yes"/>
      <point x="690" y="295"/>
      <point x="601" y="362"/>
      <point x="436" y="362" type="curve" smooth="yes"/>
      <point x="303" y="362" type="line"/>
      <point x="303" y="494" type="line"/>
      <point x="73" y="494" type="line"/>
    </contour>
    <contour>
      <point x="303" y="141" type="line"/>
      <point x="303" y="221" type="line"/>
      <point x="412" y="221" type="line" smooth="yes"/>
      <point x="461" y="221"/>
      <point x="480" y="212"/>
      <point x="480" y="183" type="curve" smooth="yes"/>
      <point x="480" y="154"/>
      <point x="462" y="141"/>
      <point x="412" y="141" type="curve" smooth="yes"/>
    </contour>
    <contour>
      <point x="742" y="0" type="line"/>
      <point x="972" y="0" type="line"/>
      <point x="972" y="494" type="line"/>
      <point x="742" y="494" type="line"/>
    </contour>
  </outline>
</glyph>
<glyph name="ereversed-cy" format="2">
  <advance width="699"/>
  <unicode hex="044D"/>
  <anchor x="316" y="484" name="top"/>
  <outline>
    <contour>
      <point x="293" y="-12" type="curve" smooth="yes"/>
      <point x="520" y="-12"/>
      <point x="653" y="84"/>
      <point x="653" y="246" type="curve" smooth="yes"/>
      <point x="653" y="410"/>
      <point x="523" y="506"/>
      <point x="302" y="506" type="curve" smooth="yes"/>
      <point x="207" y="506"/>
      <point x="108" y="488"/>
      <point x="44" y="459" type="curve"/>
      <point x="103" y="316" type="line"/>
      <point x="146" y="335"/>
      <point x="213" y="349"/>
      <point x="279" y="349" type="curve" smooth="yes"/>
      <point x="397" y="349"/>
      <point x="454" y="317"/>
      <point x="457" y="251" type="curve"/>
      <point x="497" y="315" type="line"/>
      <point x="176" y="315" type="line"/>
      <point x="176" y="184" type="line"/>
      <point x="497" y="184" type="line"/>
      <point x="457" y="241" type="line"/>
      <point x="454" y="175"/>
      <point x="398" y="145"/>
      <point x="276" y="145" type="curve" smooth="yes"/>
      <point x="210" y="145"/>
      <point x="146" y="159"/>
      <point x="105" y="178" type="curve"/>
      <point x="44" y="40" type="line"/>
      <point x="95" y="8"/>
      <point x="190" y="-12"/>
    </contour>
  </outline>
</glyph>
<glyph name="ia-cy" format="2">
  <advance width="725"/>
  <unicode hex="044F"/>
  <outline>
    <contour>
      <point x="17" y="0" type="line"/>
      <point x="274" y="0" type="line"/>
      <point x="350" y="106" type="line" smooth="yes"/>
      <point x="367" y="121"/>
      <point x="392" y="131"/>
      <point x="418" y="131" type="curve" smooth="yes"/>
      <point x="452" y="131" type="line"/>
      <point x="452" y="0" type="line"/>
      <point x="652" y="0" type="line"/>
      <point x="652" y="494" type="line"/>
      <point x="302" y="494" type="line" smooth="yes"/>
      <point x="138" y="494"/>
      <point x="47" y="436"/>
      <point x="47" y="330" type="curve" smooth="yes"/>
      <point x="47" y="225"/>
      <point x="125" y="175"/>
      <point x="280" y="175" type="curve"/>
      <point x="280" y="191" type="line"/>
      <point x="242" y="191" type="line" smooth="yes"/>
      <point x="189" y="191"/>
      <point x="136" y="162"/>
      <point x="103" y="116" type="curve" smooth="yes"/>
    </contour>
    <contour>
      <point x="352" y="271" type="line"/>
      <point x="293" y="271"/>
      <point x="262" y="286"/>
      <point x="262" y="313" type="curve" smooth="yes"/>
      <point x="262" y="340"/>
      <point x="293" y="354"/>
      <point x="352" y="354" type="curve" smooth="yes"/>
      <point x="453" y="354" type="line"/>
      <point x="453" y="271" type="line"/>
    </contour>
  </outline>
</glyph>
<glyph name="lje-cy" format="2">
  <advance width="1118"/>
  <unicode hex="0459"/>
  <outline>
    <contour>
      <point x="79" y="-19" type="line"/>
      <point x="261" y="-14"/>
      <point x="357" y="82"/>
      <point x="357" y="259" type="curve" smooth="yes"/>
      <point x="357" y="321" type="line"/>
      <point x="479" y="321" type="line"/>
      <point x="479" y="0" type="line"/>
      <point x="840" y="0" type="line" smooth="yes"/>
      <point x="999" y="0"/>
      <point x="1091" y="67"/>
      <point x="1091" y="181" type="curve" smooth="yes"/>
      <point x="1091" y="295"/>
      <point x="1002" y="361"/>
      <point x="837" y="361" type="curve" smooth="yes"/>
      <point x="704" y="361" type="line"/>
      <point x="704" y="494" type="line"/>
      <point x="149" y="494" type="line"/>
      <point x="149" y="267" type="line" smooth="yes"/>
      <point x="149" y="199"/>
      <point x="115" y="172"/>
      <point x="17" y="161" type="curve"/>
    </contour>
    <contour>
      <point x="704" y="141" type="line"/>
      <point x="704" y="221" type="line"/>
      <point x="813" y="221" type="line" smooth="yes"/>
      <point x="862" y="221"/>
      <point x="881" y="212"/>
      <point x="881" y="183" type="curve" smooth="yes"/>
      <point x="881" y="154"/>
      <point x="863" y="141"/>
      <point x="813" y="141" type="curve" smooth="yes"/>
    </contour>
  </outline>
</glyph>
<glyph name="nje-cy" format="2">
  <advance width="1134"/>
  <unicode hex="045A"/>
  <outline>
    <contour>
      <point x="73" y="0" type="line"/>
      <point x="303" y="0" type="line"/>
      <point x="303" y="164" type="line"/>
      <point x="490" y="164" type="line"/>
      <point x="490" y="0" type="line"/>
      <point x="856" y="0" type="line" smooth="yes"/>
      <point x="1015" y="0"/>
      <point x="1107" y="67"/>
      <point x="1107" y="181" type="curve" smooth="yes"/>
      <point x="1107" y="295"/>
      <point x="1018" y="362"/>
      <point x="853" y="362" type="curve" smooth="yes"/>
      <point x="720" y="362" type="line"/>
      <point x="720" y="494" type="line"/>
      <point x="490" y="494" type="line"/>
      <point x="490" y="336" type="line"/>
      <point x="303" y="336" type="line"/>
      <point x="303" y="494" type="line"/>
      <point x="73" y="494" type="line"/>
    </contour>
    <contour>
      <point x="720" y="141" type="line"/>
      <point x="720" y="221" type="line"/>
      <point x="829" y="221" type="line" smooth="yes"/>
      <point x="878" y="221"/>
      <point x="897" y="212"/>
      <point x="897" y="183" type="curve" smooth="yes"/>
      <point x="897" y="154"/>
      <point x="879" y="141"/>
      <point x="829" y="141" type="curve" smooth="yes"/>
    </contour>
  </outline>
</glyph>
<glyph name="yat-cy" format="2">
  <advance width="821"/>
  <unicode hex="0463"/>
  <outline>
    <contour>
      <point x="177" y="0" type="line"/>
      <point x="543" y="0" type="line" smooth="yes"/>
      <point x="702" y="0"/>
      <point x="794" y="61"/>
      <point x="794" y="163" type="curve" smooth="yes"/>
      <point x="794" y="265"/>
      <point x="705" y="326"/>
      <point x="540" y="326" type="curve" smooth="yes"/>
      <point x="407" y="326" type="line"/>
      <point x="407" y="362" type="line"/>
      <point x="618" y="362" type="line"/>
      <point x="618" y="494" type="line"/>
      <point x="407" y="494" type="line"/>
      <point x="407" y="705" type="line"/>
      <point x="177" y="705" type="line"/>
      <point x="177" y="494" type="line"/>
      <point x="9" y="494" type="line"/>
      <point x="9" y="362" type="line"/>
      <point x="177" y="362" type="line"/>
    </contour>
    <contour>
      <point x="407" y="128" type="line"/>
      <point x="407" y="198" type="line"/>
      <point x="516" y="198" type="line" smooth="yes"/>
      <point x="565" y="198"/>
      <point x="584" y="190"/>
      <point x="584" y="165" type="curve" smooth="yes"/>
      <point x="584" y="140"/>
      <point x="566" y="128"/>
      <point x="516" y="128" type="curve" smooth="yes"/>
    </contour>
  </outline>
</glyph>
<glyph name="Yusbig-cy" format="2">
  <advance width="1308"/>
  <unicode hex="046A"/>
  <outline>
    <contour>
      <point x="-17" y="0" type="line"/>
      <point x="254" y="0" type="line"/>
      <point x="361" y="191" type="line" smooth="yes"/>
      <point x="385" y="235"/>
      <point x="411" y="249"/>
      <point x="482" y="249" type="curve" smooth="yes"/>
      <point x="536" y="249" type="line"/>
      <point x="536" y="0" type="line"/>
      <point x="772" y="0" type="line"/>
      <point x="772" y="249" type="line"/>
      <point x="826" y="249" type="line" smooth="yes"/>
      <point x="897" y="249"/>
      <point x="923" y="235"/>
      <point x="947" y="191" type="curve" smooth="yes"/>
      <point x="1054" y="0" type="line"/>
      <point x="1325" y="0" type="line"/>
      <point x="1168" y="265" type="line" smooth="yes"/>
      <point x="1099" y="381"/>
      <point x="1019" y="436"/>
      <point x="848" y="436" type="curve" smooth="yes"/>
      <point x="772" y="436" type="line"/>
      <point x="844" y="386" type="line"/>
      <point x="1186" y="705" type="line"/>
      <point x="122" y="705" type="line"/>
      <point x="464" y="386" type="line"/>
      <point x="536" y="436" type="line"/>
      <point x="460" y="436" type="line" smooth="yes"/>
      <point x="289" y="436"/>
      <point x="209" y="381"/>
      <point x="140" y="265" type="curve" smooth="yes"/>
    </contour>
    <contour>
      <point x="653" y="414" type="line"/>
      <point x="448" y="595" type="line"/>
      <point x="448" y="555" type="line"/>
      <point x="860" y="555" type="line"/>
      <point x="860" y="595" type="line"/>
      <point x="655" y="414" type="line"/>
    </contour>
  </outline>
</glyph>
<glyph name="Ertick-cy" format="2">
  <advance width="854"/>
  <unicode hex="048E"/>
  <outline>
    <contour>
      <point x="77" y="0" type="line"/>
      <point x="323" y="0" type="line"/>
      <point x="323" y="223" type="line"/>
      <point x="526" y="223" type="line" smooth="yes"/>
      <point x="547" y="223"/>
      <point x="568" y="224"/>
      <point x="587" y="226" type="curve"/>
      <point x="535" y="254" type="line"/>
      <point x="625" y="137" type="line"/>
      <point x="714" y="205" type="line"/>
      <point x="651" y="284" type="line"/>
      <point x="663" y="241" type="line"/>
      <point x="770" y="274"/>
      <point x="828" y="350"/>
      <point x="828" y="464" type="curve" smooth="yes"/>
      <point x="828" y="619"/>
      <point x="720" y="705"/>
      <point x="526" y="705" type="curve" smooth="yes"/>
      <point x="77" y="705" type="line"/>
    </contour>
    <contour>
      <point x="323" y="402" type="line"/>
      <point x="323" y="526" type="line"/>
      <point x="489" y="526" type="line" smooth="yes"/>
      <point x="563" y="526"/>
      <point x="594" y="509"/>
      <point x="594" y="465" type="curve" smooth="yes"/>
      <point x="594" y="433"/>
      <point x="575" y="414"/>
      <point x="536" y="406" type="curve"/>
      <point x="560" y="398" type="line"/>
      <point x="480" y="499" type="line"/>
      <point x="395" y="436" type="line"/>
      <point x="453" y="360" type="line"/>
      <point x="515" y="403" type="line"/>
      <point x="507" y="402"/>
      <point x="498" y="402"/>
      <point x="489" y="402" type="curve" smooth="yes"/>
    </contour>
  </outline>
</glyph>
<glyph name="ghestroke-cy" format="2">
  <advance width="643"/>
  <unicode hex="0493"/>
  <outline>
    <contour>
      <point x="108" y="0" type="line"/>
      <point x="338" y="0" type="line"/>
      <point x="338" y="125" type="line"/>
      <point x="504" y="125" type="line"/>
      <point x="504" y="278" type="line"/>
      <point x="338" y="278" type="line"/>
      <point x="338" y="321" type="line"/>
      <point x="619" y="321" type="line"/>
      <point x="619" y="494" type="line"/>
      <point x="108" y="494" type="line"/>
      <point x="108" y="278" type="line"/>
      <point x="4" y="278" type="line"/>
      <point x="4" y="125" type="line"/>
      <point x="108" y="125" type="line"/>
    </contour>
  </outline>
</glyph>
<glyph name="Ghemiddlehook-cy" format="2">
  <advance width="933"/>
  <unicode hex="0494"/>
  <outline>
    <contour>
      <point x="541" y="-192" type="curve" smooth="yes"/>
      <point x="750" y="-192"/>
      <point x="877" y="-89"/>
      <point x="877" y="81" type="curve" smooth="yes"/>
      <point x="877" y="152" type="line" smooth="yes"/>
      <point x="877" y="356"/>
      <point x="746" y="458"/>
      <point x="482" y="458" type="curve" smooth="yes"/>
      <point x="424" y="458"/>
      <point x="360" y="453"/>
      <point x="323" y="445" type="curve"/>
      <point x="323" y="515" type="line"/>
      <point x="596" y="515" type="line"/>
      <point x="596" y="705" type="line"/>
      <point x="77" y="705" type="line"/>
      <point x="77" y="0" type="line"/>
      <point x="323" y="0" type="line"/>
      <point x="323" y="253" type="line"/>
      <point x="367" y="260"/>
      <point x="411" y="263"/>
      <point x="452" y="263" type="curve" smooth="yes"/>
      <point x="578" y="263"/>
      <point x="631" y="228"/>
      <point x="631" y="146" type="curve" smooth="yes"/>
      <point x="631" y="70" type="line" smooth="yes"/>
      <point x="631" y="19"/>
      <point x="586" y="-12"/>
      <point x="512" y="-12" type="curve" smooth="yes"/>
      <point x="491" y="-12"/>
      <point x="451" y="-9"/>
      <point x="420" y="-4" type="curve"/>
      <point x="385" y="-171" type="line"/>
      <point x="424" y="-184"/>
      <point x="483" y="-192"/>
    </contour>
  </outline>
</glyph>
<glyph name="ghemiddlehook-cy" format="2">
  <advance width="761"/>
  <unicode hex="0495"/>
  <outline>
    <contour>
      <point x="453" y="-188" type="line"/>
      <point x="647" y="-138"/>
      <point x="722" y="-70"/>
      <point x="722" y="56" type="curve" smooth="yes"/>
      <point x="722" y="79" type="line" smooth="yes"/>
      <point x="722" y="237"/>
      <point x="651" y="314"/>
      <point x="506" y="314" type="curve" smooth="yes"/>
      <point x="410" y="314"/>
      <point x="332" y="279"/>
      <point x="284" y="214" type="curve"/>
      <point x="303" y="214" type="line"/>
      <point x="303" y="346" type="line"/>
      <point x="584" y="346" type="line"/>
      <point x="584" y="494" type="line"/>
      <point x="73" y="494" type="line"/>
      <point x="73" y="0" type="line"/>
      <point x="303" y="0" type="line"/>
      <point x="303" y="65" type="line" smooth="yes"/>
      <point x="303" y="111"/>
      <point x="346" y="141"/>
      <point x="410" y="141" type="curve" smooth="yes"/>
      <point x="466" y="141"/>
      <point x="492" y="119"/>
      <point x="492" y="72" type="curve" smooth="yes"/>
      <point x="492" y="56" type="line" smooth="yes"/>
      <point x="492" y="11"/>
      <point x="470" y="-8"/>
      <point x="378" y="-28" type="curve"/>
    </contour>
  </outline>
</glyph>
<glyph name="Kaverticalstroke-cy" format="2">
  <advance width="1007"/>
  <unicode hex="049C"/>
  <outline>
    <contour>
      <point x="77" y="0" type="line"/>
      <point x="323" y="0" type="line"/>
      <point x="323" y="249" type="line"/>
      <point x="362" y="249" type="line"/>
      <point x="362" y="104" type="line"/>
      <point x="510" y="104" type="line"/>
      <point x="510" y="266" type="line"/>
      <point x="473" y="249" type="line"/>
      <point x="517" y="249" type="line" smooth="yes"/>
      <point x="589" y="249"/>
      <point x="622" y="234"/>
      <point x="646" y="191" type="curve" smooth="yes"/>
      <point x="753" y="0" type="line"/>
      <point x="1024" y="0" type="line"/>
      <point x="867" y="265" type="line" smooth="yes"/>
      <point x="815" y="353"/>
      <point x="760" y="404"/>
      <point x="618" y="431" type="curve"/>
      <point x="713" y="370" type="line"/>
      <point x="982" y="705" type="line"/>
      <point x="708" y="705" type="line"/>
      <point x="506" y="440" type="line"/>
      <point x="510" y="440" type="line"/>
      <point x="510" y="595" type="line"/>
      <point x="362" y="595" type="line"/>
      <point x="362" y="440" type="line"/>
      <point x="323" y="440" type="line"/>
      <point x="323" y="705" type="line"/>
      <point x="77" y="705" type="line"/>
    </contour>
  </outline>
</glyph>
<glyph name="endescender-cy" format="2">
  <advance width="793"/>
  <unicode hex="04A3"/>
  <outline>
    <contour>
      <point x="635" y="-130" type="line"/>
      <point x="824" y="-130" type="line"/>
      <point x="824" y="166" type="line"/>
      <point x="720" y="166" type="line"/>
      <point x="720" y="494" type="line"/>
      <point x="490" y="494" type="line"/>
      <point x="490" y="336" type="line"/>
      <point x="303" y="336" type="line"/>
      <point x="303" y="494" type="line"/>
      <point x="73" y="494" type="line"/>
      <point x="73" y="0" type="line"/>
      <point x="303" y="0" type="line"/>
      <point x="303" y="164" type="line"/>
      <point x="490" y="164" type="line"/>
      <point x="490" y="0" type="line"/>
      <point x="635" y="0" type="line"/>
    </contour>
  </outline>
</glyph>
<glyph name="Enghe-cy" format="2">
  <advance width="1191"/>
  <unicode hex="04A4"/>
  <outline>
    <contour>
      <point x="77" y="0" type="line"/>
      <point x="323" y="0" type="line"/>
      <point x="323" y="261" type="line"/>
      <point x="667" y="261" type="line"/>
      <point x="667" y="0" type="line"/>
      <point x="913" y="0" type="line"/>
      <point x="913" y="515" type="line"/>
      <point x="1184" y="515" type="line"/>
      <point x="1184" y="705" type="line"/>
      <point x="667" y="705" type="line"/>
      <point x="667" y="453" type="line"/>
      <point x="323" y="453" type="line"/>
      <point x="323" y="705" type="line"/>
      <point x="77" y="705" type="line"/>
    </contour>
  </outline>
</glyph>
<glyph name="enghe-cy" format="2">
  <advance width="976"/>
  <unicode hex="04A5"/>
  <outline>
    <contour>
      <point x="73" y="0" type="line"/>
      <point x="303" y="0" type="line"/>
      <point x="303" y="164" type="line"/>
      <point x="487" y="164" type="line"/>
      <point x="487" y="0" type="line"/>
      <point x="717" y="0" type="line"/>
      <point x="717" y="318" type="line"/>
      <point x="952" y="318" type="line"/>
      <point x="952" y="494" type="line"/>
      <point x="487" y="494" type="line"/>
      <point x="487" y="336" type="line"/>
      <point x="303" y="336" type="line"/>
      <point x="303" y="494" type="line"/>
      <point x="73" y="494" type="line"/>
    </contour>
  </outline>
</glyph>
<glyph name="tedescender-cy" format="2">
  <advance width="638"/>
  <unicode hex="04AD"/>
  <outline>
    <contour>
      <point x="329" y="-130" type="line"/>
      <point x="518" y="-130" type="line"/>
      <point x="518" y="166" type="line"/>
      <point x="433" y="166" type="line"/>
      <point x="433" y="318" type="line"/>
      <point x="627" y="318" type="line"/>
      <point x="627" y="494" type="line"/>
      <point x="9" y="494" type="line"/>
      <point x="9" y="318" type="line"/>
      <point x="203" y="318" type="line"/>
      <point x="203" y="0" type="line"/>
      <point x="329" y="0" type="line"/>
    </contour>
  </outline>
</glyph>
<glyph name="ustraightstroke-cy" format="2">
  <advance width="676"/>
  <unicode hex="04B1"/>
  <outline>
    <contour>
      <point x="223" y="-180" type="line"/>
      <point x="453" y="-180" type="line"/>
      <point x="453" y="-71" type="line"/>
      <point x="616" y="-71" type="line"/>
      <point x="616" y="82" type="line"/>
      <point x="453" y="82" type="line"/>
      <point x="453" y="38" type="line"/>
      <point x="705" y="494" type="line"/>
      <point x="479" y="494" type="line"/>
      <point x="317" y="190" type="line"/>
      <point x="374" y="190" type="line"/>
      <point x="212" y="494" type="line"/>
      <point x="-29" y="494" type="line"/>
      <point x="223" y="38" type="line"/>
      <point x="223" y="82" type="line"/>
      <point x="60" y="82" type="line"/>
      <point x="60" y="-71" type="line"/>
      <point x="223" y="-71" type="line"/>
    </contour>
  </outline>
</glyph>
<glyph name="Chedescender-cy" format="2">
  <advance width="975"/>
  <unicode hex="04B6"/>
  <outline>
    <contour>
      <point x="730" y="-180" type="line"/>
      <point x="935" y="-180" type="line"/>
      <point x="935" y="182" type="line"/>
      <point x="834" y="182" type="line"/>
      <point x="834" y="705" type="line"/>
      <point x="588" y="705" type="line"/>
      <point x="588" y="414" type="line"/>
      <point x="532" y="407"/>
      <point x="490" y="404"/>
      <point x="460" y="404" type="curve" smooth="yes"/>
      <point x="347" y="404"/>
      <point x="302" y="438"/>
      <point x="302" y="521" type="curve" smooth="yes"/>
      <point x="302" y="705" type="line"/>
      <point x="56" y="705" type="line"/>
      <point x="56" y="515" type="line" smooth="yes"/>
      <point x="56" y="311"/>
      <point x="180" y="209"/>
      <point x="429" y="209" type="curve" smooth="yes"/>
      <point x="483" y="209"/>
      <point x="547" y="214"/>
      <point x="588" y="222" type="curve"/>
      <point x="588" y="0" type="line"/>
      <point x="730" y="0" type="line"/>
    </contour>
  </outline>
</glyph>
<glyph name="Kahook-cy" format="2">
  <advance width="933"/>
  <unicode hex="04C3"/>
  <outline>
    <contour>
      <point x="542" y="-192" type="curve" smooth="yes"/>
      <point x="751" y="-192"/>
      <point x="878" y="-93"/>
      <point x="878" y="81" type="curve" smooth="yes"/>
      <point x="878" y="152" type="line" smooth="yes"/>
      <point x="878" y="322"/>
      <point x="776" y="417"/>
      <point x="593" y="444" type="curve"/>
      <point x="625" y="370" type="line"/>
      <point x="894" y="705" type="line"/>
      <point x="620" y="705" type="line"/>
      <point x="402" y="420" type="line"/>
      <point x="448" y="452" type="line"/>
      <point x="323" y="452" type="line"/>
      <point x="323" y="705" type="line"/>
      <point x="77" y="705" type="line"/>
      <point x="77" y="0" type="line"/>
      <point x="323" y="0" type="line"/>
      <point x="323" y="263" type="line"/>
      <point x="443" y="263" type="line" smooth="yes"/>
      <point x="569" y="263"/>
      <point x="632" y="228"/>
      <point x="632" y="146" type="curve" smooth="yes"/>
      <point x="632" y="70" type="line" smooth="yes"/>
      <point x="632" y="15"/>
      <point x="587" y="-12"/>
      <point x="513" y="-12" type="curve" smooth="yes"/>
      <point x="492" y="-12"/>
      <point x="452" y="-9"/>
      <point x="421" y="-4" type="curve"/>
      <point x="386" y="-171" type="line"/>
      <point x="425" y="-184"/>
      <point x="484" y="-192"/>
    </contour>
  </outline>
</glyph>
<glyph name="enhook-cy" format="2">
  <advance width="793"/>
  <unicode hex="04C8"/>
  <outline>
    <contour>
      <point x="374" y="-193" type="line"/>
      <point x="438" y="-189" type="line" smooth="yes"/>
      <point x="670" y="-175"/>
      <point x="720" y="-97"/>
      <point x="720" y="56" type="curve" smooth="yes"/>
      <point x="720" y="494" type="line"/>
      <point x="490" y="494" type="line"/>
      <point x="490" y="336" type="line"/>
      <point x="303" y="336" type="line"/>
      <point x="303" y="494" type="line"/>
      <point x="73" y="494" type="line"/>
      <point x="73" y="0" type="line"/>
      <point x="303" y="0" type="line"/>
      <point x="303" y="164" type="line"/>
      <point x="490" y="164" type="line"/>
      <point x="490" y="20" type="line" smooth="yes"/>
      <point x="490" y="-13"/>
      <point x="473" y="-24"/>
      <point x="430" y="-28" type="curve" smooth="yes"/>
      <point x="358" y="-35" type="line"/>
    </contour>
  </outline>
</glyph>
<glyph name="Emtail-cy" format="2">
  <advance width="1164"/>
  <unicode hex="04CD"/>
  <outline>
    <contour>
      <point x="841" y="-180" type="line"/>
      <point x="1042" y="-180" type="line"/>
      <point x="1178" y="182" type="line"/>
      <point x="1041" y="182" type="line"/>
      <point x="1041" y="705" type="line"/>
      <point x="830" y="705" type="line"/>
      <point x="497" y="245" type="line"/>
      <point x="628" y="246" type="line"/>
      <point x="289" y="705" type="line"/>
      <point x="79" y="705" type="line"/>
      <point x="79" y="0" type="line"/>
      <point x="301" y="0" type="line"/>
      <point x="301" y="458" type="line"/>
      <point x="232" y="434" type="line"/>
      <point x="496" y="102" type="line"/>
      <point x="620" y="102" type="line"/>
      <point x="888" y="439" type="line"/>
      <point x="819" y="463" type="line"/>
      <point x="819" y="0" type="line"/>
      <point x="914" y="0" type="line"/>
    </contour>
  </outline>
</glyph>
<glyph name="gestrokehook-cy" format="2">
  <advance width="643"/>
  <unicode hex="04FB"/>
  <outline>
    <contour>
      <point x="83" y="-190" type="line"/>
      <point x="189" y="-184" type="line" smooth="yes"/>
      <point x="337" y="-176"/>
      <point x="427" y="-98"/>
      <point x="427" y="50" type="curve" smooth="yes"/>
      <point x="427" y="117" type="line"/>
      <point x="338" y="117" type="line"/>
      <point x="338" y="151" type="line"/>
      <point x="504" y="151" type="line"/>
      <point x="504" y="288" type="line"/>
      <point x="338" y="288" type="line"/>
      <point x="338" y="321" type="line"/>
      <point x="619" y="321" type="line"/>
      <point x="619" y="494" type="line"/>
      <point x="108" y="494" type="line"/>
      <point x="108" y="288" type="line"/>
      <point x="4" y="288" type="line"/>
      <point x="4" y="151" type="line"/>
      <point x="108" y="151" type="line"/>
      <point x="108" y="0" type="line"/>
      <point x="222" y="0" type="line"/>
      <point x="222" y="-15"/>
      <point x="207" y="-35"/>
      <point x="158" y="-37" type="curve" smooth="yes"/>
      <point x="68" y="-43" type="line"/>
    </contour>
  </outline>
</glyph>
<glyph name="Hahook-cy" format="2">
  <advance width="874"/>
  <unicode hex="04FC"/>
  <outline>
    <contour>
      <point x="519" y="-191" type="line"/>
      <point x="735" y="-176"/>
      <point x="838" y="-115"/>
      <point x="838" y="-3" type="curve" smooth="yes"/>
      <point x="838" y="59"/>
      <point x="811" y="114"/>
      <point x="750" y="179" type="curve" smooth="yes"/>
      <point x="535" y="408" type="line"/>
      <point x="535" y="299" type="line"/>
      <point x="908" y="705" type="line"/>
      <point x="617" y="705" type="line"/>
      <point x="400" y="466" type="line"/>
      <point x="477" y="466" type="line"/>
      <point x="267" y="705" type="line"/>
      <point x="-36" y="705" type="line"/>
      <point x="339" y="299" type="line"/>
      <point x="339" y="408" type="line"/>
      <point x="-39" y="0" type="line"/>
      <point x="252" y="0" type="line"/>
      <point x="473" y="237" type="line"/>
      <point x="397" y="237" type="line"/>
      <point x="544" y="83" type="line" smooth="yes"/>
      <point x="564" y="63"/>
      <point x="577" y="41"/>
      <point x="577" y="26" type="curve" smooth="yes"/>
      <point x="577" y="5"/>
      <point x="548" y="-5"/>
      <point x="477" y="-8" type="curve"/>
    </contour>
  </outline>
</glyph>
<glyph name="hahook-cy" format="2">
  <advance width="741"/>
  <unicode hex="04FD"/>
  <outline>
    <contour>
      <point x="420" y="-191" type="line"/>
      <point x="634" y="-180"/>
      <point x="723" y="-115"/>
      <point x="723" y="-14" type="curve" smooth="yes"/>
      <point x="723" y="32"/>
      <point x="707" y="59"/>
      <point x="641" y="126" type="curve" smooth="yes"/>
      <point x="465" y="306" type="line"/>
      <point x="465" y="204" type="line"/>
      <point x="747" y="494" type="line"/>
      <point x="479" y="494" type="line"/>
      <point x="331" y="340" type="line"/>
      <point x="411" y="340" type="line"/>
      <point x="274" y="494" type="line"/>
      <point x="-4" y="494" type="line"/>
      <point x="277" y="206" type="line"/>
      <point x="277" y="303" type="line"/>
      <point x="-21" y="0" type="line"/>
      <point x="247" y="0" type="line"/>
      <point x="411" y="169" type="line"/>
      <point x="331" y="169" type="line"/>
      <point x="453" y="37" type="line" smooth="yes"/>
      <point x="474" y="15"/>
      <point x="485" y="-2"/>
      <point x="485" y="-11" type="curve" smooth="yes"/>
      <point x="485" y="-28"/>
      <point x="458" y="-35"/>
      <point x="386" y="-37" type="curve"/>
    </contour>
  </outline>
</glyph>
<glyph name="Elhook-cy" format="2">
  <advance width="964"/>
  <unicode hex="0512"/>
  <outline>
    <contour>
      <point x="525" y="-193" type="line"/>
      <point x="589" y="-189" type="line" smooth="yes"/>
      <point x="834" y="-174"/>
      <point x="887" y="-97"/>
      <point x="887" y="56" type="curve" smooth="yes"/>
      <point x="887" y="705" type="line"/>
      <point x="203" y="705" type="line"/>
      <point x="203" y="470" type="line" smooth="yes"/>
      <point x="203" y="310"/>
      <point x="152" y="227"/>
      <point x="7" y="151" type="curve"/>
      <point x="127" y="-21" type="line"/>
      <point x="318" y="56"/>
      <point x="429" y="220"/>
      <point x="429" y="423" type="curve" smooth="yes"/>
      <point x="429" y="515" type="line"/>
      <point x="641" y="515" type="line"/>
      <point x="641" y="20" type="line" smooth="yes"/>
      <point x="641" y="-13"/>
      <point x="624" y="-24"/>
      <point x="581" y="-28" type="curve" smooth="yes"/>
      <point x="509" y="-35" type="line"/>
    </contour>
  </outline>
</glyph>
<glyph name="Pedescender-cy" format="2">
  <advance width="1046"/>
  <unicode hex="0524"/>
  <outline>
    <contour>
      <point x="801" y="-180" type="line"/>
      <point x="1006" y="-180" type="line"/>
      <point x="1006" y="182" type="line"/>
      <point x="905" y="182" type="line"/>
      <point x="905" y="705" type="line"/>
      <point x="77" y="705" type="line"/>
      <point x="77" y="0" type="line"/>
      <point x="323" y="0" type="line"/>
      <point x="323" y="515" type="line"/>
      <point x="659" y="515" type="line"/>
      <point x="659" y="0" type="line"/>
      <point x="801" y="0" type="line"/>
    </contour>
  </outline>
</glyph>
<glyph name="pedescender-cy" format="2">
  <advance width="789"/>
  <unicode hex="0525"/>
  <outline>
    <contour>
      <point x="611" y="-130" type="line"/>
      <point x="800" y="-130" type="line"/>
      <point x="800" y="166" type="line"/>
      <point x="716" y="166" type="line"/>
      <point x="716" y="494" type="line"/>
      <point x="73" y="494" type="line"/>
      <point x="73" y="0" type="line"/>
      <point x="303" y="0" type="line"/>
      <point x="303" y="322" type="line"/>
      <point x="486" y="322" type="line"/>
      <point x="486" y="0" type="line"/>
      <point x="611" y="0" type="line"/>
    </contour>
  </outline>
</glyph>
<glyph name="emdash" format="2">
  <advance width="1248"/>
  <unicode hex="2014"/>
  <outline>
    <contour>
      <point x="-1" y="206" type="line"/>
      <point x="1249" y="206" type="line"/>
      <point x="1249" y="332" type="line"/>
      <point x="-1" y="332" type="line"/>
    </contour>
  </outline>
</glyph>
<glyph name="quoteright" format="2">
  <advance width="340"/>
  <unicode hex="2019"/>
  <outline>
    <contour>
      <point x="168" y="305" type="line"/>
      <point x="256" y="395"/>
      <point x="284" y="463"/>
      <point x="284" y="559" type="curve" smooth="yes"/>
      <point x="284" y="705" type="line"/>
      <point x="56" y="705" type="line"/>
      <point x="56" y="481" type="line"/>
      <point x="215" y="481" type="line"/>
      <point x="173" y="529" type="line"/>
      <point x="172" y="470"/>
      <point x="149" y="426"/>
      <point x="90" y="368" type="curve"/>
    </contour>
  </outline>
</glyph>
<glyph name="dagger" format="2">
  <advance width="463"/>
  <unicode hex="2020"/>
  <outline>
    <contour>
      <point x="148" y="147" type="line"/>
      <point x="315" y="147" type="line"/>
      <point x="315" y="458" type="line"/>
      <point x="439" y="458" type="line"/>
      <point x="439" y="600" type="line"/>
      <point x="315" y="600" type="line"/>
      <point x="315" y="705" type="line"/>
      <point x="148" y="705" type="line"/>
      <point x="148" y="600" type="line"/>
      <point x="24" y="600" type="line"/>
      <point x="24" y="458" type="line"/>
      <point x="148" y="458" type="line"/>
    </contour>
  </outline>
</glyph>
<glyph name="guilsinglright" format="2">
  <advance width="392"/>
  <unicode hex="203A"/>
  <outline>
    <contour>
      <point x="208" y="47" type="line"/>
      <point x="340" y="211" type="line"/>
      <point x="340" y="323" type="line"/>
      <point x="208" y="487" type="line"/>
      <point x="66" y="409" type="line"/>
      <point x="146" y="267" type="line"/>
      <point x="66" y="125" type="line"/>
    </contour>
  </outline>
</glyph>
<glyph name="commercialMinusSign" format="2">
  <advance width="748"/>
  <unicode hex="2052"/>
  <outline>
    <contour>
      <point x="189" y="-91" type="line"/>
      <point x="705" y="688" type="line"/>
      <point x="559" y="779" type="line"/>
      <point x="43" y="4" type="line"/>
    </contour>
    <contour>
      <point x="456" y="-8" type="line"/>
      <point x="684" y="-8" type="line"/>
      <point x="684" y="216" type="line"/>
      <point x="456" y="216" type="line"/>
    </contour>
    <contour>
      <point x="67" y="488" type="line"/>
      <point x="295" y="488" type="line"/>
      <point x="295" y="712" type="line"/>
      <point x="67" y="712" type="line"/>
    </contour>
  </outline>
</glyph>
<glyph name="colonsign" format="2">
  <advance width="748"/>
  <unicode hex="20A1"/>
  <outline>
    <contour>
      <point x="46" y="-115" type="line"/>
      <point x="187" y="-115" type="line"/>
      <point x="249" y="88" type="line"/>
      <point x="209" y="53" type="line"/>
      <point x="243" y="34"/>
      <point x="282" y="19"/>
      <point x="324" y="10" type="curve"/>
      <point x="315" y="46" type="line"/>
      <point x="266" y="-115" type="line"/>
      <point x="407" y="-115" type="line"/>
      <point x="452" y="33" type="line"/>
      <point x="409" y="-1" type="line"/>
      <point x="420" y="-2"/>
      <point x="431" y="-2"/>
      <point x="442" y="-2" type="curve" smooth="yes"/>
      <point x="549" y="-2"/>
      <point x="649" y="25"/>
      <point x="715" y="72" type="curve"/>
      <point x="638" y="242" type="line"/>
      <point x="587" y="213"/>
      <point x="535" y="200"/>
      <point x="474" y="200" type="curve" smooth="yes"/>
      <point x="355" y="200"/>
      <point x="289" y="256"/>
      <point x="289" y="353" type="curve" smooth="yes"/>
      <point x="289" y="450"/>
      <point x="355" y="505"/>
      <point x="477" y="505" type="curve" smooth="yes"/>
      <point x="541" y="505"/>
      <point x="591" y="492"/>
      <point x="638" y="463" type="curve"/>
      <point x="715" y="633" type="line"/>
      <point x="691" y="650"/>
      <point x="663" y="665"/>
      <point x="631" y="676" type="curve"/>
      <point x="636" y="636" type="line"/>
      <point x="692" y="820" type="line"/>
      <point x="551" y="820" type="line"/>
      <point x="505" y="669" type="line"/>
      <point x="541" y="699" type="line"/>
      <point x="492" y="707"/>
      <point x="443" y="708"/>
      <point x="392" y="705" type="curve"/>
      <point x="422" y="656" type="line"/>
      <point x="472" y="820" type="line"/>
      <point x="331" y="820" type="line"/>
      <point x="277" y="643" type="line"/>
      <point x="320" y="694" type="line"/>
      <point x="148" y="654"/>
      <point x="38" y="528"/>
      <point x="38" y="352" type="curve" smooth="yes"/>
      <point x="38" y="246"/>
      <point x="80" y="159"/>
      <point x="147" y="98" type="curve"/>
      <point x="135" y="177" type="line"/>
    </contour>
  </outline>
</glyph>
<glyph name="franc" format="2">
  <advance width="748"/>
  <unicode hex="20A3"/>
  <outline>
    <contour>
      <point x="101" y="0" type="line"/>
      <point x="347" y="0" type="line"/>
      <point x="347" y="81" type="line"/>
      <point x="556" y="81" type="line"/>
      <point x="556" y="208" type="line"/>
      <point x="347" y="208" type="line"/>
      <point x="347" y="269" type="line"/>
      <point x="679" y="269" type="line"/>
      <point x="679" y="448" type="line"/>
      <point x="347" y="448" type="line"/>
      <point x="347" y="526" type="line"/>
      <point x="707" y="526" type="line"/>
      <point x="707" y="705" type="line"/>
      <point x="101" y="705" type="line"/>
      <point x="101" y="208" type="line"/>
      <point x="8" y="208" type="line"/>
      <point x="8" y="81" type="line"/>
      <point x="101" y="81" type="line"/>
    </contour>
  </outline>
</glyph>
<glyph name="lira" format="2">
  <advance width="748"/>
  <unicode hex="20A4"/>
  <outline>
    <contour>
      <point x="48" y="0" type="line"/>
      <point x="715" y="0" type="line"/>
      <point x="715" y="186" type="line"/>
      <point x="367" y="186" type="line"/>
      <point x="367" y="224" type="line"/>
      <point x="550" y="224" type="line"/>
      <point x="550" y="336" type="line"/>
      <point x="367" y="336" type="line"/>
      <point x="367" y="374" type="line"/>
      <point x="550" y="374" type="line"/>
      <point x="550" y="486" type="line"/>
      <point x="344" y="486" type="line"/>
      <point x="367" y="437" type="line"/>
      <point x="367" y="459" type="line" smooth="yes"/>
      <point x="367" y="519"/>
      <point x="394" y="538"/>
      <point x="475" y="538" type="curve" smooth="yes"/>
      <point x="542" y="538"/>
      <point x="598" y="523"/>
      <point x="653" y="491" type="curve"/>
      <point x="734" y="653" type="line"/>
      <point x="670" y="693"/>
      <point x="567" y="717"/>
      <point x="457" y="717" type="curve" smooth="yes"/>
      <point x="249" y="717"/>
      <point x="129" y="627"/>
      <point x="129" y="473" type="curve" smooth="yes"/>
      <point x="129" y="434" type="line"/>
      <point x="156" y="486" type="line"/>
      <point x="48" y="486" type="line"/>
      <point x="48" y="367" type="line"/>
      <point x="129" y="367" type="line"/>
      <point x="129" y="336" type="line"/>
      <point x="48" y="336" type="line"/>
      <point x="48" y="224" type="line"/>
      <point x="129" y="224" type="line"/>
      <point x="129" y="186" type="line"/>
      <point x="48" y="186" type="line"/>
    </contour>
  </outline>
</glyph>
<glyph name="naira" format="2">
  <advance width="748"/>
  <unicode hex="20A6"/>
  <outline>
    <contour>
      <point x="120" y="0" type="line"/>
      <point x="311" y="0" type="line"/>
      <point x="311" y="369" type="line"/>
      <point x="275" y="369" type="line"/>
      <point x="443" y="0" type="line"/>
      <point x="630" y="0" type="line"/>
      <point x="630" y="218" type="line"/>
      <point x="723" y="218" type="line"/>
      <point x="723" y="336" type="line"/>
      <point x="630" y="336" type="line"/>
      <point x="630" y="378" type="line"/>
      <point x="723" y="378" type="line"/>
      <point x="723" y="496" type="line"/>
      <point x="630" y="496" type="line"/>
      <point x="630" y="705" type="line"/>
      <point x="439" y="705" type="line"/>
      <point x="439" y="336" type="line"/>
      <point x="475" y="336" type="line"/>
      <point x="307" y="705" type="line"/>
      <point x="120" y="705" type="line"/>
      <point x="120" y="496" type="line"/>
      <point x="27" y="496" type="line"/>
      <point x="27" y="378" type="line"/>
      <point x="120" y="378" type="line"/>
      <point x="120" y="336" type="line"/>
      <point x="27" y="336" type="line"/>
      <point x="27" y="218" type="line"/>
      <point x="120" y="218" type="line"/>
    </contour>
  </outline>
</glyph>
<glyph name="euro" format="2">
  <advance width="748"/>
  <unicode hex="20AC"/>
  <outline>
    <contour>
      <point x="484" y="-12" type="curve" smooth="yes"/>
      <point x="579" y="-12"/>
      <point x="659" y="13"/>
      <point x="730" y="63" type="curve"/>
      <point x="660" y="212" type="line"/>
      <point x="613" y="185"/>
      <point x="564" y="168"/>
      <point x="510" y="168" type="curve" smooth="yes"/>
      <point x="422" y="168"/>
      <point x="388" y="200"/>
      <point x="356" y="239" type="curve"/>
      <point x="332" y="222" type="line"/>
      <point x="529" y="222" type="line"/>
      <point x="529" y="334" type="line"/>
      <point x="306" y="334" type="line"/>
      <point x="336" y="310" type="line"/>
      <point x="332" y="338"/>
      <point x="333" y="379"/>
      <point x="337" y="400" type="curve"/>
      <point x="304" y="372" type="line"/>
      <point x="529" y="372" type="line"/>
      <point x="529" y="484" type="line"/>
      <point x="331" y="484" type="line"/>
      <point x="357" y="467" type="line"/>
      <point x="389" y="505"/>
      <point x="421" y="537"/>
      <point x="506" y="537" type="curve" smooth="yes"/>
      <point x="559" y="537"/>
      <point x="610" y="519"/>
      <point x="659" y="492" type="curve"/>
      <point x="730" y="642" type="line"/>
      <point x="661" y="692"/>
      <point x="580" y="717"/>
      <point x="485" y="717" type="curve" smooth="yes"/>
      <point x="301" y="717"/>
      <point x="169" y="624"/>
      <point x="124" y="474" type="curve"/>
      <point x="164" y="484" type="line"/>
      <point x="28" y="484" type="line"/>
      <point x="28" y="372" type="line"/>
      <point x="148" y="372" type="line"/>
      <point x="110" y="405" type="line"/>
      <point x="106" y="374"/>
      <point x="107" y="336"/>
      <point x="109" y="308" type="curve"/>
      <point x="146" y="334" type="line"/>
      <point x="28" y="334" type="line"/>
      <point x="28" y="222" type="line"/>
      <point x="154" y="222" type="line"/>
      <point x="124" y="231" type="line"/>
      <point x="169" y="80"/>
      <point x="302.001" y="-12"/>
    </contour>
  </outline>
</glyph>
<glyph name="kip" format="2">
  <advance width="748"/>
  <unicode hex="20AD"/>
  <outline>
    <contour>
      <point x="94" y="0" type="line"/>
      <point x="324" y="0" type="line"/>
      <point x="324" y="279" type="line"/>
      <point x="326" y="279" type="line"/>
      <point x="507" y="0" type="line"/>
      <point x="759" y="0" type="line"/>
      <point x="539" y="302" type="line"/>
      <point x="539" y="288" type="line"/>
      <point x="716" y="288" type="line"/>
      <point x="716" y="416" type="line"/>
      <point x="534" y="416" type="line"/>
      <point x="534" y="396" type="line"/>
      <point x="756" y="705" type="line"/>
      <point x="508" y="705" type="line"/>
      <point x="326" y="428" type="line"/>
      <point x="324" y="428" type="line"/>
      <point x="324" y="705" type="line"/>
      <point x="94" y="705" type="line"/>
      <point x="94" y="416" type="line"/>
      <point x="27" y="416" type="line"/>
      <point x="27" y="288" type="line"/>
      <point x="94" y="288" type="line"/>
    </contour>
  </outline>
</glyph>
<glyph name="tugrik" format="2">
  <advance width="748"/>
  <unicode hex="20AE"/>
  <outline>
    <contour>
      <point x="250" y="0" type="line"/>
      <point x="498" y="0" type="line"/>
      <point x="498" y="157" type="line"/>
      <point x="628" y="200" type="line"/>
      <point x="628" y="324" type="line"/>
      <point x="498" y="281" type="line"/>
      <point x="498" y="327" type="line"/>
      <point x="628" y="370" type="line"/>
      <point x="628" y="494" type="line"/>
      <point x="498" y="451" type="line"/>
      <point x="498" y="515" type="line"/>
      <point x="740" y="515" type="line"/>
      <point x="740" y="705" type="line"/>
      <point x="8" y="705" type="line"/>
      <point x="8" y="515" type="line"/>
      <point x="250" y="515" type="line"/>
      <point x="250" y="369" type="line"/>
      <point x="120" y="326" type="line"/>
      <point x="120" y="202" type="line"/>
      <point x="250" y="245" type="line"/>
      <point x="250" y="199" type="line"/>
      <point x="120" y="156" type="line"/>
      <point x="120" y="32" type="line"/>
      <point x="250" y="75" type="line"/>
    </contour>
  </outline>
</glyph>
<glyph name="peso" format="2">
  <advance width="748"/>
  <unicode hex="20B1"/>
  <outline>
    <contour>
      <point x="119" y="0" type="line"/>
      <point x="345" y="0" type="line"/>
      <point x="345" y="195" type="line"/>
      <point x="364" y="195" type="line" smooth="yes"/>
      <point x="488" y="195"/>
      <point x="576" y="242"/>
      <point x="618" y="325" type="curve"/>
      <point x="582" y="313" type="line"/>
      <point x="721" y="313" type="line"/>
      <point x="721" y="431" type="line"/>
      <point x="626" y="431" type="line"/>
      <point x="642" y="405" type="line"/>
      <point x="645" y="429"/>
      <point x="646" y="460"/>
      <point x="643" y="487" type="curve"/>
      <point x="627" y="473" type="line"/>
      <point x="721" y="473" type="line"/>
      <point x="721" y="591" type="line"/>
      <point x="582" y="591" type="line"/>
      <point x="620" y="571" type="line"/>
      <point x="579" y="657"/>
      <point x="489" y="705"/>
      <point x="364" y="705" type="curve" smooth="yes"/>
      <point x="119" y="705" type="line"/>
      <point x="119" y="591" type="line"/>
      <point x="27" y="591" type="line"/>
      <point x="27" y="473" type="line"/>
      <point x="119" y="473" type="line"/>
      <point x="119" y="431" type="line"/>
      <point x="27" y="431" type="line"/>
      <point x="27" y="313" type="line"/>
      <point x="119" y="313" type="line"/>
    </contour>
    <contour>
      <point x="345" y="371" type="line"/>
      <point x="345" y="529" type="line"/>
      <point x="349" y="529" type="line" smooth="yes"/>
      <point x="391" y="529"/>
      <point x="431" y="517"/>
      <point x="431" y="452" type="curve" smooth="yes"/>
      <point x="431" y="383"/>
      <point x="384" y="371"/>
      <point x="349" y="371" type="curve" smooth="yes"/>
    </contour>
  </outline>
</glyph>
<glyph name="guarani" format="2">
  <advance width="748"/>
  <unicode hex="20B2"/>
  <outline>
    <contour>
      <point x="326" y="-115" type="line"/>
      <point x="504" y="-115" type="line"/>
      <point x="504" y="27" type="line"/>
      <point x="479" y="-1" type="line"/>
      <point x="557" y="3"/>
      <point x="630" y="22"/>
      <point x="706" y="52" type="curve"/>
      <point x="706" y="412" type="line"/>
      <point x="389" y="412" type="line"/>
      <point x="389" y="262" type="line"/>
      <point x="508" y="262" type="line"/>
      <point x="508" y="165" type="line"/>
      <point x="586" y="210" type="line"/>
      <point x="532" y="198"/>
      <point x="498" y="189"/>
      <point x="451" y="189" type="curve" smooth="yes"/>
      <point x="335" y="189"/>
      <point x="269" y="247"/>
      <point x="269" y="351" type="curve" smooth="yes"/>
      <point x="269" y="454"/>
      <point x="335" y="509"/>
      <point x="459" y="509" type="curve" smooth="yes"/>
      <point x="521" y="509"/>
      <point x="567" y="496"/>
      <point x="628" y="462" type="curve"/>
      <point x="704" y="639" type="line"/>
      <point x="644" y="676"/>
      <point x="573" y="701"/>
      <point x="483" y="706" type="curve"/>
      <point x="504" y="680" type="line"/>
      <point x="504" y="820" type="line"/>
      <point x="326" y="820" type="line"/>
      <point x="326" y="680" type="line"/>
      <point x="342" y="698" type="line"/>
      <point x="152" y="664"/>
      <point x="25" y="536"/>
      <point x="25" y="349" type="curve" smooth="yes"/>
      <point x="25" y="159"/>
      <point x="157" y="32"/>
      <point x="355" y="4" type="curve"/>
      <point x="326" y="27" type="line"/>
    </contour>
  </outline>
</glyph>
<glyph name="hryvnia" format="2">
  <advance width="748"/>
  <unicode hex="20B4"/>
  <outline>
    <contour>
      <point x="400" y="-12" type="curve" smooth="yes"/>
      <point x="528" y="-12"/>
      <point x="629" y="10"/>
      <point x="695" y="52" type="curve"/>
      <point x="618" y="202" type="line"/>
      <point x="583" y="181"/>
      <point x="506" y="166"/>
      <point x="440" y="166" type="curve" smooth="yes"/>
      <point x="374" y="166"/>
      <point x="338" y="181"/>
      <point x="338" y="205" type="curve" smooth="yes"/>
      <point x="338" y="215"/>
      <point x="344" y="222"/>
      <point x="376" y="249" type="curve"/>
      <point x="301" y="222" type="line"/>
      <point x="706" y="222" type="line"/>
      <point x="706" y="334" type="line"/>
      <point x="420" y="334" type="line"/>
      <point x="445" y="317" type="line"/>
      <point x="526" y="390" type="line"/>
      <point x="480" y="372" type="line"/>
      <point x="706" y="372" type="line"/>
      <point x="706" y="484" type="line"/>
      <point x="602" y="484" type="line"/>
      <point x="616" y="476" type="line"/>
      <point x="651" y="507"/>
      <point x="666" y="534"/>
      <point x="666" y="574" type="curve" smooth="yes"/>
      <point x="666" y="668"/>
      <point x="580" y="717"/>
      <point x="413" y="717" type="curve" smooth="yes"/>
      <point x="297" y="717"/>
      <point x="180" y="694"/>
      <point x="104" y="655" type="curve"/>
      <point x="170" y="504" type="line"/>
      <point x="213" y="526"/>
      <point x="275" y="539"/>
      <point x="344" y="539" type="curve" smooth="yes"/>
      <point x="396" y="539"/>
      <point x="420" y="531"/>
      <point x="420" y="514" type="curve" smooth="yes"/>
      <point x="420" y="501"/>
      <point x="404" y="484"/>
      <point x="382" y="474" type="curve"/>
      <point x="443" y="484" type="line"/>
      <point x="46" y="484" type="line"/>
      <point x="46" y="372" type="line"/>
      <point x="312" y="372" type="line"/>
      <point x="302" y="390" type="line"/>
      <point x="222" y="318" type="line"/>
      <point x="269" y="334" type="line"/>
      <point x="46" y="334" type="line"/>
      <point x="46" y="222" type="line"/>
      <point x="152" y="222" type="line"/>
      <point x="141" y="239" type="line"/>
      <point x="110" y="215"/>
      <point x="92" y="181"/>
      <point x="92" y="140" type="curve" smooth="yes"/>
      <point x="92" y="41"/>
      <point x="200" y="-12"/>
    </contour>
  </outline>
</glyph>
<glyph name="cedi" format="2">
  <advance width="748"/>
  <unicode hex="20B5"/>
  <outline>
    <contour>
      <point x="338" y="-115" type="line"/>
      <point x="516" y="-115" type="line"/>
      <point x="516" y="23" type="line"/>
      <point x="502" y="1" type="line"/>
      <point x="586" y="9"/>
      <point x="662" y="34"/>
      <point x="715" y="72" type="curve"/>
      <point x="638" y="242" type="line"/>
      <point x="587" y="213"/>
      <point x="535" y="200"/>
      <point x="474" y="200" type="curve" smooth="yes"/>
      <point x="355" y="200"/>
      <point x="289" y="256"/>
      <point x="289" y="353" type="curve" smooth="yes"/>
      <point x="289" y="450"/>
      <point x="355" y="505"/>
      <point x="477" y="505" type="curve" smooth="yes"/>
      <point x="541" y="505"/>
      <point x="591" y="492"/>
      <point x="638" y="463" type="curve"/>
      <point x="715" y="633" type="line"/>
      <point x="662" y="671"/>
      <point x="586" y="696"/>
      <point x="503" y="704" type="curve"/>
      <point x="516" y="682" type="line"/>
      <point x="516" y="820" type="line"/>
      <point x="338" y="820" type="line"/>
      <point x="338" y="678" type="line"/>
      <point x="382" y="704" type="line"/>
      <point x="173" y="683"/>
      <point x="38" y="549"/>
      <point x="38" y="352" type="curve" smooth="yes"/>
      <point x="38" y="161"/>
      <point x="166" y="29"/>
      <point x="365" y="3" type="curve"/>
      <point x="338" y="27" type="line"/>
    </contour>
  </outline>
</glyph>
<glyph name="tenge" format="2">
  <advance width="748"/>
  <unicode hex="20B8"/>
  <outline>
    <contour>
      <point x="250" y="0" type="line"/>
      <point x="498" y="0" type="line"/>
      <point x="498" y="420" type="line"/>
      <point x="740" y="420" type="line"/>
      <point x="740" y="542" type="line"/>
      <point x="8" y="542" type="line"/>
      <point x="8" y="420" type="line"/>
      <point x="250" y="420" type="line"/>
    </contour>
    <contour>
      <point x="8" y="584" type="line"/>
      <point x="740" y="584" type="line"/>
      <point x="740" y="705" type="line"/>
      <point x="8" y="705" type="line"/>
    </contour>
  </outline>
</glyph>
<glyph name="liraTurkish" format="2">
  <advance width="748"/>
  <unicode hex="20BA"/>
  <outline>
    <contour>
      <point x="144" y="0" type="line"/>
      <point x="462" y="0" type="line" smooth="yes"/>
      <point x="641" y="0"/>
      <point x="729" y="76"/>
      <point x="729" y="230" type="curve" smooth="yes"/>
      <point x="729" y="287" type="line"/>
      <point x="508" y="287" type="line"/>
      <point x="508" y="245" type="line" smooth="yes"/>
      <point x="508" y="204"/>
      <point x="492" y="190"/>
      <point x="443" y="190" type="curve" smooth="yes"/>
      <point x="382" y="190" type="line"/>
      <point x="382" y="284" type="line"/>
      <point x="564" y="370" type="line"/>
      <point x="564" y="496" type="line"/>
      <point x="382" y="410" type="line"/>
      <point x="382" y="464" type="line"/>
      <point x="564" y="550" type="line"/>
      <point x="564" y="676" type="line"/>
      <point x="382" y="590" type="line"/>
      <point x="382" y="705" type="line"/>
      <point x="144" y="705" type="line"/>
      <point x="144" y="477" type="line"/>
      <point x="67" y="441" type="line"/>
      <point x="67" y="315" type="line"/>
      <point x="144" y="351" type="line"/>
      <point x="144" y="297" type="line"/>
      <point x="67" y="261" type="line"/>
      <point x="67" y="135" type="line"/>
      <point x="144" y="171" type="line"/>
    </contour>
  </outline>
</glyph>
<glyph name="literSign" format="2">
  <advance width="748"/>
  <unicode hex="2113"/>
  <outline>
    <contour>
      <point x="412" y="-12" type="curve" smooth="yes"/>
      <point x="490" y="-12"/>
      <point x="568" y="14"/>
      <point x="619" y="56" type="curve"/>
      <point x="560" y="184" type="line"/>
      <point x="532" y="162"/>
      <point x="508" y="153"/>
      <point x="481" y="153" type="curve" smooth="yes"/>
      <point x="437" y="153"/>
      <point x="404" y="184"/>
      <point x="404" y="227" type="curve" smooth="yes"/>
      <point x="404" y="287" type="line"/>
      <point x="435" y="307" type="line" smooth="yes"/>
      <point x="491" y="343"/>
      <point x="609" y="421"/>
      <point x="609" y="562" type="curve" smooth="yes"/>
      <point x="609" y="662"/>
      <point x="549" y="717"/>
      <point x="433" y="717" type="curve" smooth="yes"/>
      <point x="291" y="717"/>
      <point x="193" y="633"/>
      <point x="193" y="512" type="curve" smooth="yes"/>
      <point x="193" y="263" type="line"/>
      <point x="64" y="179" type="line"/>
      <point x="120" y="99" type="line"/>
      <point x="258" y="190" type="line"/>
      <point x="193" y="190" type="line"/>
      <point x="193" y="178" type="line" smooth="yes"/>
      <point x="193" y="61"/>
      <point x="281" y="-12"/>
    </contour>
    <contour>
      <point x="404" y="402" type="curve"/>
      <point x="404" y="535" type="line" smooth="yes"/>
      <point x="404" y="559"/>
      <point x="422" y="574"/>
      <point x="449" y="574" type="curve" smooth="yes"/>
      <point x="476" y="574"/>
      <point x="489" y="559"/>
      <point x="489" y="525" type="curve" smooth="yes"/>
      <point x="489" y="479"/>
      <point x="463" y="441"/>
      <point x="413" y="408" type="curve" smooth="yes"/>
      <point x="410" y="406"/>
      <point x="407" y="404"/>
    </contour>
  </outline>
</glyph>
<glyph name="trademark" format="2">
  <advance width="1239"/>
  <unicode hex="2122"/>
  <outline>
    <contour>
      <point x="155" y="284" type="line"/>
      <point x="357" y="284" type="line"/>
      <point x="357" y="547" type="line"/>
      <point x="491" y="547" type="line"/>
      <point x="491" y="705" type="line"/>
      <point x="21" y="705" type="line"/>
      <point x="21" y="547" type="line"/>
      <point x="155" y="547" type="line"/>
    </contour>
    <contour>
      <point x="561" y="284" type="line"/>
      <point x="737" y="284" type="line"/>
      <point x="737" y="497" type="line"/>
      <point x="710" y="497" type="line"/>
      <point x="827" y="362" type="line"/>
      <point x="899" y="362" type="line"/>
      <point x="1013" y="497" type="line"/>
      <point x="989" y="497" type="line"/>
      <point x="989" y="284" type="line"/>
      <point x="1165" y="284" type="line"/>
      <point x="1165" y="705" type="line"/>
      <point x="994" y="705" type="line"/>
      <point x="848" y="514" type="line"/>
      <point x="878" y="514" type="line"/>
      <point x="732" y="705" type="line"/>
      <point x="561" y="705" type="line"/>
    </contour>
  </outline>
</glyph>
<glyph name="increment" format="2">
  <advance width="748"/>
  <unicode hex="2206"/>
  <outline>
    <contour>
      <point x="12" y="0" type="line"/>
      <point x="736" y="0" type="line"/>
      <point x="736" y="148" type="line"/>
      <point x="464" y="705" type="line"/>
      <point x="284" y="705" type="line"/>
      <point x="12" y="148" type="line"/>
    </contour>
    <contour>
      <point x="205" y="132" type="line"/>
      <point x="373" y="491" type="line"/>
      <point x="375" y="491" type="line"/>
      <point x="543" y="132" type="line"/>
      <point x="543" y="179" type="line"/>
      <point x="205" y="179" type="line"/>
    </contour>
  </outline>
</glyph>
<glyph name="product" format="2">
  <advance width="748"/>
  <unicode hex="220F"/>
  <outline>
    <contour>
      <point x="66" y="-180" type="line"/>
      <point x="278" y="-180" type="line"/>
      <point x="278" y="527" type="line"/>
      <point x="470" y="527" type="line"/>
      <point x="470" y="-180" type="line"/>
      <point x="682" y="-180" type="line"/>
      <point x="682" y="705" type="line"/>
      <point x="66" y="705" type="line"/>
    </contour>
  </outline>
</glyph>
<glyph name="minus" format="2">
  <advance width="748"/>
  <unicode hex="2212"/>
  <outline>
    <contour>
      <point x="103" y="213" type="line"/>
      <point x="645" y="213" type="line"/>
      <point x="645" y="361" type="line"/>
      <point x="103" y="361" type="line"/>
    </contour>
  </outline>
</glyph>
<glyph name="divisionslash" format="2">
  <advance width="748"/>
  <unicode hex="2215"/>
  <outline>
    <contour>
      <point x="294" y="-91" type="line"/>
      <point x="618" y="719" type="line"/>
      <point x="454" y="779" type="line"/>
      <point x="130" y="-31" type="line"/>
    </contour>
  </outline>
</glyph>
<glyph name="bulletoperator" format="2">
  <advance width="748"/>
  <unicode hex="2219"/>
  <outline>
    <contour>
      <point x="260" y="158" type="line"/>
      <point x="488" y="158" type="line"/>
      <point x="488" y="382" type="line"/>
      <point x="260" y="382" type="line"/>
    </contour>
  </outline>
</glyph>
<glyph name="radical" format="2">
  <advance width="748"/>
  <unicode hex="221A"/>
  <outline>
    <contour>
      <point x="251" y="-180" type="line"/>
      <point x="480" y="-180" type="line"/>
      <point x="744" y="758" type="line"/>
      <point x="557" y="758" type="line"/>
      <point x="351" y="4" type="line"/>
      <point x="374" y="4" type="line"/>
      <point x="260" y="364" type="line"/>
      <point x="8" y="364" type="line"/>
      <point x="8" y="202" type="line"/>
      <point x="204" y="202" type="line"/>
      <point x="96" y="278" type="line"/>
    </contour>
  </outline>
</glyph>
<glyph name="approxequal" format="2">
  <advance width="748"/>
  <unicode hex="2248"/>
  <outline>
    <contour>
      <point x="497" y="293" type="curve" smooth="yes"/>
      <point x="584" y="293"/>
      <point x="648" y="335"/>
      <point x="679" y="412" type="curve"/>
      <point x="567" y="486" type="line"/>
      <point x="550" y="450"/>
      <point x="525" y="433"/>
      <point x="489" y="433" type="curve" smooth="yes"/>
      <point x="458" y="433"/>
      <point x="424" y="445"/>
      <point x="383" y="459" type="curve" smooth="yes"/>
      <point x="318" y="481"/>
      <point x="282" y="489"/>
      <point x="249" y="489" type="curve" smooth="yes"/>
      <point x="163" y="489"/>
      <point x="98" y="446"/>
      <point x="69" y="369" type="curve"/>
      <point x="180" y="296" type="line"/>
      <point x="197" y="332"/>
      <point x="224" y="350"/>
      <point x="260" y="350" type="curve" smooth="yes"/>
      <point x="286" y="350"/>
      <point x="309" y="341"/>
      <point x="367" y="321" type="curve" smooth="yes"/>
      <point x="429" y="300"/>
      <point x="462" y="293"/>
    </contour>
    <contour>
      <point x="497" y="85" type="curve" smooth="yes"/>
      <point x="584" y="85"/>
      <point x="648" y="127"/>
      <point x="679" y="204" type="curve"/>
      <point x="567" y="278" type="line"/>
      <point x="550" y="242"/>
      <point x="525" y="225"/>
      <point x="489" y="225" type="curve" smooth="yes"/>
      <point x="458" y="225"/>
      <point x="424" y="237"/>
      <point x="383" y="251" type="curve" smooth="yes"/>
      <point x="318" y="273"/>
      <point x="282" y="281"/>
      <point x="249" y="281" type="curve" smooth="yes"/>
      <point x="163" y="281"/>
      <point x="98" y="238"/>
      <point x="69" y="161" type="curve"/>
      <point x="180" y="88" type="line"/>
      <point x="197" y="124"/>
      <point x="224" y="142"/>
      <point x="260" y="142" type="curve" smooth="yes"/>
      <point x="286" y="142"/>
      <point x="309" y="133"/>
      <point x="367" y="113" type="curve" smooth="yes"/>
      <point x="429" y="92"/>
      <point x="462" y="85"/>
    </contour>
  </outline>
</glyph>
<glyph name="lessequal" format="2">
  <advance width="748"/>
  <unicode hex="2264"/>
  <outline>
    <contour>
      <point x="645" y="177" type="line"/>
      <point x="645" y="323" type="line"/>
      <point x="148" y="399" type="line"/>
      <point x="148" y="335" type="line"/>
      <point x="645" y="411" type="line"/>
      <point x="645" y="557" type="line"/>
      <point x="103" y="453" type="line"/>
      <point x="103" y="281" type="line"/>
    </contour>
    <contour>
      <point x="103" y="0" type="line"/>
      <point x="645" y="0" type="line"/>
      <point x="645" y="148" type="line"/>
      <point x="103" y="148" type="line"/>
    </contour>
  </outline>
</glyph>
<glyph name="greaterequal" format="2">
  <advance width="748"/>
  <unicode hex="2265"/>
  <outline>
    <contour>
      <point x="103" y="177" type="line"/>
      <point x="645" y="281" type="line"/>
      <point x="645" y="453" type="line"/>
      <point x="103" y="557" type="line"/>
      <point x="103" y="411" type="line"/>
      <point x="600" y="335" type="line"/>
      <point x="600" y="399" type="line"/>
      <point x="103" y="323" type="line"/>
    </contour>
    <contour>
      <point x="103" y="0" type="line"/>
      <point x="645" y="0" type="line"/>
      <point x="645" y="148" type="line"/>
      <point x="103" y="148" type="line"/>
    </contour>
  </outline>
</glyph>
<glyph name="__bar.Obarred-cy" format="2">
  <advance width="996"/>
  <anchor x="499" y="353" name="_center"/>
  <outline>
    <contour>
      <point x="186" y="274" type="line"/>
      <point x="809" y="274" type="line"/>
      <point x="809" y="442" type="line"/>
      <point x="186" y="442" type="line"/>
    </contour>
  </outline>
</glyph>
<glyph name="__descender-cy.case" format="2">
  <advance width="64"/>
  <anchor x="-1" y="0" name="_bottomright"/>
  <outline>
    <contour>
      <point x="141" y="-180" type="line"/>
      <point x="346" y="-180" type="line"/>
      <point x="346" y="182" type="line"/>
      <point x="-1" y="182" type="line"/>
      <point x="-1" y="0" type="line"/>
      <point x="141" y="0" type="line"/>
    </contour>
  </outline>
</glyph>
<glyph name="__descender-cy.cy" format="2">
  <advance width="78"/>
  <anchor x="-1" y="0" name="_bottomright"/>
  <outline>
    <contour>
      <point x="49" y="-130" type="line"/>
      <point x="257" y="-130" type="line"/>
      <point x="257" y="166" type="line"/>
      <point x="-1" y="166" type="line"/>
      <point x="-1" y="0" type="line"/>
      <point x="49" y="0" type="line"/>
    </contour>
  </outline>
</glyph>
<glyph name="__descender-cy" format="2">
  <anchor x="-1" y="0" name="_bottomright"/>
  <outline>
    <contour>
      <point x="124" y="-130" type="line"/>
      <point x="313" y="-130" type="line"/>
      <point x="313" y="166" type="line"/>
      <point x="-1" y="166" type="line"/>
      <point x="-1" y="0" type="line"/>
      <point x="124" y="0" type="line"/>
    </contour>
  </outline>
</glyph>
<glyph name="__strokehook-cy" format="2">
  <advance width="771"/>
  <anchor x="112" y="0" name="_bottomright"/>
  <outline>
    <contour>
      <point x="81" y="-190" type="line"/>
      <point x="187" y="-184" type="line" smooth="yes"/>
      <point x="383" y="-172"/>
      <point x="474" y="-98"/>
      <point x="474" y="50" type="curve" smooth="yes"/>
      <point x="474" y="182" type="line"/>
      <point x="112" y="182" type="line"/>
      <point x="112" y="0" type="line"/>
      <point x="257" y="0" type="line"/>
      <point x="257" y="-15"/>
      <point x="220" y="-33"/>
      <point x="146" y="-37" type="curve" smooth="yes"/>
      <point x="66" y="-44" type="line"/>
    </contour>
  </outline>
</glyph>
<glyph name="__tail-cy.case" format="2">
  <advance width="44"/>
  <anchor x="-1" y="0" name="_bottomright"/>
  <outline>
    <contour>
      <point x="21" y="-180" type="line"/>
      <point x="222" y="-180" type="line"/>
      <point x="358" y="182" type="line"/>
      <point x="-1" y="182" type="line"/>
      <point x="-1" y="0" type="line"/>
      <point x="94" y="0" type="line"/>
    </contour>
  </outline>
</glyph>
<glyph name="_part.Qtail" format="2">
  <advance width="996"/>
  <anchor x="499" y="-10" name="_Qtail"/>
  <outline>
    <contour>
      <point x="744" y="-234" type="line"/>
      <point x="941" y="-137" type="line"/>
      <point x="853" y="-16" type="line" smooth="yes"/>
      <point x="819" y="30"/>
      <point x="754" y="52"/>
      <point x="675" y="52" type="curve"/>
      <point x="499" y="-10" type="line"/>
      <point x="561" y="-11"/>
      <point x="598" y="-20"/>
      <point x="618" y="-50" type="curve" smooth="yes"/>
    </contour>
  </outline>
</glyph>
<glyph name="acutecomb_dotaccentcomb.case" format="2">
  <anchor x="0" y="705" name="_top"/>
  <outline>
    <contour>
      <point x="-191" y="889" type="line"/>
      <point x="-11" y="889" type="line"/>
      <point x="-11" y="1021" type="line"/>
      <point x="-191" y="1021" type="line"/>
    </contour>
    <contour>
      <point x="-74" y="764" type="line"/>
      <point x="74" y="764" type="line"/>
      <point x="279" y="939" type="line"/>
      <point x="64" y="939" type="line"/>
    </contour>
  </outline>
</glyph>
<glyph name="brevecomb-cy" format="2">
  <anchor x="0" y="484" name="_top"/>
  <outline>
    <contour>
      <point x="0" y="555" type="curve" smooth="yes"/>
      <point x="141" y="555"/>
      <point x="227" y="610"/>
      <point x="245" y="719" type="curve"/>
      <point x="137" y="747" type="line"/>
      <point x="121" y="684"/>
      <point x="72" y="666"/>
      <point x="0" y="666" type="curve" smooth="yes"/>
      <point x="-72" y="666"/>
      <point x="-121" y="684"/>
      <point x="-137" y="747" type="curve"/>
      <point x="-245" y="719" type="line"/>
      <point x="-227" y="610"/>
      <point x="-141" y="555"/>
    </contour>
  </outline>
</glyph>
<glyph name="brevecomb.case" format="2">
  <anchor x="0" y="705" name="_top"/>
  <anchor x="0" y="865" name="top"/>
  <outline>
    <contour>
      <point x="0" y="760" type="curve" smooth="yes"/>
      <point x="155" y="760"/>
      <point x="243" y="826"/>
      <point x="248" y="946" type="curve"/>
      <point x="126" y="956" type="line"/>
      <point x="119" y="909"/>
      <point x="78" y="885"/>
      <point x="0" y="885" type="curve" smooth="yes"/>
      <point x="-78" y="885"/>
      <point x="-119" y="909"/>
      <point x="-126" y="956" type="curve"/>
      <point x="-248" y="946" type="line"/>
      <point x="-243" y="826"/>
      <point x="-155" y="760"/>
    </contour>
  </outline>
</glyph>
<glyph name="brevecomb_hookabovecomb" format="2">
  <anchor x="0" y="484" name="_top"/>
  <outline>
    <contour>
      <point x="-10" y="555" type="curve" smooth="yes"/>
      <point x="134" y="555"/>
      <point x="213" y="611"/>
      <point x="228" y="725" type="curve"/>
      <point x="126" y="735" type="line"/>
      <point x="110" y="688"/>
      <point x="70" y="666"/>
      <point x="-10" y="666" type="curve" smooth="yes"/>
      <point x="-90" y="666"/>
      <point x="-130" y="688"/>
      <point x="-146" y="735" type="curve"/>
      <point x="-248" y="725" type="line"/>
      <point x="-233" y="611"/>
      <point x="-154" y="555"/>
    </contour>
    <contour>
      <point x="-68" y="705" type="curve"/>
      <point x="48" y="705" type="line"/>
      <point x="44" y="736"/>
      <point x="123" y="735"/>
      <point x="123" y="782" type="curve" smooth="yes"/>
      <point x="123" y="818"/>
      <point x="76" y="841"/>
      <point x="-13" y="841" type="curve" smooth="yes"/>
      <point x="-59" y="841"/>
      <point x="-104" y="835"/>
      <point x="-143" y="820" type="curve"/>
      <point x="-118" y="751" type="line"/>
      <point x="-90" y="759"/>
      <point x="-69" y="763"/>
      <point x="-51" y="763" type="curve" smooth="yes"/>
      <point x="-33" y="763"/>
      <point x="-21" y="758"/>
      <point x="-21" y="751" type="curve" smooth="yes"/>
      <point x="-21" y="738"/>
      <point x="-74" y="733"/>
    </contour>
  </outline>
</glyph>
<glyph name="brevecomb_tildecomb.case" format="2">
  <anchor x="0" y="705" name="_top"/>
  <outline>
    <contour>
      <point x="-1" y="760" type="curve" smooth="yes"/>
      <point x="127" y="760"/>
      <point x="203" y="801"/>
      <point x="230" y="883" type="curve"/>
      <point x="139" y="913" type="line"/>
      <point x="118" y="885"/>
      <point x="68" y="871"/>
      <point x="-1" y="871" type="curve" smooth="yes"/>
      <point x="-70" y="871"/>
      <point x="-120" y="885"/>
      <point x="-141" y="913" type="curve"/>
      <point x="-232" y="883" type="line"/>
      <point x="-205" y="801"/>
      <point x="-128" y="760"/>
    </contour>
    <contour>
      <point x="-143" y="922" type="line"/>
      <point x="-136" y="940"/>
      <point x="-106" y="946"/>
      <point x="-82" y="946" type="curve" smooth="yes"/>
      <point x="-58" y="946"/>
      <point x="-35" y="941"/>
      <point x="-10" y="935" type="curve" smooth="yes"/>
      <point x="18" y="928"/>
      <point x="49" y="921"/>
      <point x="85" y="921" type="curve" smooth="yes"/>
      <point x="177" y="921"/>
      <point x="233" y="965"/>
      <point x="238" y="1040" type="curve"/>
      <point x="143" y="1045" type="line"/>
      <point x="138" y="1032"/>
      <point x="118" y="1021"/>
      <point x="83" y="1021" type="curve" smooth="yes"/>
      <point x="58" y="1021"/>
      <point x="35" y="1026"/>
      <point x="10" y="1032" type="curve" smooth="yes"/>
      <point x="-19" y="1039"/>
      <point x="-49" y="1046"/>
      <point x="-85" y="1046" type="curve" smooth="yes"/>
      <point x="-176" y="1046"/>
      <point x="-233" y="1001"/>
      <point x="-238" y="927" type="curve"/>
    </contour>
  </outline>
</glyph>
<glyph name="caroncomb.alt" format="2">
  <anchor x="0" y="705" name="_topright"/>
  <outline>
    <contour>
      <point x="0" y="507" type="line"/>
      <point x="99" y="507" type="line"/>
      <point x="136" y="705" type="line"/>
      <point x="0" y="705" type="line"/>
    </contour>
  </outline>
</glyph>
<glyph name="circumflexcomb_gravecomb.case" format="2">
  <anchor x="0" y="705" name="_top"/>
  <outline>
    <contour>
      <point x="-236" y="765" type="line"/>
      <point x="-97" y="765" type="line"/>
      <point x="-1" y="835" type="line"/>
      <point x="95" y="765" type="line"/>
      <point x="234" y="765" type="line"/>
      <point x="94" y="940" type="line"/>
      <point x="-96" y="940" type="line"/>
    </contour>
    <contour>
      <point x="207" y="878" type="line"/>
      <point x="331" y="878" type="line"/>
      <point x="232" y="1027" type="line"/>
      <point x="55" y="1027" type="line"/>
    </contour>
  </outline>
</glyph>
<glyph name="circumflexcomb_hookabovecomb.case" format="2">
  <anchor x="0" y="705" name="_top"/>
  <outline>
    <contour>
      <point x="-236" y="765" type="line"/>
      <point x="-97" y="765" type="line"/>
      <point x="-1" y="835" type="line"/>
      <point x="95" y="765" type="line"/>
      <point x="234" y="765" type="line"/>
      <point x="94" y="940" type="line"/>
      <point x="-96" y="940" type="line"/>
    </contour>
    <contour>
      <point x="161" y="877" type="curve"/>
      <point x="277" y="877" type="line"/>
      <point x="273" y="908"/>
      <point x="344" y="925"/>
      <point x="344" y="972" type="curve" smooth="yes"/>
      <point x="344" y="1010"/>
      <point x="297" y="1031"/>
      <point x="212" y="1031" type="curve" smooth="yes"/>
      <point x="164" y="1031"/>
      <point x="124" y="1024"/>
      <point x="86" y="1010" type="curve"/>
      <point x="111" y="941" type="line"/>
      <point x="138" y="950"/>
      <point x="154" y="953"/>
      <point x="174" y="953" type="curve" smooth="yes"/>
      <point x="191" y="953"/>
      <point x="200" y="949"/>
      <point x="200" y="942" type="curve" smooth="yes"/>
      <point x="200" y="927"/>
      <point x="155" y="905"/>
    </contour>
  </outline>
</glyph>
<glyph name="circumflexcomb_tildecomb.case" format="2">
  <anchor x="0" y="705" name="_top"/>
  <outline>
    <contour>
      <point x="-235" y="765" type="line"/>
      <point x="-92" y="765" type="line"/>
      <point x="0" y="813" type="line"/>
      <point x="92" y="765" type="line"/>
      <point x="235" y="765" type="line"/>
      <point x="95" y="902" type="line"/>
      <point x="-95" y="902" type="line"/>
    </contour>
    <contour>
      <point x="-143" y="924" type="line"/>
      <point x="-136" y="942"/>
      <point x="-106" y="948"/>
      <point x="-82" y="948" type="curve" smooth="yes"/>
      <point x="-58" y="948"/>
      <point x="-35" y="943"/>
      <point x="-10" y="937" type="curve" smooth="yes"/>
      <point x="18" y="930"/>
      <point x="49" y="923"/>
      <point x="85" y="923" type="curve" smooth="yes"/>
      <point x="177" y="923"/>
      <point x="233" y="967"/>
      <point x="238" y="1042" type="curve"/>
      <point x="143" y="1047" type="line"/>
      <point x="138" y="1034"/>
      <point x="118" y="1023"/>
      <point x="83" y="1023" type="curve" smooth="yes"/>
      <point x="58" y="1023"/>
      <point x="35" y="1028"/>
      <point x="10" y="1034" type="curve" smooth="yes"/>
      <point x="-19" y="1041"/>
      <point x="-49" y="1048"/>
      <point x="-85" y="1048" type="curve" smooth="yes"/>
      <point x="-176" y="1048"/>
      <point x="-233" y="1003"/>
      <point x="-238" y="929" type="curve"/>
    </contour>
  </outline>
</glyph>
<glyph name="commaturnedabovecomb.case" format="2">
  <anchor x="0" y="705" name="_top"/>
  <anchor x="0" y="865" name="top"/>
  <outline>
    <contour>
      <point x="-89" y="765" type="line"/>
      <point x="91" y="765" type="line"/>
      <point x="91" y="921" type="line"/>
      <point x="-41" y="921" type="line"/>
      <point x="-5" y="889" type="line"/>
      <point x="-4" y="919"/>
      <point x="12" y="946"/>
      <point x="55" y="989" type="curve"/>
      <point x="3" y="1033" type="line"/>
      <point x="-62" y="979"/>
      <point x="-89" y="930"/>
      <point x="-89" y="867" type="curve" smooth="yes"/>
    </contour>
  </outline>
</glyph>
<glyph name="dieresiscomb_acutecomb" format="2">
  <anchor x="0" y="484" name="_top"/>
  <outline>
    <contour>
      <point x="-67" y="705" type="line"/>
      <point x="67" y="705" type="line"/>
      <point x="209" y="820" type="line"/>
      <point x="2" y="820" type="line"/>
    </contour>
    <contour>
      <point x="-229" y="558" type="line"/>
      <point x="-39" y="558" type="line"/>
      <point x="-39" y="678" type="line"/>
      <point x="-229" y="678" type="line"/>
    </contour>
    <contour>
      <point x="39" y="558" type="line"/>
      <point x="229" y="558" type="line"/>
      <point x="229" y="678" type="line"/>
      <point x="39" y="678" type="line"/>
    </contour>
  </outline>
</glyph>
<glyph name="dieresiscomb_macroncomb.case" format="2">
  <anchor x="0" y="705" name="_top"/>
  <outline>
    <contour>
      <point x="-216" y="921" type="line"/>
      <point x="216" y="921" type="line"/>
      <point x="216" y="1041" type="line"/>
      <point x="-216" y="1041" type="line"/>
    </contour>
    <contour>
      <point x="-229" y="769" type="line"/>
      <point x="-39" y="769" type="line"/>
      <point x="-39" y="889" type="line"/>
      <point x="-229" y="889" type="line"/>
    </contour>
    <contour>
      <point x="39" y="769" type="line"/>
      <point x="229" y="769" type="line"/>
      <point x="229" y="889" type="line"/>
      <point x="39" y="889" type="line"/>
    </contour>
  </outline>
</glyph>
<glyph name="eight.dnom" format="2">
  <advance width="470"/>
  <outline>
    <contour>
      <point x="235" y="-6" type="curve" smooth="yes"/>
      <point x="377" y="-6"/>
      <point x="458" y="45"/>
      <point x="458" y="120" type="curve" smooth="yes"/>
      <point x="458" y="176"/>
      <point x="411" y="218"/>
      <point x="340" y="224" type="curve"/>
      <point x="340" y="215" type="line"/>
      <point x="403" y="224"/>
      <point x="443" y="262"/>
      <point x="443" y="312" type="curve" smooth="yes"/>
      <point x="443" y="383"/>
      <point x="368" y="427"/>
      <point x="235" y="427" type="curve" smooth="yes"/>
      <point x="102" y="427"/>
      <point x="27" y="383"/>
      <point x="27" y="312" type="curve" smooth="yes"/>
      <point x="27" y="262"/>
      <point x="67" y="224"/>
      <point x="130" y="215" type="curve"/>
      <point x="130" y="224" type="line"/>
      <point x="59" y="218"/>
      <point x="12" y="176"/>
      <point x="12" y="120" type="curve" smooth="yes"/>
      <point x="12" y="45"/>
      <point x="93" y="-6"/>
    </contour>
    <contour>
      <point x="235" y="104" type="curve" smooth="yes"/>
      <point x="187" y="104"/>
      <point x="159" y="114"/>
      <point x="159" y="130" type="curve"/>
      <point x="159" y="146"/>
      <point x="187" y="157"/>
      <point x="235" y="157" type="curve" smooth="yes"/>
      <point x="283" y="157"/>
      <point x="311" y="146"/>
      <point x="311" y="130" type="curve"/>
      <point x="311" y="114"/>
      <point x="283" y="104"/>
    </contour>
    <contour>
      <point x="235" y="266" type="curve" smooth="yes"/>
      <point x="194" y="266"/>
      <point x="174" y="276"/>
      <point x="174" y="292" type="curve"/>
      <point x="174" y="309"/>
      <point x="195" y="317"/>
      <point x="235" y="317" type="curve" smooth="yes"/>
      <point x="275" y="317"/>
      <point x="296" y="309"/>
      <point x="296" y="292" type="curve"/>
      <point x="296" y="276"/>
      <point x="276" y="266"/>
    </contour>
  </outline>
</glyph>
<glyph name="five.dnom" format="2">
  <advance width="470"/>
  <outline>
    <contour>
      <point x="219" y="-6" type="curve" smooth="yes"/>
      <point x="366" y="-6"/>
      <point x="449" y="50"/>
      <point x="449" y="143" type="curve" smooth="yes"/>
      <point x="449" y="226"/>
      <point x="383" y="277"/>
      <point x="274" y="277" type="curve" smooth="yes"/>
      <point x="236" y="277"/>
      <point x="195" y="271"/>
      <point x="172" y="262" type="curve"/>
      <point x="201" y="262" type="line"/>
      <point x="201" y="303" type="line"/>
      <point x="420" y="303" type="line"/>
      <point x="420" y="423" type="line"/>
      <point x="45" y="423" type="line"/>
      <point x="45" y="156" type="line"/>
      <point x="125" y="156" type="line"/>
      <point x="144" y="164"/>
      <point x="169" y="167"/>
      <point x="207" y="167" type="curve" smooth="yes"/>
      <point x="260" y="167"/>
      <point x="280" y="161"/>
      <point x="280" y="147" type="curve" smooth="yes"/>
      <point x="280" y="132"/>
      <point x="258" y="122"/>
      <point x="207" y="122" type="curve" smooth="yes"/>
      <point x="159" y="122"/>
      <point x="109" y="131"/>
      <point x="74" y="147" type="curve"/>
      <point x="22" y="34" type="line"/>
      <point x="53" y="12"/>
      <point x="135" y="-6"/>
    </contour>
  </outline>
</glyph>
<glyph name="five.tosf" format="2">
  <advance width="748"/>
  <outline>
    <contour>
      <point x="374" y="-192" type="curve" smooth="yes"/>
      <point x="579" y="-192"/>
      <point x="701" y="-99"/>
      <point x="701" y="48" type="curve" smooth="yes"/>
      <point x="701" y="181"/>
      <point x="601" y="261"/>
      <point x="442" y="261" type="curve" smooth="yes"/>
      <point x="371" y="261"/>
      <point x="311" y="245"/>
      <point x="272" y="220" type="curve"/>
      <point x="308" y="220" type="line"/>
      <point x="308" y="320" type="line"/>
      <point x="659" y="320" type="line"/>
      <point x="659" y="494" type="line"/>
      <point x="98" y="494" type="line"/>
      <point x="98" y="68" type="line"/>
      <point x="245" y="68" type="line"/>
      <point x="298" y="87"/>
      <point x="336" y="95"/>
      <point x="378" y="95" type="curve" smooth="yes"/>
      <point x="440" y="95"/>
      <point x="475" y="78"/>
      <point x="475" y="38" type="curve" smooth="yes"/>
      <point x="475" y="-3"/>
      <point x="439" y="-23"/>
      <point x="371" y="-23" type="curve" smooth="yes"/>
      <point x="295" y="-23"/>
      <point x="206" y="2"/>
      <point x="138" y="42" type="curve"/>
      <point x="64" y="-116" type="line"/>
      <point x="131" y="-161"/>
      <point x="256" y="-192"/>
    </contour>
  </outline>
</glyph>
<glyph name="four.dnom" format="2">
  <advance width="470"/>
  <outline>
    <contour>
      <point x="235" y="0" type="line"/>
      <point x="399" y="0" type="line"/>
      <point x="399" y="50" type="line"/>
      <point x="466" y="50" type="line"/>
      <point x="466" y="171" type="line"/>
      <point x="399" y="171" type="line"/>
      <point x="399" y="423" type="line"/>
      <point x="256" y="423" type="line"/>
      <point x="15" y="169" type="line"/>
      <point x="15" y="50" type="line"/>
      <point x="235" y="50" type="line"/>
    </contour>
    <contour>
      <point x="235" y="171" type="line"/>
      <point x="103" y="171" type="line"/>
      <point x="103" y="118" type="line"/>
      <point x="263" y="275" type="line"/>
      <point x="235" y="275" type="line"/>
    </contour>
  </outline>
</glyph>
<glyph name="four.tosf" format="2">
  <advance width="748"/>
  <outline>
    <contour>
      <point x="392" y="-180" type="line"/>
      <point x="616" y="-180" type="line"/>
      <point x="616" y="0" type="line"/>
      <point x="712" y="0" type="line"/>
      <point x="712" y="162" type="line"/>
      <point x="616" y="162" type="line"/>
      <point x="616" y="495" type="line"/>
      <point x="434" y="495" type="line"/>
      <point x="42" y="139" type="line"/>
      <point x="42" y="0" type="line"/>
      <point x="392" y="0" type="line"/>
    </contour>
    <contour>
      <point x="392" y="162" type="line"/>
      <point x="249" y="162" type="line"/>
      <point x="249" y="140" type="line"/>
      <point x="425" y="301" type="line"/>
      <point x="392" y="301" type="line"/>
    </contour>
  </outline>
</glyph>
<glyph name="ghestroke-cy.loclBSH" format="2">
  <advance width="608"/>
  <outline>
    <contour>
      <point x="73" y="0" type="line"/>
      <point x="303" y="0" type="line"/>
      <point x="303" y="125" type="line"/>
      <point x="508" y="125" type="line"/>
      <point x="508" y="278" type="line"/>
      <point x="303" y="278" type="line"/>
      <point x="303" y="321" type="line"/>
      <point x="584" y="321" type="line"/>
      <point x="584" y="494" type="line"/>
      <point x="73" y="494" type="line"/>
    </contour>
  </outline>
</glyph>
<glyph name="hookabovecomb.case" format="2">
  <anchor x="0" y="705" name="_top"/>
  <anchor x="0" y="865" name="top"/>
  <outline>
    <contour>
      <point x="-66" y="765" type="line"/>
      <point x="64" y="765" type="line"/>
      <point x="64" y="774" type="line" smooth="yes"/>
      <point x="64" y="814"/>
      <point x="159" y="820"/>
      <point x="159" y="880" type="curve" smooth="yes"/>
      <point x="159" y="925"/>
      <point x="106" y="952"/>
      <point x="5" y="952" type="curve" smooth="yes"/>
      <point x="-56" y="952"/>
      <point x="-112" y="942"/>
      <point x="-151" y="923" type="curve"/>
      <point x="-117" y="840" type="line"/>
      <point x="-94" y="851"/>
      <point x="-72" y="856"/>
      <point x="-48" y="856" type="curve" smooth="yes"/>
      <point x="-20" y="856"/>
      <point x="-7" y="851"/>
      <point x="-7" y="841" type="curve" smooth="yes"/>
      <point x="-7" y="821"/>
      <point x="-66" y="810"/>
      <point x="-66" y="777" type="curve" smooth="yes"/>
    </contour>
  </outline>
</glyph>
<glyph name="horncomb.O.case" format="2">
  <anchor x="0" y="705" name="_topright"/>
  <outline>
    <contour>
      <point x="39" y="609" type="line"/>
      <point x="186" y="609" type="line"/>
      <point x="278" y="609"/>
      <point x="362" y="685"/>
      <point x="362" y="768" type="curve" smooth="yes"/>
      <point x="362" y="826" type="line"/>
      <point x="166" y="826" type="line"/>
      <point x="166" y="794" type="line" smooth="yes"/>
      <point x="166" y="724"/>
      <point x="145" y="705"/>
      <point x="66" y="705" type="curve" smooth="yes"/>
      <point x="39" y="705"/>
      <point x="19" y="708"/>
      <point x="-6" y="709" type="curve"/>
    </contour>
  </outline>
</glyph>
<glyph name="hungarumlautcomb.case" format="2">
  <anchor x="0" y="705" name="_top"/>
  <anchor x="0" y="865" name="top"/>
  <outline>
    <contour>
      <point x="-172" y="765" type="line"/>
      <point x="-45" y="765" type="line"/>
      <point x="127" y="950" type="line"/>
      <point x="-66" y="950" type="line"/>
    </contour>
    <contour>
      <point x="45" y="765" type="line"/>
      <point x="172" y="765" type="line"/>
      <point x="365" y="950" type="line"/>
      <point x="171" y="950" type="line"/>
    </contour>
  </outline>
</glyph>
<glyph name="macroncomb_acutecomb" format="2">
  <anchor x="0" y="484" name="_top"/>
  <outline>
    <contour>
      <point x="-216" y="558" type="line"/>
      <point x="216" y="558" type="line"/>
      <point x="216" y="678" type="line"/>
      <point x="-216" y="678" type="line"/>
    </contour>
    <contour>
      <point x="-67" y="705" type="line"/>
      <point x="67" y="705" type="line"/>
      <point x="209" y="820" type="line"/>
      <point x="2" y="820" type="line"/>
    </contour>
  </outline>
</glyph>
